<svg width="960" height="960" viewBox="0 0 960 960" fill="none" xmlns="http://www.w3.org/2000/svg">
<g clip-path="url(#clip0_46_7761)">
<g clip-path="url(#clip1_46_7761)">
<path fill-rule="evenodd" clip-rule="evenodd" d="M774.573 791.4L770.543 790.95C760.649 741.133 723.974 682.505 679.004 658.854C668.91 717.082 691.912 789.403 723.524 836.403L723.924 836.936C742 823.14 758.938 807.912 774.573 791.4ZM707.296 693.103C706.439 692.022 704.868 691.84 703.786 692.697C702.705 693.554 702.523 695.126 703.38 696.207C724.27 722.568 740.184 752.514 750.343 784.578C750.76 785.893 752.164 786.622 753.479 786.205C754.795 785.788 755.523 784.384 755.107 783.069C744.765 750.426 728.563 719.94 707.296 693.103Z" fill="url(#paint0_linear_46_7761)"/>
<path fill-rule="evenodd" clip-rule="evenodd" d="M581.468 300.025C559.657 319.449 534.437 334.664 507.084 344.9C473.111 357.475 436.712 362.117 400.671 358.47L400.421 360.885C429.601 387.934 438.601 431.438 433.501 470.912C429.853 499.012 420.093 525.712 408.817 551.825C404.832 561.058 400.658 570.216 396.503 579.33C395.899 580.656 395.295 581.98 394.693 583.304C392.511 588.104 390.34 592.923 388.181 597.761C374.123 629.461 361.581 662.135 359.081 696.561C357.576 717.158 359.718 737.721 361.862 758.302C363.088 770.075 364.315 781.853 364.861 793.646C366.343 826.058 363.345 869.779 342.209 894.396L341.759 895.629C325.502 889.63 309.651 882.582 294.307 874.529L295.174 872.847C314.044 851.794 317.292 817.017 308.748 790.052C302.314 769.764 291.297 751.432 280.289 733.115L280.288 733.113C276.673 727.097 273.059 721.082 269.608 715C256.783 692.4 245.874 667.282 246.49 641.516C246.54 639.251 246.673 636.985 246.923 634.704C249.531 609.815 263.013 588.287 276.533 566.698C289.087 546.652 301.675 526.552 305.623 503.657C309.882 478.953 303.575 454.425 297.249 429.824C294.423 418.83 291.593 407.823 289.7 396.778C276.192 317.93 315.766 232.67 384.7 192.078C453.634 151.486 547.392 158.251 609.784 208.334C637.648 230.686 659.9 262.282 663.465 297.825C664.927 312.399 663.326 327.449 661.738 342.383C659.111 367.079 656.518 391.46 667.865 412.849C674.835 425.97 686.162 435.874 697.492 445.782C708.743 455.619 719.997 465.46 726.992 478.455C739.767 502.189 735.553 531.755 725.21 556.655C719.741 569.83 712.721 582.255 705.7 594.683L705.699 594.684C699.441 605.761 693.182 616.84 688.018 628.455C683.767 638.176 680.74 648.388 679.007 658.855C668.91 717.082 691.912 789.4 723.524 836.4L723.924 836.933C691.357 861.884 655.213 881.779 616.711 895.947L616.145 894.398C596.39 866.543 573.759 835.033 551.11 803.495C528.119 771.484 505.109 739.444 485.065 711.17C468.193 687.385 450.655 661.27 447.573 633.005C447.012 627.904 446.95 622.761 447.39 617.648C448.544 605.973 452.136 594.67 457.933 584.47C466.611 568.731 479.552 554.857 493.343 543.114C501.631 536.055 510.35 529.48 519.065 522.909C534.323 511.403 549.565 499.91 562.443 485.852C607.48 436.735 615.675 357.571 581.664 300.259L581.468 300.025ZM379.914 374.661C380.887 373.683 382.469 373.68 383.447 374.654C409.475 400.578 419.956 439.115 417.426 475.398C414.896 511.68 400.566 546.093 382.632 577.336C381.945 578.533 380.418 578.946 379.221 578.259C378.024 577.572 377.611 576.045 378.298 574.848C396.047 543.928 409.985 510.273 412.441 475.051C414.897 439.83 404.677 402.852 379.921 378.195C378.943 377.221 378.94 375.639 379.914 374.661ZM512.716 196.09C511.336 196.074 510.205 197.18 510.189 198.56C510.174 199.94 511.28 201.071 512.659 201.086C530.781 201.289 548.664 205.242 565.182 212.696C581.701 220.151 596.497 230.944 608.639 244.397C620.782 257.851 630.007 273.672 635.734 290.866C641.461 308.06 643.566 326.253 641.916 344.3C641.477 349.099 640.775 353.936 640.04 358.842C639.97 359.309 639.899 359.777 639.829 360.245C639.163 364.676 638.488 369.164 637.995 373.638C636.903 383.535 636.664 393.601 639.396 403.493C643.572 418.609 653.768 430.282 664.3 441.258C665.73 442.748 667.165 444.225 668.594 445.695C677.831 455.2 686.832 464.462 692.725 475.597C706.037 500.746 701.464 532.117 690.736 559.362C686.049 571.264 680.327 582.734 674.551 594.313L674.55 594.314C673.716 595.986 672.881 597.659 672.048 599.337C665.467 612.59 659.016 626.053 654.351 640.277C635.795 696.858 648.982 762.689 687.903 807.753C688.805 808.797 690.382 808.913 691.427 808.011C692.471 807.109 692.586 805.531 691.684 804.487C653.909 760.75 641.09 696.75 659.1 641.834C663.642 627.984 669.946 614.804 676.524 601.56C677.348 599.9 678.177 598.238 679.007 596.574L679.015 596.558C684.783 584.997 690.612 573.315 695.385 561.193C706.309 533.454 711.474 500.338 697.142 473.259C690.886 461.44 681.325 451.612 672.123 442.153L672.123 442.153L672.122 442.152C670.703 440.694 669.294 439.244 667.906 437.798C657.376 426.824 648.02 415.947 644.213 402.163C641.729 393.169 641.896 383.84 642.961 374.186C643.444 369.815 644.104 365.425 644.772 360.978C644.842 360.514 644.912 360.049 644.981 359.583C645.716 354.68 646.438 349.713 646.893 344.756L646.893 344.755C648.605 326.021 646.42 307.135 640.475 289.287C634.53 271.439 624.953 255.015 612.349 241.049C599.745 227.084 584.385 215.88 567.238 208.142C550.09 200.404 531.527 196.3 512.716 196.09Z" fill="#171717"/>
<path d="M388.928 598.094C398.855 619.594 422.406 634.037 446.073 633.155L447.573 633.005C450.655 661.269 468.193 687.385 485.065 711.169C524.856 767.299 576.338 838.269 616.145 894.398L616.711 895.947C527.928 928.478 430.468 928.366 341.76 895.631L342.21 894.398C363.346 869.781 366.344 826.06 364.862 793.648C363.362 761.236 356.717 728.941 359.082 696.563C361.582 662.135 374.122 629.457 388.182 597.763L388.928 598.094Z" fill="url(#paint1_linear_46_7761)"/>
<path d="M244.807 641.482L246.489 641.516C245.873 667.282 256.782 692.399 269.607 715C283.565 739.6 300.207 763.1 308.748 790.051C317.292 817.016 314.048 851.793 295.174 872.846L294.307 874.528C238.594 845.328 189.943 803.375 151.802 752.276C171.444 707.132 203.749 668.649 244.807 641.482Z" fill="url(#paint2_linear_46_7761)"/>
<path d="M490.011 378.274C487.796 370.645 478.768 366.631 470.89 367.614C463.012 368.597 458.798 370.629 453.802 377.974" stroke="#171717" stroke-width="4.997" stroke-linecap="round" stroke-linejoin="round"/>
<path d="M575.789 375.908C573.824 372.691 571.128 369.982 567.92 368.003C564.712 366.023 561.082 364.829 557.325 364.515C553.569 364.202 549.791 364.78 546.299 366.201C542.808 367.622 539.701 369.846 537.23 372.694" stroke="#171717" stroke-width="4.997" stroke-linecap="round" stroke-linejoin="round"/>
<path d="M519.959 400.026C519.446 402.65 519.572 405.359 520.328 407.924C521.084 410.489 522.447 412.834 524.301 414.76C526.155 416.687 528.446 418.138 530.98 418.991C533.514 419.845 536.217 420.075 538.859 419.663" stroke="#171717" stroke-width="4.997" stroke-linecap="round" stroke-linejoin="round"/>
<path d="M525.4 427.941C530.064 424.941 534.211 422.677 538.858 419.663" stroke="#171717" stroke-width="4.997" stroke-linecap="round" stroke-linejoin="round"/>
<path d="M505.9 461.885C503.173 463.539 500.08 464.497 496.895 464.673C493.709 464.85 490.53 464.24 487.636 462.896C484.743 461.553 482.224 459.519 480.303 456.972C478.382 454.425 477.117 451.445 476.62 448.294" stroke="#171717" stroke-width="4.997" stroke-linecap="round" stroke-linejoin="round"/>
<path d="M374.154 354.223C382.903 356.154 391.756 357.572 400.67 358.47C436.712 362.117 473.11 357.475 507.083 344.9C534.436 334.665 559.656 319.451 581.467 300.029C593.377 289.463 604.178 277.709 613.7 264.949" stroke="#171717" stroke-width="4.997" stroke-linecap="round" stroke-linejoin="round"/>
<path d="M400.42 360.885C429.6 387.934 438.6 431.438 433.5 470.912C429.853 499.012 420.093 525.712 408.817 551.825C404.253 562.401 399.44 572.878 394.693 583.304C392.511 588.104 390.34 592.923 388.18 597.761C374.123 629.461 361.58 662.135 359.08 696.561C356.715 728.939 363.361 761.234 364.86 793.646C366.342 826.058 363.344 869.779 342.208 894.396" stroke="#171717" stroke-width="4.997" stroke-linecap="round" stroke-linejoin="round"/>
<path d="M581.667 300.259C615.678 357.571 607.483 436.735 562.446 485.852C542.21 507.938 516.146 523.694 493.346 543.114C479.555 554.856 466.614 568.731 457.936 584.47C452.139 594.67 448.547 605.973 447.393 617.648C446.954 622.761 447.016 627.904 447.577 633.005C450.658 661.269 468.196 687.385 485.068 711.169C524.859 767.299 576.341 838.269 616.148 894.398" stroke="#171717" stroke-width="4.997" stroke-linecap="round" stroke-linejoin="round"/>
<path d="M295.173 872.846C314.044 851.793 317.292 817.016 308.748 790.051C300.2 763.1 283.564 739.6 269.607 715C256.782 692.4 245.873 667.282 246.489 641.516C246.539 639.251 246.672 636.985 246.922 634.704C251.952 586.704 297.422 551.209 305.622 503.657C311.784 467.914 295.828 432.538 289.699 396.778C276.191 317.93 315.765 232.67 384.699 192.078C453.633 151.486 547.392 158.251 609.784 208.334C637.648 230.686 659.9 262.282 663.465 297.825C667.345 336.499 649.657 378.525 667.865 412.849C681.756 438.998 712.952 452.372 726.992 478.455C739.767 502.189 735.553 531.755 725.21 556.655C714.867 581.572 698.977 603.807 688.018 628.455C683.767 638.176 680.74 648.388 679.007 658.855C668.909 717.082 691.911 789.4 723.523 836.4" stroke="#171717" stroke-width="4.997" stroke-linecap="round" stroke-linejoin="round"/>
<path d="M244.807 641.482C203.751 668.649 171.448 707.133 151.807 752.276L151.79 752.292" stroke="#171717" stroke-width="4.997" stroke-linecap="round" stroke-linejoin="round"/>
<path d="M408.601 551.392C408.668 551.542 408.735 551.675 408.818 551.825C413.376 561.098 420.31 568.996 428.915 574.716C437.52 580.436 447.487 583.773 457.801 584.387" stroke="#171717" stroke-width="4.997" stroke-linecap="round" stroke-linejoin="round"/>
<path d="M388.928 598.094C398.855 619.594 422.406 634.037 446.073 633.155" stroke="#171717" stroke-width="4.997" stroke-linecap="round" stroke-linejoin="round"/>
<path d="M678.719 658.7C678.819 658.75 678.902 658.8 679.002 658.85C723.973 682.501 760.648 741.129 770.542 790.95" stroke="#171717" stroke-width="4.997" stroke-linecap="round" stroke-linejoin="round"/>
<path d="M151.8 752.276C95.9202 677.409 62.5762 582.954 62.5762 480.276C62.5762 237.27 249.319 40.2671 479.649 40.2671C709.997 40.2671 896.739 237.267 896.739 480.276C896.739 601.776 850.054 711.776 774.57 791.403C758.935 807.915 741.998 823.143 723.921 836.939C691.355 861.888 655.211 881.781 616.71 895.947C564.453 915.08 508.769 923.058 453.243 919.369C397.716 915.68 343.577 900.405 294.31 874.528C238.594 845.331 189.943 803.375 151.8 752.276Z" stroke="#171717" stroke-width="4.997" stroke-linecap="round" stroke-linejoin="round"/>
<path d="M201.467 380.965L169.084 339.4" stroke="#171717" stroke-width="4.997" stroke-linecap="round" stroke-linejoin="round"/>
<path d="M162.932 379.278C175.77 366.404 187.631 352.591 198.417 337.954C198.083 338.505 197.75 339.055 197.417 339.606" stroke="#171717" stroke-width="4.997" stroke-linecap="round" stroke-linejoin="round"/>
<path d="M703.861 166.717L678.161 143.023" stroke="#171717" stroke-width="4.997" stroke-linecap="round" stroke-linejoin="round"/>
<path d="M678.135 170.236L701.722 138.547" stroke="#171717" stroke-width="4.997" stroke-linecap="round" stroke-linejoin="round"/>
<path d="M807.383 532.291C800.307 521.235 791.585 511.324 781.519 502.9" stroke="#171717" stroke-width="4.997" stroke-linecap="round" stroke-linejoin="round"/>
<path d="M778.117 535.931C787.955 524.998 797.793 514.061 807.63 503.121" stroke="#171717" stroke-width="4.997" stroke-linecap="round" stroke-linejoin="round"/>
<path d="M807.526 322.284C812.626 312.012 816.326 298.278 808.22 290.167C801.303 283.248 789.02 285 781.529 291.293C774.038 297.586 770.155 307.069 766.548 316.163C763.908 307.746 759.069 300.186 752.531 294.264C745.993 288.341 737.993 284.272 729.356 282.474C722.429 281.125 713.883 282.046 710.415 288.192C707.015 294.216 710.335 301.671 713.633 307.75L735.57 348.2C739.735 355.881 751.749 382.087 757.993 382.655C765.842 383.37 801.27 334.872 807.526 322.284Z" fill="url(#paint3_linear_46_7761)"/>
<path d="M241.484 479.9C243.504 474.26 245.195 467.863 242.633 462.45C238.711 454.16 226.499 453.058 218.709 457.898C210.919 462.738 206.526 471.415 202.509 479.662C196.018 473.084 192.046 464.38 185.693 457.67C179.34 450.96 168.756 446.51 160.898 451.37C154.586 455.27 152.58 463.896 154.234 471.133C155.888 478.37 160.42 484.559 164.844 490.519C172.252 500.502 179.661 510.484 187.071 520.467C194.406 530.349 197.715 542.467 208.385 535.785C223.9 526.076 235.62 496.267 241.484 479.9Z" stroke="url(#paint4_linear_46_7761)" stroke-width="4.997" stroke-linecap="round" stroke-linejoin="round"/>
<path d="M283.654 183.373C281.214 181.531 278.338 180.353 275.307 179.952C272.276 179.552 269.193 179.943 266.358 181.089C263.523 182.234 261.033 184.093 259.13 186.486C257.228 188.88 255.977 191.725 255.5 194.745C250.838 192.08 247.269 187.908 243.5 184.086C239.731 180.264 235.424 176.596 230.182 175.431C224.94 174.266 218.613 176.426 216.669 181.431C214.598 186.771 218.044 192.531 221.335 197.214C227.82 206.451 234.254 215.727 240.792 224.926C248.174 235.312 250.504 240.526 261.302 231.69C266.124 227.74 290.731 188.729 283.654 183.373Z" stroke="#171717" stroke-width="4.997" stroke-linecap="round" stroke-linejoin="round"/>
<path d="M223.946 658.678C231.119 690.144 260.223 712.947 292.495 712.704C330.678 712.415 364.464 682.039 402.571 684.469C431.088 686.288 454.778 705.956 477.388 723.431C499.998 740.906 526.968 757.87 555.13 753.018C593.771 746.361 616.479 701.891 654.662 692.975C671.609 689.018 692.125 691.616 703.662 678.583" stroke="#171717" stroke-width="4.997" stroke-linecap="round" stroke-linejoin="round"/>
<path d="M191.909 688.658C191.719 712.617 201.347 736.076 219.364 751.869C228.449 759.73 239.099 765.572 250.61 769.009C262.121 772.446 274.231 773.4 286.138 771.808C306.356 768.973 324.706 758.925 343.36 750.623C362.014 742.321 382.609 735.538 402.589 739.734C425.699 744.587 443.102 762.875 461.689 777.446C492.95 801.953 535.589 817.589 572.576 803.1C599.61 792.509 618.624 768.007 643.644 753.278C657.809 744.941 673.656 739.878 688.244 732.311C702.832 724.744 716.757 713.805 722.456 698.388" stroke="#171717" stroke-width="4.997" stroke-linecap="round" stroke-linejoin="round"/>
<path d="M166.042 725.4C172.02 762.6 200.873 788.412 233.056 807.992C265.239 827.572 300.174 840.569 335.956 828.782C353.572 822.982 380.283 804.721 398.831 804.466C421.286 804.157 431.607 826.266 449.112 840.334C466.617 854.402 494.606 866.65 516.4 872.068C543.005 878.682 560.515 872.055 584.208 858.261C607.901 844.467 629.418 826.761 654.563 815.844C673.99 807.406 695.063 803.256 714.473 794.776C733.883 786.296 752.45 772.054 758.402 751.728" stroke="#171717" stroke-width="4.997" stroke-linecap="round" stroke-linejoin="round"/>
<path d="M395.67 276.04C401.252 276.04 406.74 279.8 409.991 285.855C413.252 291.927 413.285 298.443 410.077 303.285C408.499 305.698 406.339 307.674 403.796 309.032C401.253 310.389 398.409 311.085 395.527 311.053C387.427 311.053 378.966 305.68 378.468 295.41C378.097 287.767 383.405 279.842 390.813 276.977C392.36 276.366 394.007 276.049 395.67 276.04ZM395.67 271.04C393.39 271.048 391.132 271.48 389.011 272.314C379.701 275.914 372.994 285.679 373.478 295.649C374.106 308.6 384.709 316.049 395.529 316.049C399.237 316.085 402.894 315.188 406.165 313.44C409.435 311.693 412.214 309.151 414.246 306.049C423.446 292.149 411.4 271.049 395.67 271.049V271.04Z" fill="url(#paint5_linear_46_7761)"/>
<path d="M409.744 280.12C416.262 275.175 421.751 268.47 423.744 260.535C425.737 252.6 423.708 243.403 417.48 238.098C411.544 233.043 402.525 232.312 395.5 235.693C388.475 239.074 383.546 246.141 382.022 253.793C380.661 261.545 382.042 269.53 385.929 276.374C386.115 275.595 386.299 274.815 386.482 274.034" stroke="url(#paint6_linear_46_7761)" stroke-width="4.997" stroke-linecap="round" stroke-linejoin="round"/>
<path d="M385.112 275.72C382.707 270.874 379.435 266.51 375.457 262.843C371.441 259.168 366.302 256.956 360.872 256.566C351.861 256.179 343.148 262.725 340.572 271.366C337.996 280.007 341.485 289.992 348.602 295.531C355.719 301.07 365.944 302.079 374.21 298.471" stroke="url(#paint7_linear_46_7761)" stroke-width="4.997" stroke-linecap="round" stroke-linejoin="round"/>
<path d="M375.165 298.9C366.853 300.439 358.287 302.363 351.553 307.473C344.819 312.583 340.438 321.752 343.377 329.673C345.842 336.324 353.042 340.529 360.134 340.618C367.226 340.707 374.026 337.2 379.095 332.24C384.164 327.28 387.689 320.961 390.614 314.498" stroke="url(#paint8_linear_46_7761)" stroke-width="4.997" stroke-linecap="round" stroke-linejoin="round"/>
<path d="M392.018 313.313C389.068 316.171 387.995 320.592 388.503 324.667C389.174 328.738 390.795 332.594 393.234 335.922C396.301 340.699 400.496 344.649 405.45 347.422C410.45 350.045 416.488 350.971 421.85 349.194C431.286 346.066 436.54 334.566 433.864 324.994C431.188 315.422 421.782 308.526 411.892 307.524" stroke="url(#paint9_linear_46_7761)" stroke-width="4.997" stroke-linecap="round" stroke-linejoin="round"/>
<path d="M412.316 308.29C419.639 311.491 427.929 311.674 435.386 308.801C442.843 305.928 448.867 300.23 452.149 292.943C453.372 290.23 454.195 287.143 453.367 284.289C452.114 279.964 447.557 277.514 443.23 276.265C432.881 273.326 421.798 274.488 412.283 279.509L413.162 279.228" stroke="url(#paint10_linear_46_7761)" stroke-width="4.997" stroke-linecap="round" stroke-linejoin="round"/>
<g opacity="0.1">
<path d="M250.389 641.7C236.466 637.245 222.218 651.724 212.468 659.892C203.846 667.289 195.938 675.479 188.847 684.354C181.05 693.776 173.947 703.751 167.592 714.2C164.672 719.067 161.948 724.041 159.419 729.121C154.504 739.014 149.33 749.272 155.811 759.945C158.06 763.635 161.433 766.505 165.436 768.134C169.438 769.763 173.858 770.064 178.044 768.993C185.955 766.933 190.682 761.467 193.66 754.084C194.16 752.835 194.629 751.568 195.131 750.317C195.993 748.166 196.101 747.464 195.216 750.046C196.939 745.019 199.759 740.077 202.222 735.382C207.246 725.81 212.974 716.624 219.358 707.9C219.994 707.03 220.641 706.167 221.287 705.3C224.509 700.995 218.841 708.26 222.261 704.077C223.977 701.977 225.691 699.877 227.461 697.83C230.824 693.942 234.343 690.184 237.85 686.43C241.532 682.483 245.36 678.678 249.332 675.016C255.355 669.464 260.739 664.101 260.71 655.265C260.652 652.201 259.62 649.236 257.764 646.798C255.907 644.36 253.323 642.576 250.385 641.705L250.389 641.7Z" fill="#171717"/>
</g>
<g opacity="0.1">
<path d="M385.1 620.449C388.171 616.593 391.382 613.206 394.124 609.017C397.079 604.5 399.996 599.958 402.875 595.392C405.603 591.082 408.218 586.719 410.758 582.292C411.932 580.246 412.958 577.978 414.3 576.04C415.81 573.861 417.957 572.14 419.588 570.052C422.718 566.052 425.121 561.292 427.64 556.885C428.806 554.845 429.818 552.624 431.116 550.669C432.765 548.186 435.016 546.133 436.716 543.669C438.059 541.724 438.969 539.53 440.261 537.563C440.829 536.699 443.637 533.702 444.694 532.014C447.859 526.961 449.732 520.506 451.85 514.935C458.736 496.818 463.119 476.635 463.55 457.225C463.959 438.77 462.201 419.143 455.285 401.914C451.452 392.087 446.805 382.597 441.393 373.543C438.381 368.459 434.595 363.876 430.171 359.958C426.319 356.592 422.599 354.116 417.253 353.907C416.58 353.881 416.043 353.807 415.346 353.842L412.022 354.288C413.711 353.976 413.822 353.802 412.353 353.765L416.99 355.02C415.461 354.346 413.951 353.68 412.363 353.161C406.603 351.279 401.094 357.261 402.675 362.848C403.654 366.301 403.199 361.662 403.095 363.859C402.917 367.635 402.263 370.159 403.361 373.933C403.975 375.655 404.71 377.331 405.561 378.948C405.839 379.556 406.561 381.838 405.65 379.108C406.708 382.116 408.091 385 409.774 387.708C411.673 390.923 413.414 394.225 414.995 397.614C415.402 398.485 415.902 399.426 416.23 400.342C415.055 397.064 415.86 399.696 416.045 400.33C416.67 402.477 417.416 404.587 418.019 406.743C420.249 414.714 421.824 422.98 423.251 431.13C423.482 432.447 424.728 438.33 423.684 433.516C424.024 435.529 424.237 437.561 424.324 439.6C424.675 443.674 424.875 447.758 424.924 451.851C425.062 460.283 424.754 468.716 424 477.115C423.834 478.883 423.632 480.647 423.426 482.415C423.014 485.934 423.377 482.701 423.48 482.054C423.32 483.054 423.18 484.068 423.016 485.073C422.216 489.995 421.188 494.862 420.104 499.728C419.071 504.366 418.033 508.995 416.804 513.588C415.462 518.619 415.194 524.879 414.34 528.553C413.301 533.021 413.198 537.985 411.88 542.285C410.491 546.819 408.424 551.322 406.636 555.727C405.537 558.139 404.589 560.617 403.799 563.147C403.105 565.755 402.791 568.278 401.672 570.747C399.456 575.647 396.566 580.286 394.082 585.047C391.447 590.101 388.787 595.142 386.101 600.169C383.335 605.328 381.327 610.481 379.053 615.788C377.516 619.373 382.101 624.198 385.09 620.446L385.1 620.449Z" fill="#171717"/>
</g>
</g>
</g>
<defs>
<linearGradient id="paint0_linear_46_7761" x1="725.586" y1="658.854" x2="725.586" y2="836.936" gradientUnits="userSpaceOnUse">
<stop stop-color="#FFDD33"/>
<stop offset="1" stop-color="#E89A00"/>
</linearGradient>
<linearGradient id="paint1_linear_46_7761" x1="479.235" y1="597.763" x2="479.235" y2="920.264" gradientUnits="userSpaceOnUse">
<stop stop-color="#FFDD33"/>
<stop offset="1" stop-color="#E89A00"/>
</linearGradient>
<linearGradient id="paint2_linear_46_7761" x1="232.513" y1="641.482" x2="232.513" y2="874.528" gradientUnits="userSpaceOnUse">
<stop stop-color="#FFDD33"/>
<stop offset="1" stop-color="#E89A00"/>
</linearGradient>
<linearGradient id="paint3_linear_46_7761" x1="760.972" y1="281.934" x2="760.972" y2="382.663" gradientUnits="userSpaceOnUse">
<stop stop-color="#FFDD33"/>
<stop offset="1" stop-color="#E89A00"/>
</linearGradient>
<linearGradient id="paint4_linear_46_7761" x1="198.805" y1="449.318" x2="198.805" y2="537.706" gradientUnits="userSpaceOnUse">
<stop stop-color="#FFDD33"/>
<stop offset="1" stop-color="#E89A00"/>
</linearGradient>
<linearGradient id="paint5_linear_46_7761" x1="395.447" y1="271.04" x2="395.447" y2="316.05" gradientUnits="userSpaceOnUse">
<stop stop-color="#FFDD33"/>
<stop offset="1" stop-color="#E89A00"/>
</linearGradient>
<linearGradient id="paint6_linear_46_7761" x1="402.997" y1="233.623" x2="402.997" y2="280.12" gradientUnits="userSpaceOnUse">
<stop stop-color="#FFDD33"/>
<stop offset="1" stop-color="#E89A00"/>
</linearGradient>
<linearGradient id="paint7_linear_46_7761" x1="362.419" y1="256.55" x2="362.419" y2="300.591" gradientUnits="userSpaceOnUse">
<stop stop-color="#FFDD33"/>
<stop offset="1" stop-color="#E89A00"/>
</linearGradient>
<linearGradient id="paint8_linear_46_7761" x1="366.531" y1="298.9" x2="366.531" y2="340.62" gradientUnits="userSpaceOnUse">
<stop stop-color="#FFDD33"/>
<stop offset="1" stop-color="#E89A00"/>
</linearGradient>
<linearGradient id="paint9_linear_46_7761" x1="411.471" y1="307.524" x2="411.471" y2="350.11" gradientUnits="userSpaceOnUse">
<stop stop-color="#FFDD33"/>
<stop offset="1" stop-color="#E89A00"/>
</linearGradient>
<linearGradient id="paint10_linear_46_7761" x1="432.993" y1="274.674" x2="432.993" y2="310.831" gradientUnits="userSpaceOnUse">
<stop stop-color="#FFDD33"/>
<stop offset="1" stop-color="#E89A00"/>
</linearGradient>
<clipPath id="clip0_46_7761">
<rect width="960" height="960" fill="white"/>
</clipPath>
<clipPath id="clip1_46_7761">
<rect width="840" height="886" fill="white" transform="translate(60 37)"/>
</clipPath>
</defs>
</svg>
