<svg width="960" height="960" viewBox="0 0 960 960" fill="none" xmlns="http://www.w3.org/2000/svg">
<g clip-path="url(#clip0_46_7747)">
<g clip-path="url(#clip1_46_7747)">
<path fill-rule="evenodd" clip-rule="evenodd" d="M605.575 584.94C630.667 532.735 633.718 472.22 624.408 414.914L624.514 414.892C675.7 525.757 700.96 646.825 698.378 768.909L698.633 768.92C711.737 775.754 728.189 771.874 737.882 760.726L738.169 760.747C738.188 760.487 738.208 760.228 738.228 759.971C738.26 759.565 738.291 759.163 738.318 758.76C748.176 619.889 731.485 480.412 689.139 347.788V347.32C646.741 347.302 604.751 355.588 565.539 371.711L565.593 371.839C558.421 391.585 560.321 413.478 564.721 434.033C566.284 441.334 568.148 448.576 570.012 455.815C573.395 468.957 576.776 482.089 578.346 495.548C583.533 540.185 567.219 586.853 535.26 618.46C513.25 640.224 484.129 654.499 453.585 659.324L453.808 660.802C451.995 665.259 451.448 670.13 452.226 674.878C453.004 679.626 455.077 684.067 458.218 687.712C460.652 687.648 463.086 687.552 465.509 687.382C525.993 683.259 579.299 639.578 605.575 584.94ZM682.077 354.417C681.81 353.578 680.914 353.114 680.075 353.381C679.236 353.648 678.772 354.544 679.039 355.383C719.558 482.863 735.855 616.801 727.087 750.278C727.029 751.156 727.695 751.915 728.573 751.973C729.452 752.03 730.211 751.365 730.268 750.487C739.062 616.613 722.717 482.276 682.077 354.417Z" fill="#171717"/>
<path fill-rule="evenodd" clip-rule="evenodd" d="M634.525 104.291L637.679 104.185C632.156 96.2088 624.975 89.5202 616.627 84.5766C608.279 79.633 598.962 76.5512 589.312 75.5419C579.663 74.5327 569.91 75.6199 560.72 78.7292C551.53 81.8385 543.12 86.8964 536.065 93.5569C527.142 101.986 520.718 112.633 514.312 123.25C506.955 135.445 499.621 147.601 488.548 156.315C476.353 165.817 460.919 170.159 445.558 168.409C440.385 167.797 435.3 166.494 430.225 165.193C423.051 163.354 415.894 161.519 408.53 161.65C392.885 161.916 378.443 171.236 368.654 183.437C358.865 195.638 353.062 210.528 348.099 225.354C347.251 227.888 346.421 230.432 345.59 232.978C341.56 245.327 337.52 257.709 331.36 269.12C339.151 257.758 347.036 246.27 357.207 236.97C367.378 227.67 380.196 220.603 393.959 219.87C404.374 219.32 414.579 222.365 424.742 225.397C436.399 228.875 448.001 232.336 459.799 230.338C476.399 227.533 489.4 214.4 498.583 200.3C502.11 194.885 505.268 189.223 508.425 183.563C513.489 174.485 518.548 165.414 525.114 157.388C535.774 144.358 552.045 134.07 568.667 136.706L570.067 136.738C570.046 136.515 570.035 136.302 570.035 136.079C570.024 133.018 571.799 130.244 573.755 127.885C584.138 115.301 600.388 109.201 616.267 105.46C622.208 104.068 628.725 103.026 634.525 104.291ZM566.632 84.1543C586.12 78.2851 607.879 85.8407 623.923 98.9754C624.604 99.533 625.609 99.4329 626.166 98.7517C626.724 98.0705 626.624 97.0662 625.943 96.5086C609.395 82.9613 586.555 74.8248 565.713 81.1017C546.864 86.7778 533.306 102.799 522.484 118.567C520.651 121.238 518.854 123.932 517.062 126.62C508.184 139.934 499.415 153.085 486.878 162.361C478.68 168.328 469.251 172.384 459.281 174.232C449.309 176.079 439.05 175.67 429.257 173.035C428.407 172.806 427.532 173.31 427.304 174.16C427.075 175.01 427.578 175.884 428.429 176.113C438.681 178.872 449.422 179.301 459.862 177.366C470.301 175.432 480.176 171.184 488.759 164.935L488.769 164.927C501.799 155.289 510.933 141.578 519.808 128.255L519.808 128.254C521.577 125.599 523.335 122.96 525.112 120.371C535.897 104.657 548.92 89.4881 566.632 84.1543L566.173 82.6285L566.632 84.1543Z" fill="#171717"/>
<path d="M797.378 860.426L797.178 860.48C768.778 873.88 734.899 873.297 706.331 860.256L706.224 860.331C701.813 853.212 698.885 845.277 697.614 837C696.852 832.225 696.43 827.403 696.349 822.568L696.764 822.557C713.428 830.113 727.617 830.337 744.122 821.802L744.398 821.664C749.723 832.25 758.14 841.156 769.214 844.929C775.314 847.001 781.925 847.458 787.781 850.115C792.181 852.105 796.188 855.963 797.378 860.426Z" fill="url(#paint0_linear_46_7747)"/>
<path d="M767.321 220.582C767.473 222.99 767.271 225.407 766.721 227.756C765.983 230.728 764.743 233.553 763.055 236.109L761.577 235.472C746.2 227.718 733.656 215.316 725.729 200.027L724.571 199.156C727.61 195.096 730.438 190.856 733.148 186.604L733.902 187.093C734.072 187.508 734.242 187.922 734.423 188.337C740.814 202.82 752.454 214.345 766.999 220.593L767.321 220.582Z" fill="url(#paint1_linear_46_7747)"/>
<path d="M767.321 220.582L767.003 220.593C757.711 216.618 749.525 210.44 743.154 202.593L745.045 202.029C747.245 198.044 749.438 194.051 751.624 190.052L752.464 190.509C757.325 195.987 761.331 202.168 764.346 208.842C766.018 212.551 767.025 216.525 767.321 220.582Z" fill="#171717"/>
<path d="M683.107 285.264C686.625 300.131 690.139 315.003 693.65 329.88L692.279 330.209C648.464 327.885 604.768 336.616 565.211 355.6L564.244 355.218C572.482 333.887 579.094 311.963 584.022 289.633L582.949 289.378C556.37 309.068 533.955 333.829 517 362.231L515.342 361.231C502.936 348.46 487.556 338.966 470.58 333.6L468.55 333.377C497.661 285.783 541.821 249.264 594.034 229.605L594.066 229.679C595.926 240.734 600.272 251.222 606.777 260.352C611.368 266.771 618 272.893 625.886 272.627C631.986 272.436 637.502 268.206 640.308 262.785C643.114 257.364 643.496 250.957 642.54 244.931C641.584 238.905 639.351 233.165 637.14 227.479L637.267 226.704C646.457 228.36 655.765 229.274 665.102 229.435C677.632 229.446 690.396 227.193 701.29 221.007C710.643 215.693 718.09 207.839 724.576 199.156L725.734 200.028C733.661 215.317 746.204 227.718 761.582 235.472L763.06 236.109C760.116 240.383 756.677 244.293 752.814 247.758C742.941 257.185 732.514 266.165 720.739 273.073C709.262 279.822 696.392 284.562 683.107 285.264Z" fill="url(#paint2_linear_46_7747)"/>
<path d="M693.649 329.88C695.041 335.736 696.426 341.592 697.804 347.448C694.924 347.363 692.022 347.32 689.142 347.32C646.745 347.302 604.755 355.588 565.542 371.711C562.407 372.997 559.282 374.336 556.19 375.729L555.818 375.569C558.818 368.769 561.628 361.985 564.246 355.217L565.213 355.599C604.771 336.616 648.466 327.885 692.281 330.209L693.649 329.88Z" fill="url(#paint3_linear_46_7747)"/>
<path d="M651.829 128.661C651.807 128.555 651.775 128.448 651.744 128.342L652.084 128.257C655.991 127.99 659.858 129.174 662.947 131.582C666.035 133.989 668.127 137.451 668.822 141.304C669.516 145.158 668.765 149.133 666.713 152.467C664.66 155.801 661.449 158.261 657.695 159.376H657.631C657.61 158.976 657.589 158.568 657.557 158.164C656.781 148.163 654.316 138.385 651.829 128.661Z" fill="#171717"/>
<path d="M651.68 128.076C651.712 128.268 651.754 128.459 651.786 128.65C639.209 122.993 624.951 122.34 611.91 126.822C606.932 128.575 602.24 131.054 597.987 134.177C590.965 139.31 585.283 146.057 581.418 153.849L580.749 153.955C579.949 150.501 577.284 147.802 574.808 145.081L577.592 144.135C578.241 138.609 579.665 132.035 584.883 130.096C587.883 128.98 591.366 129.819 594.289 128.512C599.454 126.184 600.57 118.277 606.001 116.641C611.301 115.046 616.693 120.711 622.06 119.361C624.706 118.692 626.619 116.471 628.893 114.951C634.962 110.933 644.155 112.836 648.119 118.936L649.15 118.586C650.215 121.686 651.061 124.857 651.68 128.076Z" fill="url(#paint4_linear_46_7747)"/>
<path d="M649.149 118.586L648.119 118.936C644.154 112.836 634.961 110.936 628.893 114.951C626.618 116.471 624.705 118.692 622.059 119.361C616.692 120.711 611.303 115.046 606 116.641C600.569 118.277 599.453 126.184 594.288 128.512C591.365 129.819 587.879 128.98 584.882 130.096C579.664 132.03 578.24 138.609 577.592 144.135L574.807 145.081C572.49 142.53 570.343 139.958 570.067 136.738C570.046 136.515 570.035 136.302 570.035 136.079C570.024 133.018 571.799 130.244 573.755 127.885C584.138 115.301 600.388 109.201 616.267 105.46C622.208 104.068 628.722 103.026 634.525 104.291C636.914 104.794 639.179 105.766 641.189 107.15C645.121 109.892 647.513 114.016 649.149 118.586Z" fill="url(#paint5_linear_46_7747)"/>
<path d="M642.539 244.93C643.495 250.957 643.113 257.365 640.307 262.785C637.501 268.205 631.985 272.436 625.885 272.627C617.999 272.893 611.367 266.771 606.776 260.352C600.271 251.222 595.925 240.734 594.065 229.679L594.033 229.605C597.753 228.213 601.508 226.92 605.298 225.726L605.734 225.705C606.134 235.854 607.552 245.905 613.134 254.198C614.97 257.198 617.64 259.599 620.818 261.106C624.039 262.467 628.056 262.286 630.702 260.012C633.667 257.461 634.252 253.103 634.039 249.203C633.586 241.282 630.74 233.685 625.877 227.416L625.177 227.405C625.549 226.565 625.931 225.747 626.356 224.929L627.823 225.078C630.969 225.63 634.123 226.178 637.271 226.704L637.144 227.479C639.35 233.165 641.572 238.9 642.539 244.93Z" fill="url(#paint6_linear_46_7747)"/>
<path d="M633.921 864.274C634.229 870.332 634.027 876.698 631.147 882.033C628.309 887.273 619.424 891.896 613.568 890.533C614.471 890.626 615.382 890.472 616.204 890.087C618.744 888.897 619.764 885.878 620.404 883.147C624.929 863.543 623.193 843.013 615.441 824.447C614.477 821.786 613 819.339 611.094 817.247C609.094 815.27 606.184 813.995 603.431 814.611C602.931 814.725 602.446 814.896 601.986 815.121L601.922 814.983C606.736 810.541 613.549 811.454 617.981 814.675C622.413 817.896 624.857 823.175 626.738 828.332C630.916 839.886 633.337 852.002 633.921 864.274Z" fill="url(#paint7_linear_46_7747)"/>
<path d="M595.329 848.7L595.229 848.445C592.536 839.768 592.957 830.424 596.419 822.024C597.578 819.239 599.342 816.391 601.978 815.124C602.439 814.899 602.924 814.728 603.423 814.614C606.176 813.998 609.088 815.273 611.086 817.25C612.993 819.342 614.47 821.789 615.433 824.45C623.185 843.016 624.921 863.546 620.396 883.15C619.758 885.881 618.738 888.9 616.196 890.09C615.375 890.476 614.463 890.63 613.56 890.536C610.807 890.292 608.097 888.007 606.322 885.636C601.646 879.347 599.147 871.706 599.202 863.87L599.308 862.956C595.757 862.765 592.198 863.164 588.776 864.136C580.437 866.117 572.429 869.295 565.001 873.573L564.129 873.605C563.97 869.514 563.694 865.411 563.417 861.33C563.375 860.671 563.322 860.012 563.279 859.353L563.679 859.321C574.425 856.393 584.993 852.847 595.329 848.7Z" fill="url(#paint8_linear_46_7747)"/>
<path d="M597.987 134.177C601.442 138.449 602.77 144.156 602.536 149.64C602.302 155.124 600.623 160.449 598.593 165.55C597.285 168.9 595.707 172.138 593.874 175.232C590.707 180.451 586.616 184.968 581.142 187.508C575.722 190.027 569.292 190.43 564.509 194.023C559.854 197.523 557.709 203.323 554.572 208.232C546.102 221.475 528.757 228.351 513.517 224.504C518.667 222.573 523.34 219.553 527.216 215.649C531.092 211.746 534.079 207.051 535.973 201.887C538.386 195.192 539.013 187.582 543.509 182.056C546.899 177.879 552.022 175.541 557.091 173.766C562.16 171.991 567.453 170.566 571.991 167.697C576.529 164.828 580.323 160.066 580.333 154.689L580.748 153.955L581.417 153.849C585.282 146.057 590.965 139.31 597.987 134.177Z" fill="#171717"/>
<path d="M564.138 873.605C564.516 880.663 564.228 887.741 563.277 894.744C562.377 900.759 560.694 906.796 557.166 911.744C553.638 916.692 548.036 920.437 541.957 920.544V920.522C543.746 920.337 545.401 919.492 546.601 918.152C550.13 914.624 563.224 847.243 541.628 836.285C538.822 834.861 535.474 835.456 532.721 837.125L532.711 837.114C538.343 832.991 545.305 831.152 550.353 833.214C555.401 835.276 558.962 840.069 560.811 845.202C562.448 849.73 562.937 854.544 563.277 859.348H563.287C563.33 860.007 563.387 860.666 563.425 861.325C563.7 865.411 563.978 869.513 564.138 873.605Z" fill="url(#paint9_linear_46_7747)"/>
<path d="M541.627 836.29C563.222 847.248 550.127 914.629 546.6 918.157C545.401 919.497 543.745 920.342 541.956 920.527C537.684 920.836 533.826 916.308 531.838 912.28C522.783 893.851 520.891 872.33 524.696 852.147C525.525 847.737 526.705 843.199 529.596 839.776C530.488 838.731 531.543 837.838 532.72 837.13C535.473 835.461 538.821 834.866 541.627 836.29Z" fill="url(#paint10_linear_46_7747)"/>
<path d="M515.344 361.232L517.002 362.232C514.122 367.047 511.418 371.953 508.892 376.952H508.882L508.499 376.752C508.18 377.071 507.851 377.39 507.521 377.708C500.274 371.057 492.479 365.028 484.221 359.683C477.202 355.161 469.843 351.188 462.211 347.801C461.785 347.61 461.371 347.419 460.946 347.238L461.137 346.494C463.465 342.041 465.935 337.67 468.545 333.379L470.575 333.602C487.554 338.966 502.937 348.46 515.344 361.232Z" fill="url(#paint11_linear_46_7747)"/>
<path d="M508.499 376.749L508.882 376.949C508.52 377.649 508.17 378.349 507.819 379.049L506.884 379.772L486.351 376.743C482.875 376.222 479.23 375.643 476.435 373.512L476.035 373.289C478.267 369.156 480.676 365.121 483.262 361.184L484.229 359.674C492.487 365.019 500.281 371.048 507.529 377.699C507.851 377.387 508.18 377.068 508.499 376.749Z" fill="#171717"/>
<path d="M470.622 495.484C471.536 497.45 471.228 499.684 470.686 501.818C470.548 502.35 470.386 502.881 470.24 503.391C470.016 504.157 469.772 504.943 469.474 505.698C468.949 507.451 467.853 508.977 466.36 510.034C464.139 511.415 461.291 511.022 458.719 510.534C452.179 509.281 445.714 507.664 439.355 505.688L437.888 505.788C437.664 503.292 437.761 500.778 438.175 498.306C438.95 493.454 441.199 488.957 444.616 485.425L444.786 485.595C449.386 486.87 453.991 488.142 458.602 489.41C459.952 489.782 461.291 490.154 462.641 490.526C465.765 491.382 469.251 492.551 470.622 495.484Z" fill="url(#paint12_linear_46_7747)"/>
<path d="M412.582 478.735C410.921 481.98 409.493 485.34 408.31 488.789C407.207 492.069 406.472 495.463 406.12 498.906L404.526 498.726C401.274 498.598 397.618 498.269 395.577 495.726C393.282 492.867 394.228 488.679 395.277 485.161C396.042 482.611 396.913 479.911 398.965 478.243C399.932 477.534 401.031 477.025 402.197 476.746C403.363 476.466 404.573 476.423 405.756 476.617C408.118 477.009 410.414 477.722 412.582 478.735Z" fill="url(#paint13_linear_46_7747)"/>
<path d="M406.589 692.324L406.833 692.834C397.024 696.416 388.213 702.346 382.92 711.2C377.468 720.34 376.42 731.446 372.133 741.192C367.914 750.82 358.051 759.769 347.955 757.102L348.39 755.39C338.134 721.424 348.784 682.058 374.748 657.89L374.705 657.667C382.705 656.147 391.55 657.018 400.265 658.23L400.106 659.33C398.19 661.862 396.83 664.769 396.115 667.863C395.401 670.956 395.348 674.166 395.96 677.281C396.572 680.397 397.835 683.348 399.667 685.941C401.499 688.534 403.857 690.711 406.589 692.33V692.324Z" fill="url(#paint14_linear_46_7747)"/>
<path d="M624.387 154.274C622.819 153.351 621.005 152.933 619.191 153.076C617.378 153.219 615.652 153.917 614.248 155.074" stroke="#171717" stroke-width="3.188" stroke-linecap="round" stroke-linejoin="round"/>
<path d="M648.399 152.425C648.08 151.783 647.596 151.236 646.997 150.842C646.397 150.448 645.704 150.22 644.987 150.182C644.269 150.158 643.557 150.329 642.927 150.675C642.297 151.021 641.772 151.53 641.406 152.149" stroke="#171717" stroke-width="3.188" stroke-linecap="round" stroke-linejoin="round"/>
<path d="M638.257 143.954C638.954 142.95 639.845 142.096 640.877 141.442C641.909 140.788 643.062 140.347 644.267 140.144C645.472 139.942 646.706 139.984 647.895 140.266C649.084 140.547 650.205 141.064 651.191 141.786" stroke="#171717" stroke-width="3.188" stroke-linecap="round" stroke-linejoin="round"/>
<path d="M625.279 142.849C623.06 141.182 620.314 140.369 617.545 140.56C614.775 140.752 612.167 141.934 610.198 143.891" stroke="#171717" stroke-width="3.188" stroke-linecap="round" stroke-linejoin="round"/>
<path d="M630.668 172.671C631.632 173.159 632.683 173.448 633.761 173.521C634.301 173.549 634.837 173.414 635.299 173.133C635.761 172.853 636.129 172.44 636.354 171.948C636.534 171.258 636.523 170.532 636.322 169.848C635.515 165.682 634.704 161.519 633.889 157.36" stroke="#171717" stroke-width="3.188" stroke-linecap="round" stroke-linejoin="round"/>
<path d="M624.908 187.9C624.437 188.483 623.819 188.931 623.118 189.198C622.417 189.465 621.658 189.541 620.919 189.419C620.179 189.297 619.484 188.982 618.906 188.504C618.328 188.026 617.887 187.404 617.628 186.7" stroke="#171717" stroke-width="3.188" stroke-linecap="round" stroke-linejoin="round"/>
<path d="M581.418 153.849C585.283 146.057 590.966 139.31 597.987 134.177C602.241 131.054 606.932 128.575 611.91 126.822C624.951 122.34 639.21 122.993 651.786 128.65C651.807 128.65 651.818 128.65 651.829 128.661L652.594 129.012" stroke="#171717" stroke-width="3.188" stroke-linecap="round" stroke-linejoin="round"/>
<path d="M580.748 153.955C579.948 150.501 577.283 147.802 574.807 145.081C572.49 142.53 570.343 139.958 570.067 136.738C570.046 136.515 570.035 136.302 570.035 136.079C570.024 133.018 571.799 130.244 573.755 127.885C584.138 115.301 600.388 109.201 616.266 105.46C622.207 104.068 628.722 103.026 634.525 104.291C636.914 104.794 639.179 105.766 641.189 107.15C645.121 109.892 647.513 114.015 649.149 118.585C650.215 121.685 651.06 124.857 651.679 128.076C651.711 128.268 651.753 128.459 651.785 128.65C651.817 128.841 651.87 129.012 651.902 129.192" stroke="#171717" stroke-width="3.188" stroke-linecap="round" stroke-linejoin="round"/>
<path d="M652.084 128.257C655.991 127.99 659.858 129.174 662.947 131.582C666.035 133.989 668.127 137.451 668.821 141.304C669.516 145.158 668.765 149.133 666.712 152.467C664.659 155.801 661.449 158.261 657.695 159.376" stroke="#171717" stroke-width="3.188" stroke-linecap="round" stroke-linejoin="round"/>
<path d="M651.68 128.076C651.701 128.161 651.722 128.257 651.744 128.342C651.776 128.448 651.807 128.555 651.829 128.661C654.316 138.385 656.781 148.161 657.557 158.161C657.589 158.561 657.61 158.969 657.632 159.373C658.248 169.193 657.1 179.279 652.86 188.153C648.183 197.963 640.106 205.647 633.368 214.181C630.685 217.525 628.336 221.124 626.354 224.926C625.928 225.744 625.546 226.562 625.174 227.402C622.744 232.561 621.809 238.297 622.474 243.96" stroke="#171717" stroke-width="3.188" stroke-linecap="round" stroke-linejoin="round"/>
<path d="M597.987 134.177C601.442 138.449 602.77 144.156 602.536 149.64C602.302 155.124 600.623 160.449 598.593 165.55C597.285 168.9 595.707 172.138 593.874 175.232C590.707 180.451 586.616 184.968 581.142 187.508C575.722 190.027 569.292 190.43 564.509 194.023C559.854 197.523 557.709 203.323 554.572 208.232C546.102 221.475 528.757 228.351 513.517 224.504C518.667 222.573 523.34 219.553 527.216 215.649C531.092 211.746 534.079 207.051 535.973 201.887C538.386 195.192 539.013 187.582 543.509 182.056C546.899 177.879 552.022 175.541 557.091 173.766C562.16 171.991 567.453 170.566 571.991 167.697C576.529 164.828 580.323 160.066 580.333 154.689" stroke="#171717" stroke-width="3.188" stroke-linecap="round" stroke-linejoin="round"/>
<path d="M594.447 175.562C604.076 185.403 605.394 200.484 605.532 214.262C605.564 218.035 605.575 221.882 605.732 225.709C606.132 235.858 607.55 245.909 613.132 254.202C614.968 257.202 617.638 259.603 620.816 261.11C624.037 262.471 628.054 262.29 630.7 260.016C633.665 257.465 634.25 253.107 634.037 249.207C633.585 241.286 630.738 233.689 625.875 227.42" stroke="#171717" stroke-width="3.188" stroke-linecap="round" stroke-linejoin="round"/>
<path d="M648.119 118.936C644.155 112.836 634.962 110.936 628.893 114.951C626.619 116.471 624.706 118.692 622.06 119.361C616.693 120.711 611.304 115.046 606.001 116.641C600.57 118.277 599.454 126.184 594.289 128.512C591.366 129.819 587.88 128.98 584.883 130.096C579.665 132.03 578.241 138.609 577.592 144.135" stroke="#171717" stroke-width="3.188" stroke-linecap="round" stroke-linejoin="round"/>
<path d="M637.682 104.185C632.159 96.2091 624.977 89.5204 616.63 84.5769C608.282 79.6333 598.965 76.5514 589.315 75.5422C579.666 74.533 569.913 75.6202 560.723 78.7294C551.533 81.8387 543.123 86.8966 536.068 93.5571C516.895 111.667 509.268 140.011 488.551 156.315C476.356 165.817 460.922 170.159 445.561 168.409C433.073 166.932 421.106 161.427 408.533 161.65C392.888 161.916 378.445 171.236 368.657 183.437C358.869 195.638 353.076 210.517 348.102 225.354C343.128 240.191 338.792 255.354 331.363 269.12C339.154 257.758 347.04 246.27 357.21 236.97C367.38 227.67 380.199 220.603 393.962 219.87C416.323 218.69 437.717 234.079 459.802 230.338C476.402 227.533 489.39 214.407 498.583 200.304C507.776 186.201 514.451 170.418 525.111 157.388C535.771 144.358 552.042 134.07 568.664 136.706" stroke="#171717" stroke-width="3.188" stroke-linecap="round" stroke-linejoin="round"/>
<path d="M605.3 225.726C601.516 226.926 597.76 228.219 594.034 229.605C541.821 249.263 497.661 285.782 468.55 333.376C465.946 337.67 463.476 342.042 461.142 346.491" stroke="#171717" stroke-width="3.188" stroke-linecap="round" stroke-linejoin="round"/>
<path d="M460.95 347.235C461.375 347.416 461.789 347.607 462.215 347.798C469.847 351.185 477.206 355.158 484.225 359.68C492.484 365.024 500.278 371.054 507.525 377.705C507.855 377.387 508.184 377.068 508.503 376.749" stroke="#171717" stroke-width="3.188" stroke-linecap="round" stroke-linejoin="round"/>
<path d="M507.819 379.055C508.17 378.355 508.519 377.655 508.882 376.955H508.892C511.412 371.96 514.115 367.053 517.002 362.235C533.957 333.833 556.37 309.072 582.948 289.381" stroke="#171717" stroke-width="3.188" stroke-linecap="round" stroke-linejoin="round"/>
<path d="M584.022 289.632C579.094 311.962 572.483 333.886 564.244 355.217C561.619 361.997 558.81 368.781 555.816 375.569C555.752 375.707 555.688 375.856 555.625 375.994" stroke="#171717" stroke-width="3.188" stroke-linecap="round" stroke-linejoin="round"/>
<path d="M556.188 375.729C559.28 374.336 562.397 372.997 565.539 371.711C604.752 355.588 646.742 347.302 689.14 347.32C692.02 347.32 694.922 347.363 697.802 347.448C696.42 341.592 695.034 335.736 693.646 329.88C690.138 315 686.624 300.128 683.104 285.263L682.976 284.721" stroke="#171717" stroke-width="3.188" stroke-linecap="round" stroke-linejoin="round"/>
<path d="M682.1 285.317C682.44 285.306 682.78 285.285 683.11 285.264C696.395 284.564 709.265 279.822 720.743 273.073C732.519 266.165 742.943 257.184 752.818 247.758C756.681 244.293 760.12 240.383 763.064 236.109C764.752 233.553 765.991 230.728 766.73 227.756C767.279 225.407 767.482 222.99 767.33 220.582C767.034 216.523 766.027 212.548 764.355 208.838C761.339 202.164 757.334 195.983 752.473 190.505" stroke="#171717" stroke-width="3.188" stroke-linecap="round" stroke-linejoin="round"/>
<path d="M733.907 187.093C734.077 187.508 734.247 187.922 734.428 188.337C740.818 202.819 752.455 214.344 766.999 220.593" stroke="#171717" stroke-width="3.188" stroke-linecap="round" stroke-linejoin="round"/>
<path d="M733.62 185.871C733.461 186.115 733.312 186.36 733.153 186.604C730.443 190.856 727.615 195.096 724.576 199.156C718.093 207.839 710.643 215.693 701.29 221.007C690.396 227.192 677.632 229.446 665.102 229.435C655.766 229.274 646.457 228.36 637.267 226.704C634.121 226.183 630.967 225.63 627.819 225.077" stroke="#171717" stroke-width="3.188" stroke-linecap="round" stroke-linejoin="round"/>
<path d="M735.045 188.082C748.064 162.417 756.737 134.771 760.712 106.268C761.212 102.686 761.612 98.9031 760.244 95.5551C758.055 90.2301 752.199 87.6261 747.034 85.0861C741.869 82.5461 736.31 78.7091 735.906 72.9701C745.273 75.2873 754.216 79.0671 762.406 84.1701" stroke="#171717" stroke-width="3.188" stroke-linecap="round" stroke-linejoin="round"/>
<path d="M762.614 84.1301C760.78 72.6392 760.866 60.9237 762.869 49.4611C763.135 47.8991 763.752 46.0391 765.303 45.7611C765.828 45.7162 766.355 45.8274 766.818 46.0807C767.28 46.334 767.658 46.7182 767.903 47.1851C768.374 48.1256 768.649 49.1526 768.711 50.2031C769.795 59.4748 769.859 68.8374 768.902 78.1231" stroke="#171717" stroke-width="3.188" stroke-linecap="round" stroke-linejoin="round"/>
<path d="M768.842 79.294C768.885 78.911 768.942 78.518 768.98 78.136C770.373 66.541 771.88 54.85 775.889 43.882C776.346 42.628 776.973 41.257 778.216 40.81C779.64 40.3 781.245 41.331 781.904 42.681C782.461 44.095 782.651 45.6268 782.457 47.134C781.955 57.013 780.564 66.8267 778.3 76.456C778.215 76.871 778.109 77.275 778.013 77.689" stroke="#171717" stroke-width="3.188" stroke-linecap="round" stroke-linejoin="round"/>
<path d="M777.759 78.433C777.94 77.7737 778.121 77.1147 778.301 76.456C780.948 66.902 783.598 57.344 786.251 47.782C786.814 45.742 787.431 43.605 788.908 42.082C790.385 40.559 793.021 39.935 794.636 41.306C796.305 42.73 796.071 45.323 795.699 47.491L789.864 80.969C787.229 96.082 784.593 111.227 780.204 125.925C773.497 148.393 762.859 169.404 751.625 190.044C749.446 194.051 747.253 198.044 745.046 202.022" stroke="#171717" stroke-width="3.188" stroke-linecap="round" stroke-linejoin="round"/>
<path d="M461.95 348.383C442.182 382.307 441.14 424.33 423.222 459.264C419.853 465.832 415.888 472.145 412.583 478.735C410.921 481.98 409.494 485.34 408.311 488.789C407.207 492.069 406.472 495.463 406.121 498.906C405.356 506.601 406.706 514.391 411.34 520.439C412.987 522.586 416.069 524.539 418.184 522.851C419.449 521.831 419.584 520.056 419.47 518.377C419.459 518.1 419.427 517.824 419.406 517.558C418.473 508.301 417.539 499.041 416.606 489.777" stroke="#171717" stroke-width="3.188" stroke-linecap="round" stroke-linejoin="round"/>
<path d="M419.938 518.345C420.67 521.151 422.063 523.351 424.763 524.392C425.268 524.634 425.819 524.766 426.379 524.781C426.94 524.795 427.497 524.692 428.015 524.477C429.386 523.765 429.705 522.139 429.62 520.513C429.595 519.95 429.53 519.389 429.428 518.834C428.461 513.616 427.175 508.44 426.782 503.147C426.389 497.854 426.995 492.338 429.582 487.705" stroke="#171717" stroke-width="3.188" stroke-linecap="round" stroke-linejoin="round"/>
<path d="M429.875 520.5C430.769 522.163 432.094 523.554 433.711 524.528C435.656 525.728 438.441 525.899 440.056 524.295C442.299 522.052 441.066 518.322 440.003 515.335C438.888 512.255 438.177 509.044 437.888 505.781C437.665 503.285 437.761 500.771 438.175 498.299C438.951 493.447 441.199 488.95 444.616 485.418C445.239 484.773 445.91 484.176 446.624 483.632" stroke="#171717" stroke-width="3.188" stroke-linecap="round" stroke-linejoin="round"/>
<path d="M439.354 505.687C445.714 507.663 452.178 509.281 458.718 510.533C461.29 511.022 464.138 511.416 466.359 510.033C467.853 508.976 468.949 507.45 469.473 505.697C469.773 504.942 470.015 504.156 470.239 503.39C470.387 502.88 470.547 502.349 470.685 501.818C471.227 499.681 471.535 497.449 470.621 495.483C469.25 492.55 465.764 491.383 462.64 490.52C461.29 490.148 459.951 489.776 458.601 489.404C454.001 488.129 449.396 486.858 444.785 485.589" stroke="#171717" stroke-width="3.188" stroke-linecap="round" stroke-linejoin="round"/>
<path d="M458.687 489.1C450.813 449.658 456.948 408.704 476.032 373.3C478.264 369.167 480.673 365.132 483.259 361.195" stroke="#171717" stroke-width="3.188" stroke-linecap="round" stroke-linejoin="round"/>
<path d="M476.436 373.518C479.236 375.654 482.876 376.228 486.352 376.749L506.885 379.778" stroke="#171717" stroke-width="3.188" stroke-linecap="round" stroke-linejoin="round"/>
<path d="M412.594 478.735H412.583C410.415 477.723 408.119 477.012 405.76 476.62C404.576 476.426 403.366 476.47 402.2 476.749C401.034 477.028 399.935 477.537 398.969 478.246C396.917 479.914 396.046 482.614 395.281 485.164C394.229 488.682 393.281 492.87 395.581 495.729C397.622 498.269 401.281 498.598 404.53 498.729" stroke="#171717" stroke-width="3.188" stroke-linecap="round" stroke-linejoin="round"/>
<path d="M305.794 560.75C311.926 559.245 318.207 558.425 324.52 558.306C341.865 558.006 358.795 563.259 375.236 568.817C391.677 574.375 408.247 580.327 425.56 581.507C442.873 582.687 461.397 578.414 473.609 566.086C485.821 553.758 481.101 519.472 470.197 505.974" stroke="#171717" stroke-width="3.188" stroke-linecap="round" stroke-linejoin="round"/>
<path d="M305.794 560.75C296.6 558.71 287.3 557.177 277.938 556.159C245.246 552.694 210.96 556.786 182.361 573.026C153.762 589.266 131.761 618.811 129.593 651.619C128.86 662.779 132.112 676.34 142.761 679.783C150.615 682.323 158.969 678.072 165.781 673.417C193.424 654.531 213.968 627.217 237.681 603.592C256.862 584.461 279.946 567.021 305.794 560.75Z" stroke="#171717" stroke-width="3.188" stroke-linecap="round" stroke-linejoin="round"/>
<path d="M471.515 502.031C492.803 513.679 506.407 539.271 499.286 562.461C492.218 585.471 466.573 598.543 442.511 599.043C418.449 599.543 395.411 590.317 372.898 581.815C350.962 573.536 328.654 565.777 305.798 560.75" stroke="#171717" stroke-width="3.188" stroke-linecap="round" stroke-linejoin="round"/>
<path d="M565.593 371.839C558.419 391.585 560.321 413.49 564.721 434.033C569.121 454.576 575.912 474.675 578.346 495.548C583.533 540.185 567.219 586.848 535.26 618.46C513.25 640.226 484.129 654.499 453.585 659.325C439.778 661.532 425.723 661.729 411.859 659.909C408.076 659.399 404.186 658.783 400.259 658.23C391.544 657.018 382.702 656.147 374.699 657.667C369.552 658.554 364.723 660.759 360.681 664.067C354.559 669.157 351.094 676.703 348.181 684.122C343.384 696.299 339.533 708.827 336.661 721.596C335.151 728.259 333.919 735.189 335.247 741.896C336.575 748.603 341.008 755.085 347.565 757.009C347.69 757.052 347.818 757.085 347.948 757.109C358.048 759.776 367.907 750.827 372.126 741.199C376.409 731.453 377.461 720.347 382.913 711.207C388.206 702.353 397.013 696.423 406.826 692.841C411.286 691.236 415.892 690.072 420.579 689.366C433.003 687.466 445.64 688.08 458.212 687.719C460.646 687.655 463.08 687.559 465.503 687.389C525.987 683.266 579.297 639.589 605.569 584.947C630.661 532.742 633.712 472.227 624.401 414.921C623.976 412.264 623.519 409.596 623.03 406.95" stroke="#171717" stroke-width="3.188" stroke-linecap="round" stroke-linejoin="round"/>
<path d="M458.389 687.9C458.336 687.836 458.273 687.773 458.219 687.709C455.078 684.064 453.005 679.623 452.227 674.875C451.449 670.127 451.996 665.256 453.809 660.799" stroke="#171717" stroke-width="3.188" stroke-linecap="round" stroke-linejoin="round"/>
<path d="M406.588 692.324C403.857 690.705 401.498 688.528 399.667 685.935C397.835 683.342 396.572 680.391 395.96 677.275C395.348 674.16 395.401 670.95 396.115 667.857C396.83 664.763 398.189 661.856 400.105 659.324" stroke="#171717" stroke-width="3.188" stroke-linecap="round" stroke-linejoin="round"/>
<path d="M374.748 657.89C348.784 682.058 338.134 721.424 348.39 755.39" stroke="#171717" stroke-width="3.188" stroke-linecap="round" stroke-linejoin="round"/>
<path d="M689.143 347.788C731.488 480.412 748.177 619.889 738.318 758.76C738.275 759.419 738.218 760.077 738.169 760.747C737.021 776.572 735.757 792.641 739.435 808.041C740.561 812.758 742.226 817.33 744.398 821.666C749.723 832.252 758.14 841.158 769.214 844.931C775.314 847.003 781.925 847.46 787.781 850.117C792.181 852.105 796.187 855.963 797.38 860.426C797.801 861.94 797.856 863.532 797.541 865.071C795.978 872.51 787.04 875.359 779.578 876.836C758.259 881.036 734.039 884.636 716.62 871.65C712.498 868.537 708.976 864.702 706.224 860.331C701.814 853.213 698.885 845.277 697.614 837C696.852 832.225 696.429 827.403 696.349 822.568C696.158 813.927 696.785 805.234 697.284 796.593C697.804 787.368 698.171 778.139 698.383 768.907C700.966 646.824 675.705 525.756 624.52 414.891" stroke="#171717" stroke-width="3.188" stroke-linecap="round" stroke-linejoin="round"/>
<path d="M706.328 860.256C734.896 873.297 768.778 873.881 797.175 860.48" stroke="#171717" stroke-width="3.188" stroke-linecap="round" stroke-linejoin="round"/>
<path d="M696.764 822.559C713.428 830.116 727.617 830.339 744.122 821.804" stroke="#171717" stroke-width="3.188" stroke-linecap="round" stroke-linejoin="round"/>
<path d="M698.634 768.92C711.734 775.754 728.19 771.874 737.883 760.726" stroke="#171717" stroke-width="3.188" stroke-linecap="round" stroke-linejoin="round"/>
<path d="M541.956 920.527C543.745 920.342 545.401 919.497 546.6 918.157C550.129 914.629 563.222 847.248 541.627 836.29C538.821 834.866 535.473 835.461 532.72 837.13C531.543 837.838 530.488 838.731 529.596 839.776C526.705 843.198 525.525 847.737 524.696 852.147C520.891 872.33 522.783 893.847 531.838 912.28C533.826 916.308 537.684 920.836 541.956 920.527Z" stroke="#171717" stroke-width="3.188" stroke-linecap="round" stroke-linejoin="round"/>
<path d="M541.957 920.549C548.036 920.442 553.648 916.701 557.166 911.749C560.684 906.797 562.373 900.759 563.277 894.749C564.228 887.746 564.516 880.668 564.137 873.61C563.978 869.518 563.702 865.416 563.425 861.335C563.383 860.676 563.33 860.017 563.287 859.358H563.277C562.936 854.558 562.448 849.74 560.811 845.212C558.962 840.079 555.411 835.296 550.353 833.224C545.295 831.152 538.343 833.001 532.711 837.124" stroke="#171717" stroke-width="3.188" stroke-linecap="round" stroke-linejoin="round"/>
<path d="M565.009 873.573C572.436 869.295 580.445 866.117 588.784 864.136C592.205 863.164 595.764 862.765 599.316 862.956C599.805 863.009 600.283 863.073 600.772 863.156C604.747 863.868 608.626 866.238 610.188 869.956" stroke="#171717" stroke-width="3.188" stroke-linecap="round" stroke-linejoin="round"/>
<path d="M563.69 859.321C574.432 856.392 584.996 852.846 595.329 848.7C595.51 848.625 595.701 848.551 595.893 848.477C598.613 847.565 601.158 846.195 603.417 844.427C605.575 842.546 607.127 839.751 606.808 836.903" stroke="#171717" stroke-width="3.188" stroke-linecap="round" stroke-linejoin="round"/>
<path d="M599.21 863.87C599.155 871.706 601.654 879.347 606.33 885.636C608.105 888.006 610.815 890.291 613.568 890.536C614.471 890.629 615.382 890.475 616.204 890.09C618.744 888.9 619.764 885.881 620.404 883.15C624.929 863.546 623.193 843.016 615.441 824.45C614.477 821.789 613 819.342 611.094 817.25C609.094 815.273 606.184 813.998 603.431 814.614C602.931 814.728 602.446 814.899 601.986 815.124C599.35 816.389 597.586 819.237 596.427 822.024C592.965 830.424 592.544 839.768 595.237 848.445" stroke="#171717" stroke-width="3.188" stroke-linecap="round" stroke-linejoin="round"/>
<path d="M601.92 814.992C606.734 810.55 613.547 811.463 617.979 814.684C622.411 817.905 624.855 823.184 626.736 828.341C630.914 839.892 633.336 852.004 633.921 864.274C634.229 870.332 634.027 876.698 631.147 882.033C628.309 887.273 619.424 891.896 613.568 890.533C613.446 890.511 613.326 890.483 613.207 890.448" stroke="#171717" stroke-width="3.188" stroke-linecap="round" stroke-linejoin="round"/>
<path d="M515.345 361.232C502.939 348.46 487.558 338.966 470.58 333.6" stroke="#171717" stroke-width="3.188" stroke-linecap="round" stroke-linejoin="round"/>
<path d="M565.211 355.6C604.768 336.617 648.464 327.886 692.279 330.21" stroke="#171717" stroke-width="3.188" stroke-linecap="round" stroke-linejoin="round"/>
<path d="M761.582 235.472C746.205 227.718 733.661 215.316 725.734 200.027" stroke="#171717" stroke-width="3.188" stroke-linecap="round" stroke-linejoin="round"/>
<path d="M594.065 229.679C595.925 240.734 600.272 251.222 606.776 260.352C611.367 266.771 617.999 272.893 625.885 272.627C631.985 272.436 637.501 268.206 640.307 262.785C643.113 257.364 643.495 250.957 642.539 244.93C641.583 238.903 639.35 233.165 637.139 227.479" stroke="#171717" stroke-width="3.188" stroke-linecap="round" stroke-linejoin="round"/>
<path d="M388.048 702.338C382.997 698.335 379.636 692.579 378.63 686.213" stroke="#171717" stroke-width="3.188" stroke-linecap="round" stroke-linejoin="round"/>
<path d="M378.483 716.865C373.261 713.258 369.415 707.988 367.573 701.915" stroke="#171717" stroke-width="3.188" stroke-linecap="round" stroke-linejoin="round"/>
<path d="M372.44 736.55C369.433 735.005 366.805 732.813 364.746 730.132C362.687 727.45 361.248 724.345 360.532 721.041" stroke="#171717" stroke-width="3.188" stroke-linecap="round" stroke-linejoin="round"/>
<path d="M752.223 833.9C746.644 836.827 741.923 841.155 738.523 846.459" stroke="#171717" stroke-width="3.188" stroke-linecap="round" stroke-linejoin="round"/>
<path d="M763.551 842.289C758.578 845.075 754.799 849.586 752.927 854.969" stroke="#171717" stroke-width="3.188" stroke-linecap="round" stroke-linejoin="round"/>
<path d="M776.671 847.9C772.255 851.124 769.025 855.714 767.482 860.959" stroke="#171717" stroke-width="3.188" stroke-linecap="round" stroke-linejoin="round"/>
<path d="M801.507 93.6581C805.742 80.2501 807.609 66.2068 807.023 52.1581" stroke="#171717" stroke-width="3.188" stroke-linecap="round" stroke-linejoin="round"/>
<path d="M814.271 82.685C814.852 76.343 815.433 70 816.013 63.656" stroke="#171717" stroke-width="3.188" stroke-linecap="round" stroke-linejoin="round"/>
<path d="M655.953 97.5801L672.472 89.1071" stroke="#171717" stroke-width="3.188" stroke-linecap="round" stroke-linejoin="round"/>
<path d="M645.6 89.215C652.682 73.6717 659.763 58.1271 666.843 42.5811" stroke="#171717" stroke-width="3.188" stroke-linecap="round" stroke-linejoin="round"/>
<path d="M631.981 79.6651C631.51 72.9951 631.04 66.3247 630.57 59.6541" stroke="#171717" stroke-width="3.188" stroke-linecap="round" stroke-linejoin="round"/>
<path d="M710.52 165.184L704.654 153.115" stroke="#171717" stroke-width="3.188" stroke-linecap="round" stroke-linejoin="round"/>
<path d="M700.899 164.025C704.877 161.158 708.854 158.292 712.831 155.425" stroke="#171717" stroke-width="3.188" stroke-linecap="round" stroke-linejoin="round"/>
<path d="M515.478 54.144L507.357 41.718" stroke="#171717" stroke-width="3.188" stroke-linecap="round" stroke-linejoin="round"/>
<path d="M504.42 53.618L516.863 41.552" stroke="#171717" stroke-width="3.188" stroke-linecap="round" stroke-linejoin="round"/>
<path d="M745.516 319.737L734.51 308.237" stroke="#171717" stroke-width="3.188" stroke-linecap="round" stroke-linejoin="round"/>
<path d="M734.58 320.777L745.601 306.787" stroke="#171717" stroke-width="3.188" stroke-linecap="round" stroke-linejoin="round"/>
<path d="M511.929 252.738L502.787 242.359" stroke="#171717" stroke-width="3.188" stroke-linecap="round" stroke-linejoin="round"/>
<path d="M501 254.743C504 250.909 507 247.076 510 243.243" stroke="#171717" stroke-width="3.188" stroke-linecap="round" stroke-linejoin="round"/>
<path d="M464.972 141.151C461.367 138.021 458.27 134.351 455.789 130.272" stroke="#171717" stroke-width="3.188" stroke-linecap="round" stroke-linejoin="round"/>
<path d="M454.442 142.181C457.381 137.674 460.801 133.499 464.642 129.731C464.576 129.546 464.509 129.361 464.442 129.177" stroke="#171717" stroke-width="3.188" stroke-linecap="round" stroke-linejoin="round"/>
<path d="M850.437 126.241C848.437 122.649 846.434 119.056 844.428 115.463" stroke="#171717" stroke-width="3.188" stroke-linecap="round" stroke-linejoin="round"/>
<path d="M840.584 125.719L852.128 116.768" stroke="#171717" stroke-width="3.188" stroke-linecap="round" stroke-linejoin="round"/>
<path d="M500.033 702.313C532.344 693.245 561.732 675.908 585.296 652.013" stroke="#171717" stroke-width="3.188" stroke-miterlimit="10"/>
<path d="M113.417 681.554C109.307 673.362 107.504 664.205 108.202 655.066C108.9 645.927 112.072 637.151 117.378 629.677" stroke="#171717" stroke-width="3.188" stroke-miterlimit="10"/>
<path d="M330.03 682.47C332.073 665.479 345.662 650.495 362.372 646.806" stroke="#171717" stroke-width="3.188" stroke-miterlimit="10"/>
<path d="M415.582 431.536C418.453 414.414 424.414 397.957 433.173 382.967" stroke="#171717" stroke-width="3.188" stroke-miterlimit="10"/>
<path d="M814.634 238.438L825.875 240.032C825.97 240.045 826.058 240.088 826.129 240.153C826.199 240.218 826.247 240.304 826.267 240.397C826.288 240.491 826.279 240.589 826.242 240.677C826.205 240.766 826.142 240.841 826.061 240.892L816.483 246.992C816.405 247.042 816.343 247.113 816.306 247.198C816.268 247.283 816.257 247.377 816.273 247.468L818.229 258.652C818.246 258.747 818.233 258.844 818.193 258.931C818.152 259.018 818.086 259.091 818.003 259.139C817.92 259.187 817.824 259.209 817.729 259.201C817.633 259.193 817.542 259.156 817.468 259.095L808.711 251.87C808.639 251.811 808.552 251.775 808.459 251.765C808.367 251.756 808.274 251.774 808.192 251.817L798.161 257.134C798.076 257.179 797.98 257.197 797.885 257.185C797.79 257.174 797.7 257.133 797.629 257.069C797.558 257.005 797.507 256.921 797.485 256.828C797.463 256.735 797.47 256.637 797.505 256.548L801.67 245.986C801.704 245.9 801.712 245.805 801.692 245.715C801.672 245.624 801.626 245.541 801.559 245.477L793.402 237.577C793.333 237.51 793.287 237.424 793.268 237.33C793.25 237.236 793.261 237.138 793.3 237.051C793.338 236.963 793.403 236.889 793.484 236.839C793.566 236.789 793.661 236.765 793.757 236.771L805.089 237.471C805.181 237.477 805.274 237.455 805.354 237.408C805.434 237.362 805.498 237.292 805.539 237.209L810.529 227.009C810.571 226.923 810.639 226.852 810.723 226.806C810.807 226.76 810.903 226.74 810.998 226.75C811.093 226.76 811.183 226.798 811.256 226.861C811.329 226.923 811.381 227.006 811.405 227.099L814.244 238.091C814.268 238.181 814.317 238.262 814.387 238.323C814.456 238.385 814.542 238.425 814.634 238.438Z" fill="url(#paint15_linear_46_7747)"/>
<path d="M445.063 72.858L456.304 74.452C456.399 74.4655 456.488 74.5077 456.558 74.573C456.628 74.6383 456.677 74.7235 456.697 74.8172C456.717 74.9109 456.708 75.0086 456.671 75.0971C456.634 75.1855 456.571 75.2605 456.49 75.312L446.912 81.412C446.834 81.4619 446.773 81.5336 446.735 81.6183C446.698 81.703 446.687 81.7968 446.702 81.888L448.659 93.072C448.676 93.1666 448.663 93.264 448.623 93.3511C448.583 93.4382 448.516 93.5109 448.433 93.5592C448.35 93.6075 448.255 93.6292 448.159 93.6213C448.063 93.6134 447.972 93.5763 447.898 93.515L439.14 86.29C439.069 86.231 438.982 86.1945 438.889 86.185C438.797 86.1756 438.704 86.1937 438.622 86.237L428.59 91.55C428.506 91.5949 428.409 91.6127 428.314 91.6011C428.219 91.5896 428.13 91.5491 428.058 91.4853C427.987 91.4215 427.937 91.3373 427.915 91.2441C427.892 91.1509 427.899 91.0532 427.934 90.964L432.099 80.4C432.133 80.3138 432.141 80.2194 432.121 80.1289C432.102 80.0383 432.056 79.9555 431.989 79.891L423.832 72C423.763 71.9334 423.716 71.8471 423.697 71.7529C423.679 71.6586 423.69 71.5609 423.728 71.473C423.767 71.3851 423.832 71.3112 423.914 71.2613C423.996 71.2114 424.091 71.1879 424.187 71.194L435.518 71.894C435.611 71.8999 435.703 71.8781 435.784 71.8315C435.864 71.7849 435.929 71.7154 435.969 71.632L440.959 61.432C441.002 61.3461 441.069 61.2751 441.153 61.2287C441.237 61.1823 441.333 61.1627 441.428 61.1725C441.523 61.1823 441.613 61.2211 441.686 61.2835C441.759 61.346 441.81 61.4293 441.834 61.522L444.673 72.514C444.698 72.6032 444.747 72.6833 444.817 72.7444C444.886 72.8056 444.972 72.8451 445.063 72.858Z" fill="url(#paint16_linear_46_7747)"/>
<path d="M434.561 305.422L445.802 307.016C445.897 307.029 445.985 307.072 446.055 307.137C446.125 307.202 446.174 307.288 446.194 307.381C446.215 307.475 446.206 307.573 446.169 307.661C446.132 307.75 446.069 307.825 445.988 307.876L436.41 313.976C436.331 314.026 436.27 314.097 436.232 314.182C436.195 314.267 436.183 314.361 436.199 314.452L438.156 325.636C438.172 325.731 438.16 325.828 438.119 325.915C438.079 326.002 438.013 326.075 437.93 326.123C437.847 326.172 437.751 326.193 437.655 326.185C437.56 326.177 437.469 326.14 437.395 326.079L428.638 318.854C428.566 318.795 428.479 318.759 428.386 318.749C428.294 318.74 428.201 318.758 428.119 318.801L418.087 324.118C418.002 324.163 417.906 324.18 417.811 324.169C417.715 324.157 417.626 324.116 417.555 324.052C417.484 323.989 417.434 323.904 417.412 323.811C417.39 323.718 417.397 323.62 417.432 323.531L421.597 312.969C421.631 312.883 421.638 312.788 421.618 312.698C421.599 312.607 421.552 312.524 421.486 312.46L413.329 304.56C413.26 304.493 413.213 304.407 413.195 304.313C413.177 304.219 413.188 304.121 413.226 304.034C413.265 303.946 413.33 303.872 413.411 303.822C413.493 303.772 413.588 303.748 413.684 303.754L425.016 304.454C425.108 304.46 425.2 304.438 425.28 304.391C425.361 304.345 425.425 304.275 425.466 304.192L430.456 293.992C430.498 293.906 430.566 293.835 430.65 293.789C430.733 293.743 430.829 293.723 430.925 293.733C431.02 293.742 431.11 293.781 431.183 293.843C431.255 293.905 431.307 293.988 431.332 294.081L434.171 305.074C434.194 305.164 434.244 305.245 434.313 305.307C434.383 305.369 434.469 305.409 434.561 305.422Z" fill="#171717"/>
<g opacity="0.1">
<path d="M598.484 148.142C596.615 154.783 598.884 162.97 599.125 169.827C599.361 177.226 600.168 184.595 601.537 191.87C602.137 194.955 603.602 197.721 604.294 200.75C605.104 204.295 604.65 208.085 605.37 211.643C605.84 213.963 607.018 215.769 607.37 218.196C607.539 220.131 607.532 222.077 607.351 224.011C607.204 227.897 606.858 231.769 606.418 235.631C606.064 238.731 610.959 238.731 611.293 235.631C611.709 231.765 612.006 227.898 612.153 224.011C612.225 222.104 612.139 220.093 612.371 218.196C612.663 215.812 613.727 213.961 614.084 211.643C614.634 208.064 613.938 204.353 613.924 200.75C613.909 196.823 614.861 193.081 614.498 189.132C613.776 181.408 612.106 173.802 609.527 166.485C607.315 160.195 606.373 152.466 602.162 147.17C601.091 145.824 598.889 146.685 598.479 148.142H598.484Z" fill="#171717"/>
</g>
<g opacity="0.1">
<path d="M506.112 376.279C507.076 375.234 508.662 374.823 509.68 373.656C511.011 372.13 511.764 370.156 512.771 368.409C514.853 364.804 517.129 361.266 519.316 357.719C523.705 350.684 528.574 343.959 533.887 337.592C544.925 324.216 557.766 313.94 571.097 303.037C574.07 300.606 577.128 298.253 580.079 295.807C582.479 293.817 585.004 290.69 582.812 287.569C580.878 284.815 577.351 285.469 574.647 286.476C570.515 288.047 566.507 289.926 562.656 292.097C548.292 300.142 535.592 312.982 525.166 325.559C519.14 332.898 513.778 340.759 509.144 349.048C506.789 353.134 504.741 357.388 503.015 361.777C502.209 363.877 500.934 366.086 500.429 368.271C499.935 370.406 500.856 372.163 500.75 374.058C500.601 376.753 504.307 378.234 506.112 376.279Z" fill="#171717"/>
</g>
<g opacity="0.1">
<path d="M582.005 292.457C575.836 316.816 568.462 341.643 557.352 364.257C552.422 374.29 567.239 380.73 571.574 370.257C581.822 345.484 588.637 320.342 589.279 293.442C589.379 289.281 583.033 288.395 582.005 292.458V292.457Z" fill="#171717"/>
</g>
<g opacity="0.1">
<path d="M678.464 285.208C686.571 287.008 697.016 282.108 704.442 279.07C712.847 275.56 720.97 271.412 728.742 266.663C744.634 257.113 757.509 244.591 768.381 229.638C772.762 223.614 762.824 215.884 758.001 221.629C747.246 234.377 734.761 245.558 720.91 254.85C714.018 259.376 706.728 263.265 699.129 266.467C691.875 269.597 682.083 270.922 676.044 276.041C672.933 278.678 674.617 284.351 678.464 285.208Z" fill="#171717"/>
</g>
</g>
</g>
<defs>
<linearGradient id="paint0_linear_46_7747" x1="746.863" y1="821.664" x2="746.863" y2="870.286" gradientUnits="userSpaceOnUse">
<stop stop-color="#FFDD33"/>
<stop offset="1" stop-color="#E89A00"/>
</linearGradient>
<linearGradient id="paint1_linear_46_7747" x1="745.971" y1="186.604" x2="745.971" y2="236.109" gradientUnits="userSpaceOnUse">
<stop stop-color="#FFDD33"/>
<stop offset="1" stop-color="#E89A00"/>
</linearGradient>
<linearGradient id="paint2_linear_46_7747" x1="615.805" y1="199.156" x2="615.805" y2="362.231" gradientUnits="userSpaceOnUse">
<stop stop-color="#FFDD33"/>
<stop offset="1" stop-color="#E89A00"/>
</linearGradient>
<linearGradient id="paint3_linear_46_7747" x1="626.811" y1="329.842" x2="626.811" y2="375.729" gradientUnits="userSpaceOnUse">
<stop stop-color="#FFDD33"/>
<stop offset="1" stop-color="#E89A00"/>
</linearGradient>
<linearGradient id="paint4_linear_46_7747" x1="613.297" y1="112.833" x2="613.297" y2="153.955" gradientUnits="userSpaceOnUse">
<stop stop-color="#FFDD33"/>
<stop offset="1" stop-color="#E89A00"/>
</linearGradient>
<linearGradient id="paint5_linear_46_7747" x1="609.592" y1="103.721" x2="609.592" y2="145.081" gradientUnits="userSpaceOnUse">
<stop stop-color="#FFDD33"/>
<stop offset="1" stop-color="#E89A00"/>
</linearGradient>
<linearGradient id="paint6_linear_46_7747" x1="618.522" y1="224.929" x2="618.522" y2="272.635" gradientUnits="userSpaceOnUse">
<stop stop-color="#FFDD33"/>
<stop offset="1" stop-color="#E89A00"/>
</linearGradient>
<linearGradient id="paint7_linear_46_7747" x1="617.975" y1="811.951" x2="617.975" y2="890.774" gradientUnits="userSpaceOnUse">
<stop stop-color="#FFDD33"/>
<stop offset="1" stop-color="#E89A00"/>
</linearGradient>
<linearGradient id="paint8_linear_46_7747" x1="593.07" y1="814.458" x2="593.07" y2="890.563" gradientUnits="userSpaceOnUse">
<stop stop-color="#FFDD33"/>
<stop offset="1" stop-color="#E89A00"/>
</linearGradient>
<linearGradient id="paint9_linear_46_7747" x1="548.505" y1="832.364" x2="548.505" y2="920.544" gradientUnits="userSpaceOnUse">
<stop stop-color="#FFDD33"/>
<stop offset="1" stop-color="#E89A00"/>
</linearGradient>
<linearGradient id="paint10_linear_46_7747" x1="538.302" y1="835.489" x2="538.302" y2="920.542" gradientUnits="userSpaceOnUse">
<stop stop-color="#FFDD33"/>
<stop offset="1" stop-color="#E89A00"/>
</linearGradient>
<linearGradient id="paint11_linear_46_7747" x1="488.974" y1="333.379" x2="488.974" y2="377.708" gradientUnits="userSpaceOnUse">
<stop stop-color="#FFDD33"/>
<stop offset="1" stop-color="#E89A00"/>
</linearGradient>
<linearGradient id="paint12_linear_46_7747" x1="454.487" y1="485.425" x2="454.487" y2="510.986" gradientUnits="userSpaceOnUse">
<stop stop-color="#FFDD33"/>
<stop offset="1" stop-color="#E89A00"/>
</linearGradient>
<linearGradient id="paint13_linear_46_7747" x1="403.372" y1="476.498" x2="403.372" y2="498.906" gradientUnits="userSpaceOnUse">
<stop stop-color="#FFDD33"/>
<stop offset="1" stop-color="#E89A00"/>
</linearGradient>
<linearGradient id="paint14_linear_46_7747" x1="375.681" y1="656.857" x2="375.681" y2="757.579" gradientUnits="userSpaceOnUse">
<stop stop-color="#FFDD33"/>
<stop offset="1" stop-color="#E89A00"/>
</linearGradient>
<linearGradient id="paint15_linear_46_7747" x1="809.769" y1="226.748" x2="809.769" y2="259.203" gradientUnits="userSpaceOnUse">
<stop stop-color="#FFDD33"/>
<stop offset="1" stop-color="#E89A00"/>
</linearGradient>
<linearGradient id="paint16_linear_46_7747" x1="440.198" y1="61.17" x2="440.198" y2="93.6228" gradientUnits="userSpaceOnUse">
<stop stop-color="#FFDD33"/>
<stop offset="1" stop-color="#E89A00"/>
</linearGradient>
<clipPath id="clip0_46_7747">
<rect width="960" height="960" fill="white"/>
</clipPath>
<clipPath id="clip1_46_7747">
<rect width="748" height="885" fill="white" transform="translate(106 38)"/>
</clipPath>
</defs>
</svg>
