<svg width="960" height="960" viewBox="0 0 960 960" fill="none" xmlns="http://www.w3.org/2000/svg">
<g clip-path="url(#clip0_435_1377)">
<path fill-rule="evenodd" clip-rule="evenodd" d="M675.589 207.507L637.14 196.183L611.258 188.559C611.258 188.559 607.157 276.839 602.368 309.685C600.943 319.457 596.793 331.479 590.957 344.072C586.208 354.234 580.84 364.096 574.883 373.602C562.484 393.457 547.9 411.537 535.3 421.232C508.61 441.756 470.975 444.179 470.975 444.179L469.647 438.091L466.7 424.654L425.633 422.774L382.977 420.815L362.162 419.865L355.318 446.545C290.993 434.911 233.911 469.89 233.911 469.89L322.472 792.82L466.7 734.22V734.21L496.295 555.362C496.295 555.362 495.607 521.15 534.618 502.671C535.407 502.297 536.229 501.909 537.085 501.506C551.998 494.472 576.775 482.788 602.549 460.82C610.101 454.395 617.241 447.502 623.926 440.18C662.472 398.017 697.722 329.156 699.535 214.565L675.589 207.507ZM690.313 269.446C690.42 268.625 689.84 267.873 689.018 267.766C688.197 267.66 687.445 268.24 687.338 269.062C679.475 329.862 654.528 387.185 615.393 434.376C614.864 435.014 614.953 435.96 615.59 436.489C616.228 437.017 617.174 436.929 617.702 436.291C657.2 388.664 682.378 330.81 690.313 269.446Z" fill="url(#paint0_linear_435_1377)"/>
<path fill-rule="evenodd" clip-rule="evenodd" d="M676.839 141.553L698.158 137.83L712.08 135.406L734.437 119.894L703.414 112.594L700.991 113.04L685.291 115.9C688.403 118.915 689.876 121.881 689.276 124.227C687.22 132.217 653.357 121.727 653.357 121.727L614.374 128.833L539.174 142.542C539.174 142.542 525.951 146.817 529.14 156.851C532.329 166.885 541.917 165.062 541.917 165.062L615.539 152.236L676.839 141.553ZM706.561 115.508C706.158 114.784 705.245 114.525 704.521 114.928C703.797 115.331 703.537 116.245 703.941 116.968C706.842 122.174 708.316 128.054 708.216 134.013C708.202 134.841 708.862 135.524 709.691 135.538C710.519 135.552 711.202 134.892 711.216 134.064C711.325 127.576 709.719 121.176 706.561 115.508Z" fill="#171717"/>
<path fill-rule="evenodd" clip-rule="evenodd" d="M532.504 303.8C528.784 298.9 524.233 294.691 519.057 291.365C522.82 288.194 525.754 284.156 527.608 279.597C532.731 267.304 530.763 251.618 523.308 240.091C513.119 224.337 495.436 215.078 477.724 208.903C460.215 202.805 441.185 199.043 423.143 203.328C405.101 207.613 388.436 221.539 385.469 239.839C370.655 224.124 346.807 218.162 325.905 223.552C305.003 228.942 287.465 244.919 278.643 264.628C277.755 266.615 276.96 268.632 276.243 270.677C273.484 278.603 271.909 286.892 271.57 295.277C271.118 306.334 272.605 317.385 275.962 327.929C276.066 328.256 276.17 328.586 276.276 328.918C279.191 338.087 282.65 348.966 276.194 355.908C271.337 361.133 263.735 360.963 256.275 360.796C254.102 360.747 251.941 360.699 249.864 360.784C232.374 361.521 216.252 375.181 212.626 392.311L233.906 469.898C233.906 469.898 290.988 434.919 355.313 446.553L362.157 419.873L382.972 420.823C394.208 354.712 374.819 308.323 374.819 308.323L374.877 307.179C383.515 307.518 397.892 305.783 414.286 294.469C436.2 279.355 437.964 263.107 437.886 257.775C440.913 259.746 444.436 260.82 448.047 260.875C451.254 260.916 454.443 260.394 457.47 259.334C459.7 267.24 480.756 347.73 425.632 388.04V422.777L466.699 424.657L469.643 438.091L471.602 437.665C489.934 427.96 507.564 416.317 521.326 400.786C535.088 385.255 544.788 365.478 545.388 344.731C545.855 330.022 541.312 315.59 532.504 303.8ZM466.95 212.006C466.14 211.83 465.341 212.342 465.164 213.152C464.988 213.961 465.501 214.76 466.31 214.937C478.101 217.511 489.614 221.709 499.166 228.81C508.717 235.911 516.164 246.137 518.297 257.671C520.431 269.211 516.649 281.967 507.673 289.24C507.323 289.524 507.119 289.95 507.117 290.4C507.115 290.851 507.316 291.278 507.664 291.564C516.762 299.047 523.893 308.64 528.438 319.508C532.983 330.376 534.803 342.19 533.741 353.922C532.678 365.653 528.766 376.948 522.343 386.823C515.92 396.698 507.181 404.854 496.888 410.581C496.164 410.984 495.903 411.897 496.306 412.621C496.709 413.345 497.622 413.605 498.346 413.202C509.067 407.237 518.168 398.743 524.858 388.459C531.547 378.174 535.622 366.411 536.728 354.192C537.835 341.973 535.939 329.669 531.206 318.351C526.701 307.579 519.757 298.01 510.929 290.392C519.893 282.186 523.438 268.975 521.247 257.126C518.946 244.686 510.97 233.848 500.956 226.403C490.942 218.958 478.981 214.632 466.95 212.006Z" fill="#171717"/>
<path d="M886.361 273.759L865.149 276.154L872.333 299.761L852.488 284.026L831.615 297.027L842.909 274.099L818.954 256.997L850.093 259.043L861.378 237.143L864.461 261.098L886.361 273.759Z" fill="url(#paint1_linear_435_1377)"/>
<path d="M816.22 613.87L790.209 612.842L785.759 629.953L779.264 610.108L758.391 614.219L772.419 601.208L759.758 589.235L783.365 594.025L797.054 579.996L794.32 601.208L816.22 613.87Z" fill="#171717"/>
<path d="M800.135 330.901L776.18 341.507L793.291 366.829L764.895 353.829L739.912 375.38L750.179 345.617L723.15 324.056L751.206 319.578L756.335 292.52L771.051 319.578L800.135 330.901Z" fill="#171717"/>
<path d="M797.054 500.956L777.208 501.305L770.713 524.572L761.639 501.644L736.491 504.378L751.886 489.671L742.996 468.798L766.602 478.377L789.87 465.715L782.686 487.616L797.054 500.956Z" fill="url(#paint2_linear_435_1377)"/>
<path d="M140.093 761.005L172.23 636.719L201.363 743.08L140.093 761.005Z" fill="#171717"/>
<path d="M98.0073 263.154L260.199 862.626L224.271 826.697L201.362 743.081L172.229 636.72V636.71L79.5293 298.336L98.0073 263.154Z" fill="#171717"/>
<path d="M590.75 343.979L569.17 281.632L528.675 280.043" stroke="#171717" stroke-width="3" stroke-linecap="round" stroke-linejoin="round"/>
<path d="M274.568 270.076L98.0078 263.154L260.2 862.626L699.535 658.359L624.09 440.335" stroke="#171717" stroke-width="3" stroke-linecap="round" stroke-linejoin="round"/>
<path d="M172.229 636.71L79.5293 298.336L98.0073 263.154" stroke="#171717" stroke-width="3" stroke-linecap="round" stroke-linejoin="round"/>
<path d="M260.2 862.625L224.271 826.696L201.363 743.08L172.229 636.719" stroke="#171717" stroke-width="3" stroke-linecap="round" stroke-linejoin="round"/>
<path d="M201.363 743.08L140.093 761.005L172.23 636.719V636.709" stroke="#171717" stroke-width="3" stroke-linecap="round" stroke-linejoin="round"/>
<path d="M573.648 372.839L551.041 304.21L532.728 303.629" stroke="#171717" stroke-width="3" stroke-linecap="round" stroke-linejoin="round"/>
<path d="M466.697 734.21L666.01 653.22L602.675 460.965" stroke="#171717" stroke-width="3" stroke-linecap="round" stroke-linejoin="round"/>
<path d="M270.913 295.254L185.26 292.52L212.628 392.307L233.908 469.894L322.469 792.824L466.697 734.22" stroke="#171717" stroke-width="3" stroke-linecap="round" stroke-linejoin="round"/>
<path d="M233.908 469.893C233.908 469.893 290.99 434.915 355.315 446.549L362.159 419.869L382.974 420.818L425.63 422.778L466.697 424.658L469.644 438.094L470.972 444.183C470.972 444.183 508.607 441.759 535.297 421.235C547.897 411.54 562.481 393.461 574.88 373.606C580.837 364.1 586.205 354.238 590.954 344.076C596.79 331.483 600.94 319.46 602.365 309.688C607.154 276.842 611.255 188.562 611.255 188.562L637.14 196.183L675.589 207.507L699.535 214.564C697.722 329.156 662.472 398.016 623.926 440.179C617.241 447.502 610.101 454.395 602.549 460.82C575.297 484.048 549.16 495.778 534.618 502.67C495.607 521.149 496.295 555.362 496.295 555.362L466.7 734.209V734.219" stroke="#171717" stroke-width="3" stroke-linecap="round" stroke-linejoin="round"/>
<path d="M425.63 383.252V388.041V422.778" stroke="#171717" stroke-width="3" stroke-linecap="round" stroke-linejoin="round"/>
<path d="M457.284 258.701C457.284 258.701 457.351 258.914 457.468 259.331C459.698 267.231 480.754 347.731 425.63 388.037" stroke="#171717" stroke-width="3" stroke-linecap="round" stroke-linejoin="round"/>
<path d="M374.82 308.322C374.82 308.322 394.209 354.711 382.973 420.822" stroke="#171717" stroke-width="3" stroke-linecap="round" stroke-linejoin="round"/>
<path d="M366.27 305.926C369.076 306.701 371.968 307.121 374.879 307.177C383.517 307.516 397.894 305.777 414.288 294.467C436.198 279.353 437.962 263.105 437.888 257.773C437.891 257.171 437.855 256.57 437.782 255.973" stroke="#171717" stroke-width="3" stroke-linecap="round" stroke-linejoin="round"/>
<path d="M432.648 253.342C434.167 255.067 435.931 256.56 437.883 257.773C440.911 259.743 444.433 260.818 448.044 260.873C451.251 260.913 454.44 260.391 457.467 259.332C459 258.823 460.44 258.07 461.732 257.102" stroke="#171717" stroke-width="3" stroke-linecap="round" stroke-linejoin="round"/>
<path d="M212.56 392.607C212.58 392.507 212.599 392.407 212.628 392.307C216.254 375.177 232.376 361.517 249.866 360.78C259.076 360.402 269.924 362.651 276.196 355.904C282.886 348.71 278.93 337.29 275.964 327.925C272.606 317.381 271.12 306.33 271.572 295.273C271.911 286.888 273.485 278.599 276.245 270.673C276.962 268.628 277.757 266.611 278.645 264.624C287.467 244.915 305.005 228.938 325.907 223.548C346.809 218.158 370.657 224.12 385.471 239.835C388.438 221.535 405.103 207.609 423.145 203.324C441.187 199.039 460.217 202.801 477.726 208.899C495.438 215.074 513.121 224.333 523.31 240.087C530.765 251.614 532.733 267.3 527.61 279.593C525.756 284.152 522.821 288.191 519.059 291.362C524.234 294.689 528.785 298.899 532.505 303.8C541.312 315.59 545.855 330.022 545.389 344.731C544.789 365.478 535.089 385.255 521.327 400.786C507.565 416.317 489.935 427.96 471.603 437.665" stroke="#171717" stroke-width="3" stroke-linecap="round" stroke-linejoin="round"/>
<path d="M430.36 326C431.629 325.472 433.012 325.279 434.377 325.439C435.741 325.599 437.042 326.107 438.154 326.914C439.267 327.721 440.153 328.8 440.728 330.048C441.304 331.296 441.549 332.67 441.441 334.04C441.333 335.41 440.875 336.729 440.111 337.871C439.347 339.013 438.302 339.94 437.077 340.562C435.852 341.185 434.488 341.482 433.115 341.426C431.742 341.37 430.407 340.962 429.236 340.242" stroke="#171717" stroke-width="3" stroke-linecap="round" stroke-linejoin="round"/>
<path d="M408.7 363.639C404.676 363.613 400.791 362.165 397.731 359.552C394.671 356.939 392.633 353.329 391.977 349.359" stroke="#171717" stroke-width="3" stroke-linecap="round" stroke-linejoin="round"/>
<path d="M407.782 308.32C407.637 305.576 407.486 302.839 407.327 300.109" stroke="#171717" stroke-width="3" stroke-linecap="round" stroke-linejoin="round"/>
<path d="M442.325 309.232C442.111 305.287 441.908 301.332 441.704 297.385" stroke="#171717" stroke-width="3" stroke-linecap="round" stroke-linejoin="round"/>
<path d="M450.992 288.8C449.129 286.415 446.409 284.851 443.411 284.44C440.412 284.029 437.372 284.804 434.937 286.601" stroke="#171717" stroke-width="3" stroke-linecap="round" stroke-linejoin="round"/>
<path d="M685.293 115.9L700.993 113.04L703.416 112.594L734.439 119.894L712.08 135.406L698.158 137.83L676.839 141.553L615.539 152.236L541.917 165.062C541.917 165.062 532.329 166.885 529.14 156.851C525.951 146.817 539.174 142.542 539.174 142.542L614.374 128.833L653.357 121.727L653.648 121.669" stroke="#171717" stroke-width="3" stroke-linecap="round" stroke-linejoin="round"/>
<path d="M232.037 554.091L207.529 561.256C205.708 561.786 203.751 561.573 202.088 560.662C200.425 559.751 199.191 558.217 198.658 556.398L191.038 530.32C190.507 528.5 190.721 526.545 191.632 524.883C192.543 523.222 194.076 521.99 195.895 521.459L220.403 514.294C222.222 513.763 224.177 513.977 225.839 514.888C227.5 515.798 228.732 517.332 229.264 519.151L236.884 545.221C237.148 546.121 237.232 547.065 237.132 547.998C237.031 548.932 236.748 549.836 236.298 550.66C235.848 551.483 235.24 552.21 234.509 552.799C233.777 553.388 232.938 553.827 232.037 554.091V554.091Z" stroke="#171717" stroke-width="3" stroke-linecap="round" stroke-linejoin="round"/>
<path d="M215.575 497.028L190.65 504.309C188.888 504.823 186.994 504.617 185.383 503.736C183.773 502.855 182.578 501.371 182.061 499.609L153.18 396.64C152.665 394.875 152.872 392.978 153.756 391.365C154.639 389.752 156.127 388.556 157.892 388.04L183.04 385.733C183.913 385.477 184.828 385.395 185.733 385.493C186.638 385.591 187.515 385.865 188.314 386.302C189.112 386.738 189.817 387.328 190.388 388.037C190.959 388.746 191.384 389.56 191.64 390.433L220.288 488.427C220.543 489.302 220.624 490.218 220.525 491.123C220.427 492.028 220.151 492.905 219.713 493.704C219.276 494.503 218.685 495.208 217.975 495.778C217.265 496.348 216.449 496.773 215.575 497.028Z" stroke="#171717" stroke-width="3" stroke-linecap="round" stroke-linejoin="round"/>
<path d="M269.594 682.594L245.094 689.758C243.273 690.29 241.316 690.077 239.653 689.167C237.989 688.256 236.756 686.722 236.223 684.901L207.7 587.333C207.168 585.513 207.381 583.556 208.292 581.893C209.203 580.23 210.737 578.996 212.557 578.463L237.057 571.299C238.877 570.767 240.834 570.98 242.498 571.891C244.161 572.801 245.395 574.335 245.928 576.156L274.449 673.724C274.98 675.544 274.767 677.5 273.857 679.163C272.946 680.826 271.413 682.06 269.594 682.594V682.594Z" stroke="#171717" stroke-width="3" stroke-linecap="round" stroke-linejoin="round"/>
<path d="M637.14 196.182C637.14 196.182 615.724 169.289 615.54 152.236" stroke="#171717" stroke-width="3" stroke-linecap="round" stroke-linejoin="round"/>
<path d="M614.376 128.834C614.376 128.834 611.943 100.739 640.688 100.962C642.927 100.982 645.128 101.088 647.27 101.282C664.576 102.782 678.662 109.464 685.293 115.902C688.405 118.917 689.879 121.883 689.278 124.229C687.222 132.218 653.359 121.729 653.359 121.729" stroke="#171717" stroke-width="3" stroke-linecap="round" stroke-linejoin="round"/>
<path d="M647.3 100.961C647.3 100.961 695.657 86.5943 700.911 112.595" stroke="#171717" stroke-width="3" stroke-linecap="round" stroke-linejoin="round"/>
<path d="M650.033 160.051C650.033 160.051 660.633 144.375 676.839 141.551" stroke="#171717" stroke-width="3" stroke-linecap="round" stroke-linejoin="round"/>
<path d="M698.158 137.84C698.158 137.84 693.883 154.001 683.878 163.162C682.236 164.696 680.393 166.001 678.4 167.04C677.494 167.516 676.555 167.924 675.589 168.262" stroke="#171717" stroke-width="3" stroke-linecap="round" stroke-linejoin="round"/>
<path d="M675.589 207.507L678.4 167.041" stroke="#171717" stroke-width="3" stroke-linecap="round" stroke-linejoin="round"/>
<path d="M734.435 119.896L759.079 136.212L789.181 110.201L779.942 155.708L821.348 175.902H771.392L767.969 222.776L748.813 172.819" stroke="#171717" stroke-width="3" stroke-linecap="round" stroke-linejoin="round"/>
<path d="M850.093 259.043L861.378 237.143L864.461 261.098L886.361 273.759L865.149 276.154L872.333 299.761L852.488 284.026L831.615 297.027L842.909 274.099L818.954 256.997L850.093 259.043Z" stroke="#171717" stroke-width="3" stroke-linecap="round" stroke-linejoin="round"/>
<path d="M793.291 366.829L776.18 341.507L800.135 330.901L771.051 319.578L756.335 292.52L751.206 319.578L723.15 324.056L750.179 345.617L739.912 375.38L764.895 353.829L793.291 366.829Z" stroke="#171717" stroke-width="3" stroke-linecap="round" stroke-linejoin="round"/>
<path d="M841.193 402.069L821.348 394.197L829.56 409.252L816.22 418.152L837.093 421.574L844.276 439.364L849.405 420.547L870.617 420.886L852.653 408.574L856.249 387.701L841.193 402.069Z" stroke="#171717" stroke-width="3" stroke-linecap="round" stroke-linejoin="round"/>
<path d="M797.054 500.956L782.686 487.616L789.87 465.715L766.602 478.377L742.996 468.798L751.886 489.671L736.491 504.378L761.639 501.644L770.713 524.572L777.208 501.305L797.054 500.956Z" stroke="#171717" stroke-width="3" stroke-linecap="round" stroke-linejoin="round"/>
<path d="M794.32 601.208L797.054 579.996L783.365 594.025L759.758 589.235L772.419 601.208L758.391 614.219L779.264 610.108L785.759 629.953L790.209 612.842L816.22 613.87L794.32 601.208Z" stroke="#171717" stroke-width="3" stroke-linecap="round" stroke-linejoin="round"/>
<path d="M362.594 448.036C396.294 445.605 430.058 444.728 463.886 445.405" stroke="#171717" stroke-width="3" stroke-linecap="round" stroke-linejoin="round"/>
<path d="M455.3 439.7L454.386 431.488" stroke="#171717" stroke-width="3" stroke-linecap="round" stroke-linejoin="round"/>
<path d="M439.72 439.709L440.176 431.953" stroke="#171717" stroke-width="3" stroke-linecap="round" stroke-linejoin="round"/>
<path d="M425.577 440.165V431.041" stroke="#171717" stroke-width="3" stroke-linecap="round" stroke-linejoin="round"/>
<path d="M407.588 439.25L407.488 432.408" stroke="#171717" stroke-width="3" stroke-linecap="round" stroke-linejoin="round"/>
<path d="M389.08 440.621C390.056 437.528 390.367 434.263 389.992 431.041" stroke="#171717" stroke-width="3" stroke-linecap="round" stroke-linejoin="round"/>
<path d="M371.281 440.62L373.103 431.039" stroke="#171717" stroke-width="3" stroke-linecap="round" stroke-linejoin="round"/>
<path d="M608.524 234.4L696.01 258.069" stroke="#171717" stroke-width="3" stroke-linecap="round" stroke-linejoin="round"/>
<path d="M686.678 248.791L688.662 220.045" stroke="#171717" stroke-width="3" stroke-linecap="round" stroke-linejoin="round"/>
<path d="M664.159 244.019L668.251 215.275" stroke="#171717" stroke-width="3" stroke-linecap="round" stroke-linejoin="round"/>
<path d="M641.3 237.82L646.127 209.768" stroke="#171717" stroke-width="3" stroke-linecap="round" stroke-linejoin="round"/>
<path d="M620.945 230.32L624.981 202.252" stroke="#171717" stroke-width="3" stroke-linecap="round" stroke-linejoin="round"/>
<path d="M673.533 304.9L668.059 287.791" stroke="#171717" stroke-width="3" stroke-linecap="round" stroke-linejoin="round"/>
<path d="M623.525 328.074L631.752 323.309" stroke="#171717" stroke-width="3" stroke-linecap="round" stroke-linejoin="round"/>
<path d="M629.384 333.639C629.391 328.609 628.069 323.666 625.55 319.312" stroke="#171717" stroke-width="3" stroke-linecap="round" stroke-linejoin="round"/>
<path d="M636.557 386.924L623.514 390.184" stroke="#171717" stroke-width="3" stroke-linecap="round" stroke-linejoin="round"/>
<path d="M580.161 421.223L579.887 409.596" stroke="#171717" stroke-width="3" stroke-linecap="round" stroke-linejoin="round"/>
<path d="M572.289 415.962L588.464 413.047L586.712 413.887" stroke="#171717" stroke-width="3" stroke-linecap="round" stroke-linejoin="round"/>
<path d="M559.274 473.165L546.285 469.018" stroke="#171717" stroke-width="3" stroke-linecap="round" stroke-linejoin="round"/>
<path d="M492.399 495.186L495.635 480.086" stroke="#171717" stroke-width="3" stroke-linecap="round" stroke-linejoin="round"/>
<path d="M499.06 490.901L487.433 488.139" stroke="#171717" stroke-width="3" stroke-linecap="round" stroke-linejoin="round"/>
<path d="M433.333 489.666C436.828 485.757 441.001 482.511 445.651 480.086" stroke="#171717" stroke-width="3" stroke-linecap="round" stroke-linejoin="round"/>
<path d="M471.656 556.73C467.009 558.162 462.119 558.628 457.285 558.099" stroke="#171717" stroke-width="3" stroke-linecap="round" stroke-linejoin="round"/>
<path d="M411.3 568.3L418.82 552.557" stroke="#171717" stroke-width="3" stroke-linecap="round" stroke-linejoin="round"/>
<path d="M423.064 564.263L408.104 555.881" stroke="#171717" stroke-width="3" stroke-linecap="round" stroke-linejoin="round"/>
<path d="M386.068 513.69L375.131 506.828" stroke="#171717" stroke-width="3" stroke-linecap="round" stroke-linejoin="round"/>
<path d="M299.828 491.673L308.028 480.717" stroke="#171717" stroke-width="3" stroke-linecap="round" stroke-linejoin="round"/>
<path d="M309.481 491.009C304.719 488.761 300.486 485.532 297.06 481.533" stroke="#171717" stroke-width="3" stroke-linecap="round" stroke-linejoin="round"/>
<path d="M448.506 683.434L458.06 672.461" stroke="#171717" stroke-width="3" stroke-linecap="round" stroke-linejoin="round"/>
<path d="M432.758 618.269C431.658 617.321 430.299 616.728 428.856 616.565C427.414 616.402 425.956 616.678 424.673 617.357C423.39 618.036 422.341 619.086 421.664 620.37C420.987 621.653 420.713 623.112 420.877 624.554C421.202 627.401 423.171 630.371 421.806 632.891C420.15 635.947 415.591 635.058 412.374 633.743" stroke="#171717" stroke-width="3" stroke-linecap="round" stroke-linejoin="round"/>
<path d="M322.213 529.549C323.325 527.865 324.793 526.444 326.513 525.388C328.303 524.467 330.749 524.488 332.088 525.994C334.182 528.342 332.315 531.94 331.973 535.068C331.79 536.294 331.959 537.546 332.46 538.679C332.962 539.812 333.775 540.779 334.805 541.468C336.949 542.692 340.205 541.775 340.911 539.408" stroke="#171717" stroke-width="3" stroke-linecap="round" stroke-linejoin="round"/>
<path d="M517.8 459.531C516.533 455.477 520.166 451.387 524.133 449.871C528.1 448.355 532.52 448.399 536.521 446.971C540.522 445.543 544.309 441.679 543.321 437.549" stroke="#171717" stroke-width="3" stroke-linecap="round" stroke-linejoin="round"/>
<path d="M350.257 733.118C354.157 727.19 351.509 718.044 345.042 715.118C343.062 714.224 340.878 713.866 338.871 713.032C336.864 712.198 334.929 710.694 334.478 708.569C334.027 706.444 335.827 703.895 337.963 704.294" stroke="#171717" stroke-width="3" stroke-linecap="round" stroke-linejoin="round"/>
<path d="M304.679 635.429L313.579 625.848" stroke="#171717" stroke-width="3" stroke-linecap="round" stroke-linejoin="round"/>
<path d="M313.448 636.921C308.407 631.914 304.401 625.963 301.659 619.408" stroke="#171717" stroke-width="3" stroke-linecap="round" stroke-linejoin="round"/>
<path d="M354.635 626.532L356 610.793" stroke="#171717" stroke-width="3" stroke-linecap="round" stroke-linejoin="round"/>
<path d="M292.328 572.264C290.136 572.577 287.9 572.358 285.81 571.626C283.72 570.893 281.837 569.668 280.32 568.055" stroke="#171717" stroke-width="3" stroke-linecap="round" stroke-linejoin="round"/>
<path d="M401.854 712.757L396.379 700.439" stroke="#171717" stroke-width="3" stroke-linecap="round" stroke-linejoin="round"/>
<path d="M391.574 711.36L405.51 704.326" stroke="#171717" stroke-width="3" stroke-linecap="round" stroke-linejoin="round"/>
<path d="M360.794 764.082C365.408 760.663 369.158 756.211 371.743 751.082" stroke="#171717" stroke-width="3" stroke-linecap="round" stroke-linejoin="round"/>
<path d="M421.618 177.601L423.8 159.139" stroke="#171717" stroke-width="3" stroke-linecap="round" stroke-linejoin="round"/>
<path d="M392.76 184.553L373.529 146.6" stroke="#171717" stroke-width="3" stroke-linecap="round" stroke-linejoin="round"/>
<path d="M371.737 205.684L358.048 199.529" stroke="#171717" stroke-width="3" stroke-linecap="round" stroke-linejoin="round"/>
<path d="M480.552 135.866L490.133 118.758" stroke="#171717" stroke-width="3" stroke-linecap="round" stroke-linejoin="round"/>
<path d="M493.473 131.183L478.633 119.949" stroke="#171717" stroke-width="3" stroke-linecap="round" stroke-linejoin="round"/>
<path d="M47.6748 592.154C66.3948 587.379 87.7648 596.444 97.3428 613.222C106.921 630 103.862 653.01 90.2328 666.703C84.4818 672.48 76.3878 676.763 68.3648 675.32C60.3418 673.877 53.7178 664.861 56.9348 657.371C60.0288 650.171 70.6708 648.524 76.9538 653.213C83.2368 657.902 85.1968 666.837 83.4218 674.473C81.6468 682.109 76.7878 688.654 71.5108 694.453C67.7728 698.561 63.7308 702.467 60.8158 707.196C57.9008 711.925 56.1988 717.729 57.6738 723.084C59.1488 728.439 64.4988 732.894 69.9878 732.04C75.4768 731.186 79.1878 723.84 75.7128 719.499" stroke="#171717" stroke-width="3" stroke-linecap="round" stroke-linejoin="round"/>
<path d="M85.1692 550.438L72.7002 535.512" stroke="#171717" stroke-width="3" stroke-linecap="round" stroke-linejoin="round"/>
<path d="M71.3994 551.336L86.4304 536.256" stroke="#171717" stroke-width="3" stroke-linecap="round" stroke-linejoin="round"/>
<path d="M877.959 159.189L873.174 142.764" stroke="#171717" stroke-width="3" stroke-linecap="round" stroke-linejoin="round"/>
<path d="M867.046 154.706L884.173 146.533" stroke="#171717" stroke-width="3" stroke-linecap="round" stroke-linejoin="round"/>
<path d="M673.334 442.336C672.885 435.945 680.234 430.871 686.486 432.277C692.738 433.683 697.072 439.901 697.902 446.255C698.732 452.609 696.678 459.002 693.909 464.779C691.14 470.556 687.631 475.979 685.245 481.928C679.133 497.163 680.938 514.543 685.895 530.192C688.158 537.335 691.212 544.517 696.72 549.592C702.228 554.667 710.72 557.138 717.43 553.81C720.572 552.252 723.208 549.299 723.556 545.81C723.904 542.321 721.384 538.545 717.89 538.242C714.396 537.939 711.141 542.105 712.82 545.183" stroke="#171717" stroke-width="3" stroke-linecap="round" stroke-linejoin="round"/>
<path d="M883.872 353.024C888.229 350.924 893.62 352.177 897.547 354.997C901.474 357.817 904.209 361.972 906.677 366.129C912.684 376.248 917.726 387.174 919.336 398.829C920.946 410.484 918.81 423.006 911.647 432.343C902.593 444.143 887.435 449.043 874.686 456.702C862.064 464.287 851.24 475.225 845.079 488.602C841.695 495.949 839.744 504.309 841.679 512.163C843.614 520.017 850.159 527.07 858.22 527.738C866.281 528.406 874.574 520.958 873.227 512.982C872.582 509.164 869.392 505.537 865.521 505.628C861.65 505.719 858.589 510.891 861.129 513.814" stroke="#171717" stroke-width="3" stroke-linecap="round" stroke-linejoin="round"/>
<path d="M887.729 393.86L896.629 388.385" stroke="#171717" stroke-width="3" stroke-linecap="round" stroke-linejoin="round"/>
<path d="M894.052 396.859L887.707 384.289" stroke="#171717" stroke-width="3" stroke-linecap="round" stroke-linejoin="round"/>
<path d="M740.543 272.776L732.343 262.502" stroke="#171717" stroke-width="3" stroke-linecap="round" stroke-linejoin="round"/>
<path d="M730.333 272.048L740.6 261.783" stroke="#171717" stroke-width="3" stroke-linecap="round" stroke-linejoin="round"/>
<path d="M49.5338 641.469C46.1276 638.26 43.3622 634.433 41.3848 630.191" stroke="#171717" stroke-width="3" stroke-linecap="round" stroke-linejoin="round"/>
<path d="M39.8428 642.271C43.9044 639.555 47.3922 636.067 50.1078 632.006" stroke="#171717" stroke-width="3" stroke-linecap="round" stroke-linejoin="round"/>
<g opacity="0.1">
<path d="M459.8 259.268C457.255 258.213 454.765 259.313 452.239 259.873C451.016 260.246 449.723 260.327 448.464 260.109C447.204 259.89 446.014 259.379 444.989 258.616C441.148 256.136 435.589 258.554 434.497 262.884C433.087 268.802 430.46 274.362 426.782 279.208C423.105 284.055 418.458 288.081 413.138 291.032C408.052 293.745 402.4 295.225 396.638 295.352C387.747 295.604 379.269 298.146 376.866 307.921C374.966 315.635 377.816 324.334 378.414 332.098C379.099 340.998 379.788 349.858 379.789 358.798C379.756 367.719 379.265 376.633 378.32 385.504C377.39 394.56 374.729 403.772 374.444 412.821C374.159 421.87 388.551 426.709 392.444 417.695C396.18 409.032 397.244 399.035 398.487 389.724C399.705 380.42 400.332 371.048 400.365 361.664C400.479 352.74 400.034 343.818 399.033 334.95C398.47 330.266 397.649 325.613 396.853 320.965C396.786 320.573 395.896 312.543 395.6 312.415C393.036 314.345 392.394 315.015 393.675 314.426C394.417 314.378 395.16 314.345 395.905 314.326C397.544 314.254 399.161 314.147 400.792 313.953C404.378 313.582 407.912 312.816 411.33 311.669C418.028 309.305 424.253 305.769 429.715 301.226C435.224 296.804 439.746 291.277 442.987 285C446.229 278.722 448.118 271.835 448.534 264.783L439.492 271.671C445.006 273.913 452.409 273.903 457.637 270.845C461.42 268.632 465.819 261.759 459.807 259.268H459.8Z" fill="#171717"/>
</g>
<g opacity="0.1">
<path d="M359.97 425.792C358.911 430.192 358.926 432.983 355.329 436.097C352.239 438.771 347.679 439.48 343.762 440.064C332.041 441.809 320.231 442.581 308.54 444.693C296.898 446.777 285.387 449.541 274.068 452.971C268.119 454.784 262.227 456.771 256.391 458.934C250.199 461.228 243.224 463.177 238.221 467.552C231.91 473.07 236.728 485.542 245.347 484.752C252.335 484.115 258.91 480.352 265.488 477.932C271.913 475.567 278.408 473.412 284.974 471.465C298.381 467.45 312.034 464.304 325.846 462.047C338.046 460.077 351.816 460.527 362.669 453.86C372.185 448.014 380.595 432.305 371.252 422.809C367.77 419.27 361.162 420.83 359.97 425.788V425.792Z" fill="#171717"/>
</g>
<g opacity="0.1">
<path d="M469.03 456.529C477.469 462.407 490.796 458.277 499.964 455.424C509.93 452.325 519.548 448.203 528.664 443.124C546.318 433.114 562.126 420.152 575.4 404.801C605.623 370.123 621.9 326.106 628.162 280.94C631.991 253.34 632.614 225.52 631.289 197.708C630.643 184.134 609.452 184.056 610.102 197.708C612.26 243.008 609.686 289.224 594.092 332.208C581.126 367.948 557.612 400.676 525.341 421.338C516.815 426.906 507.697 431.51 498.155 435.066C493.077 436.904 487.882 438.336 482.675 439.753C477.219 441.237 471.575 442.726 467.796 446.958C467.156 447.626 466.674 448.429 466.385 449.308C466.096 450.187 466.008 451.12 466.126 452.038C466.244 452.955 466.567 453.835 467.069 454.612C467.572 455.389 468.242 456.044 469.03 456.528V456.529Z" fill="#171717"/>
</g>
<g opacity="0.1">
<path d="M619.854 161.932C630.607 166.656 643.702 162.913 654.573 160.332C666.252 157.467 677.736 153.86 688.956 149.532C693.763 147.719 697.056 143.108 695.603 137.826C694.333 133.203 688.736 129.372 683.897 131.179C672.926 135.279 661.755 138.764 650.497 141.988C640.186 144.941 626.968 146.454 618.837 154.061C616.681 156.078 616.904 160.643 619.852 161.938L619.854 161.932Z" fill="#171717"/>
</g>
</g>
<defs>
<linearGradient id="paint0_linear_435_1377" x1="466.723" y1="188.559" x2="466.723" y2="792.82" gradientUnits="userSpaceOnUse">
<stop stop-color="#FFDD33"/>
<stop offset="1" stop-color="#E89A00"/>
</linearGradient>
<linearGradient id="paint1_linear_435_1377" x1="852.658" y1="237.143" x2="852.658" y2="299.761" gradientUnits="userSpaceOnUse">
<stop stop-color="#FFDD33"/>
<stop offset="1" stop-color="#E89A00"/>
</linearGradient>
<linearGradient id="paint2_linear_435_1377" x1="766.773" y1="465.715" x2="766.773" y2="524.572" gradientUnits="userSpaceOnUse">
<stop stop-color="#FFDD33"/>
<stop offset="1" stop-color="#E89A00"/>
</linearGradient>
<clipPath id="clip0_435_1377">
<rect width="884" height="770" fill="white" transform="translate(38 95)"/>
</clipPath>
</defs>
</svg>
