<svg version="1.2" xmlns="http://www.w3.org/2000/svg" viewBox="0 0 1670.859 1670.859" width="1671" height="1671">
	<title>ornate-habit-tracker-frame</title>
	<style>
		.s0 { fill: #e7b75f } 
	</style>
	<g id="Layer 1">
		<path class="s0" d="m1007.4 193.5q5.4 0.6 10.5 1.1c-3.5-14.5 17.5-20 22.8-7.3 6.2-0.4 11.9 0 17.2 1.1-1 6.5-7.3 10-9.2 16 10.6 2.7 26.3-6.7 38.1-9.1 12-8-8.5-39.7 11.4-41.4 4.7-0.4 7.6 2.4 10.2 8.6 6.8-18.6 45-40.9 64.4-24.1 3-2.4 0.7-7.8 2.8-10.8 3.7 0.2 5.5 3.7 9 4.3 4.8-3.4 7.6-8 12.7-11.3-1.1 4.7 2.7 12.2 3.8 18.1 6.4 3.3 16.1 5.6 14.8 17.5 9.4-0.3 13.6-4.7 17.8-10.5-2.9 6.5-4.6 12.3-0.2 20.7 9.6-7.1 16.5 0.1 22.5 4.1 5.6-2.1 14.1-2.6 17.6-5.9-0.3 6.1-2.9 10.8-3.4 16.7 2.2 2.7 6.2 2.5 8.2 5.7-1.6 3.2-7.4 4-8 7.8 24.3 8.4 24.1 52.6 11.4 67.8 6.7-0.8 10.5 0.3 12.5 4.5 8.5 18.1-29.3 16.2-30.1 30.6 3.7 11.4 3.5 29.7 11.2 37.6 4.2-4.7 4-11.9 9.2-16 3.6 4 6.8 8.8 9.5 14.3 13.7-1.7 19.5 19.2 5.1 23.4q3 4.2 6.2 8.5 4.3 3.2 8.5 6.2c4.2-14.4 25.1-8.6 23.4 5.1 5.5 2.7 10.3 5.9 14.3 9.5-4.1 5.2-11.3 5-16 9.2 7.9 7.7 26.2 7.4 37.6 11.2 14.4-0.9 12.5-38.6 30.5-30.1 4.3 2 5.4 5.8 4.6 12.5 15.2-12.7 59.4-12.9 67.8 11.4 3.8-0.6 4.6-6.5 7.8-8 3.2 2 3 6 5.7 8.2 5.9-0.5 10.6-3.1 16.7-3.4-3.3 3.5-3.8 12-5.9 17.6 4 6 11.2 12.9 4.1 22.5 8.4 4.4 14.2 2.7 20.7-0.2-5.8 4.2-10.2 8.4-10.5 17.8 11.9-1.3 14.2 8.4 17.4 14.8 6 1.1 13.5 4.9 18.2 3.8-3.3 5.1-7.9 7.9-11.3 12.7 0.6 3.5 4.1 5.3 4.3 9-3 2-8.4-0.2-10.8 2.8 16.8 19.4-5.5 57.6-24.1 64.4 6.2 2.6 8.9 5.5 8.6 10.2-1.7 19.9-33.4-0.6-41.4 11.4-2.4 11.8-11.8 27.5-9.1 38.1 6-1.9 9.5-8.2 16-9.2 1.1 5.3 1.5 11 1.1 17.2 12.7 5.3 7.2 26.3-7.3 22.8q0.5 5.1 1.1 10.4 2.1 4.9 4.3 9.6c10.8-10.3 26 5.2 17.7 16.2 3.4 5.1 6 10.2 7.7 15.3-6.2 2.5-12.4-1.2-18.5 0 2.9 10.6 18.9 19.5 26.9 28.5 12.9 6.5 30.2-27.1 41.5-10.8 2.7 3.9 1.8 7.8-2.3 13.1 19.5-3.3 57.9 18.6 53.1 43.8 3.6 1.4 7.1-3.3 10.7-3.1 1.7 3.4-0.4 6.7 0.8 10 5.4 2.5 10.8 2.6 16.2 5.4-4.7 1.4-9.3 8.5-13.9 12.3 0.4 7.2 3.3 16.8-7.7 21.6 5 8 10.9 9.4 18 10.1-7.1 0.8-13 2.2-18 10.2 11 4.8 8.1 14.4 7.7 21.6 4.6 3.8 9.2 10.9 13.9 12.3-5.4 2.8-10.8 2.9-16.2 5.3-1.2 3.4 0.9 6.7-0.8 10-3.6 0.3-7.1-4.4-10.7-3 4.8 25.2-33.6 47.1-53.1 43.8 4.1 5.3 5 9.2 2.3 13.1-11.3 16.3-28.6-17.3-41.5-10.8-8 8.9-24 17.8-26.9 28.4 6.1 1.3 12.3-2.4 18.5 0-1.7 5.2-4.3 10.3-7.7 15.4 8.3 11-6.9 26.5-17.7 16.2q-2.2 4.7-4.3 9.5-0.6 5.4-1.1 10.5c14.5-3.5 20 17.4 7.3 22.8 0.4 6.2 0 11.9-1.1 17.2-6.5-1-10-7.3-16-9.2-2.7 10.6 6.7 26.3 9.1 38 8 12.1 39.7-8.4 41.4 11.5 0.3 4.7-2.4 7.6-8.6 10.1 18.6 6.9 40.9 45.1 24.1 64.5 2.4 3 7.8 0.7 10.8 2.7-0.2 3.8-3.7 5.6-4.3 9.1 3.4 4.8 8 7.6 11.3 12.7-4.7-1.1-12.2 2.7-18.2 3.8-3.2 6.3-5.5 16.1-17.4 14.8 0.3 9.4 4.7 13.6 10.5 17.8-6.5-3-12.3-4.6-20.7-0.2 7.1 9.6-0.1 16.5-4.1 22.5 2.1 5.6 2.6 14.1 5.9 17.6-6.1-0.3-10.8-2.9-16.7-3.4-2.7 2.2-2.5 6.2-5.7 8.2-3.2-1.6-4-7.4-7.8-8-8.4 24.3-52.6 24.1-67.8 11.4 0.8 6.7-0.3 10.4-4.6 12.5-18 8.5-16.1-29.3-30.5-30.1-11.4 3.7-29.7 3.5-37.6 11.2 4.7 4.2 11.9 4 16 9.2-4 3.6-8.8 6.8-14.3 9.5 1.7 13.7-19.2 19.5-23.4 5.1q-4.2 3-8.5 6.2-3.2 4.3-6.2 8.5c14.4 4.2 8.6 25.1-5.1 23.4-2.7 5.5-5.9 10.3-9.5 14.3-5.2-4.1-5-11.3-9.2-16-7.7 7.9-7.5 26.2-11.2 37.6 0.8 14.4 38.6 12.5 30.1 30.5-2 4.3-5.8 5.4-12.5 4.6 12.7 15.2 12.9 59.4-11.4 67.8 0.6 3.8 6.4 4.6 8 7.8-2 3.1-6 3-8.2 5.7 0.5 5.9 3.1 10.6 3.4 16.7-3.5-3.4-12-3.8-17.6-5.9-6 4-12.9 11.2-22.5 4.1-4.4 8.4-2.7 14.2 0.2 20.7-4.2-5.8-8.4-10.2-17.8-10.5 1.3 11.9-8.4 14.2-14.8 17.4-1.1 6-4.9 13.5-3.8 18.2-5.1-3.3-7.9-7.9-12.7-11.3-3.5 0.6-5.3 4.1-9 4.3-2.1-3 0.2-8.4-2.8-10.8-19.4 16.8-57.6-5.5-64.4-24.1-2.6 6.2-5.5 8.9-10.2 8.6-19.9-1.7 0.6-33.4-11.4-41.4-11.8-2.4-27.5-11.8-38.1-9.1 1.9 6 8.2 9.5 9.2 16-5.3 1.1-11 1.4-17.2 1-5.3 12.8-26.3 7.3-22.8-7.2q-5.1 0.5-10.5 1.1-4.8 2.1-9.5 4.3c10.3 10.8-5.2 26-16.2 17.7-5.1 3.4-10.2 6-15.4 7.6-2.4-6.1 1.3-12.3 0-18.4-10.5 2.9-19.5 18.9-28.4 26.9-6.5 12.9 27.1 30.2 10.8 41.5-3.9 2.7-7.8 1.8-13.1-2.3 3.3 19.5-18.6 57.9-43.8 53.1-1.4 3.6 3.3 7.1 3 10.7-3.3 1.7-6.6-0.4-10 0.8-2.4 5.4-2.5 10.8-5.3 16.1-1.4-4.6-8.5-9.2-12.3-13.8-7.2 0.4-16.8 3.3-21.6-7.7-8 5-9.4 10.9-10.1 18-0.8-7.1-2.2-13-10.2-18-4.8 11-14.4 8.1-21.6 7.7-3.8 4.6-10.9 9.2-12.3 13.8-2.8-5.3-2.9-10.7-5.3-16.1-3.4-1.2-6.7 0.9-10-0.8-0.3-3.6 4.4-7.1 3-10.7-25.2 4.8-47.1-33.6-43.8-53.1-5.3 4.1-9.2 5-13.1 2.3-16.3-11.3 17.3-28.6 10.8-41.5-8.9-8-17.9-24-28.4-26.9-1.3 6.1 2.4 12.3 0 18.4-5.2-1.6-10.3-4.2-15.4-7.6-11 8.3-26.5-6.9-16.2-17.7q-4.7-2.2-9.5-4.3-5.4-0.6-10.5-1.1c3.5 14.5-17.5 20-22.8 7.2-6.2 0.4-11.9 0.1-17.2-1 1-6.5 7.3-10 9.2-16-10.6-2.7-26.3 6.7-38.1 9.1-12 8 8.5 39.7-11.4 41.4-4.7 0.3-7.6-2.4-10.2-8.6-6.8 18.6-45 40.9-64.4 24.1-3 2.4-0.7 7.8-2.8 10.8-3.7-0.2-5.5-3.7-9-4.3-4.8 3.4-7.6 8-12.7 11.3 1.1-4.7-2.7-12.2-3.8-18.2-6.4-3.2-16.1-5.5-14.8-17.4-9.4 0.3-13.6 4.7-17.8 10.5 2.9-6.5 4.6-12.3 0.2-20.7-9.6 7.1-16.5-0.1-22.5-4.1-5.6 2.1-14.1 2.5-17.6 5.9 0.3-6.1 2.9-10.8 3.4-16.7-2.2-2.7-6.2-2.6-8.2-5.7 1.6-3.2 7.4-4 8-7.8-24.3-8.4-24.1-52.6-11.4-67.8-6.7 0.8-10.5-0.3-12.5-4.6-8.5-18 29.3-16.1 30.1-30.5-3.7-11.4-3.5-29.7-11.2-37.6-4.2 4.7-4 11.9-9.2 16-3.6-4-6.8-8.8-9.5-14.3-13.7 1.7-19.5-19.2-5.1-23.4q-3-4.2-6.2-8.5-4.3-3.2-8.5-6.2c-4.2 14.4-25.1 8.6-23.4-5.1-5.5-2.7-10.3-5.9-14.3-9.5 4.1-5.2 11.3-5 16-9.2-7.9-7.7-26.2-7.5-37.6-11.2-14.4 0.8-12.5 38.6-30.5 30.1-4.3-2.1-5.4-5.8-4.6-12.5-15.2 12.7-59.4 12.9-67.8-11.4-3.8 0.6-4.6 6.4-7.8 8-3.2-2-3-6-5.7-8.2-5.9 0.5-10.6 3.1-16.7 3.4 3.3-3.5 3.8-12 5.9-17.6-4-6-11.2-12.9-4.1-22.5-8.4-4.4-14.2-2.8-20.7 0.2 5.8-4.2 10.2-8.4 10.5-17.8-11.9 1.3-14.2-8.5-17.4-14.8-6-1.1-13.5-4.9-18.2-3.8 3.3-5.1 7.9-7.9 11.3-12.7-0.6-3.5-4.1-5.3-4.3-9.1 3-2 8.4 0.3 10.8-2.7-16.8-19.4 5.5-57.6 24.1-64.5-6.2-2.5-8.9-5.4-8.6-10.1 1.7-19.9 33.4 0.6 41.4-11.5 2.4-11.7 11.8-27.4 9.1-38-6 1.9-9.5 8.2-16 9.2-1.1-5.3-1.5-11-1.1-17.2-12.7-5.4-7.2-26.3 7.3-22.8q-0.5-5.1-1.1-10.5-2.1-4.8-4.3-9.5c-10.8 10.3-26-5.2-17.7-16.2-3.4-5.1-6-10.2-7.6-15.4 6.1-2.4 12.3 1.3 18.4 0-2.9-10.6-18.9-19.5-26.9-28.4-12.9-6.5-30.2 27.1-41.5 10.8-2.7-3.9-1.8-7.8 2.3-13.1-19.5 3.3-57.9-18.6-53.1-43.8-3.6-1.4-7.1 3.3-10.7 3-1.7-3.3 0.4-6.6-0.8-10-5.4-2.4-10.8-2.5-16.1-5.3 4.6-1.4 9.2-8.5 13.8-12.3-0.4-7.2-3.3-16.8 7.7-21.6-5-8-10.9-9.4-18-10.2 7.1-0.7 13-2.1 18-10.1-11-4.8-8.1-14.4-7.7-21.6-4.6-3.8-9.2-10.9-13.8-12.3 5.3-2.8 10.7-2.9 16.1-5.4 1.2-3.3-0.9-6.6 0.8-10 3.6-0.2 7.1 4.5 10.7 3.1-4.8-25.2 33.6-47.1 53.1-43.8-4.1-5.3-5-9.2-2.3-13.1 11.3-16.3 28.6 17.3 41.5 10.8 8-9 24-17.9 26.9-28.5-6.1-1.2-12.3 2.5-18.4 0 1.6-5.1 4.2-10.2 7.6-15.3-8.3-11 6.9-26.5 17.7-16.2q2.2-4.7 4.3-9.6 0.6-5.3 1.1-10.4c-14.5 3.5-20-17.5-7.3-22.8-0.4-6.2 0-11.9 1.1-17.2 6.5 1 10 7.3 16 9.2 2.7-10.6-6.7-26.3-9.1-38.1-8-12-39.7 8.5-41.4-11.4-0.3-4.7 2.4-7.6 8.6-10.2-18.6-6.8-40.9-45-24.1-64.4-2.4-3-7.8-0.8-10.8-2.8 0.2-3.7 3.7-5.5 4.3-9-3.4-4.8-8-7.6-11.3-12.7 4.7 1.1 12.2-2.7 18.2-3.8 3.2-6.4 5.5-16.1 17.4-14.8-0.3-9.4-4.7-13.6-10.5-17.8 6.5 2.9 12.3 4.6 20.7 0.2-7.1-9.6 0.1-16.5 4.1-22.5-2.1-5.6-2.6-14.1-5.9-17.6 6.1 0.3 10.8 2.9 16.7 3.4 2.7-2.2 2.5-6.2 5.7-8.2 3.2 1.5 4 7.4 7.8 8 8.4-24.3 52.6-24.1 67.8-11.4-0.8-6.7 0.3-10.5 4.6-12.5 18-8.5 16.1 29.2 30.5 30.1 11.4-3.8 29.7-3.5 37.6-11.2-4.7-4.2-11.9-4-16-9.2 4-3.6 8.8-6.8 14.3-9.5-1.7-13.7 19.2-19.5 23.4-5.1q4.2-3 8.5-6.2 3.2-4.3 6.2-8.5c-14.4-4.2-8.6-25.1 5.1-23.4 2.7-5.5 5.9-10.3 9.5-14.3 5.2 4.1 5 11.3 9.2 16 7.7-7.9 7.5-26.2 11.2-37.6-0.8-14.4-38.6-12.5-30.1-30.6 2-4.2 5.8-5.3 12.5-4.5-12.7-15.2-12.9-59.4 11.4-67.8-0.6-3.8-6.4-4.6-8-7.8 2-3.2 6-3 8.2-5.7-0.5-5.9-3.1-10.6-3.4-16.7 3.5 3.3 12 3.8 17.6 5.9 6-4 12.9-11.2 22.5-4.1 4.4-8.4 2.7-14.2-0.2-20.7 4.2 5.8 8.4 10.2 17.8 10.5-1.3-11.9 8.4-14.2 14.8-17.5 1.1-5.9 4.9-13.4 3.8-18.1 5.1 3.3 7.9 7.9 12.7 11.3 3.5-0.6 5.3-4.1 9-4.3 2.1 3-0.2 8.4 2.8 10.8 19.4-16.8 57.6 5.5 64.4 24.1 2.6-6.2 5.5-9 10.2-8.6 19.9 1.7-0.6 33.4 11.4 41.4 11.8 2.4 27.5 11.8 38.1 9.1-1.9-6-8.2-9.5-9.2-16 5.3-1.1 11-1.5 17.2-1.1 5.3-12.7 26.3-7.2 22.8 7.3q5.1-0.5 10.5-1.1 4.8-2.1 9.5-4.3c-10.3-10.8 5.2-26 16.2-17.7 5.1-3.4 10.2-6 15.4-7.7 2.4 6.2-1.3 12.3 0 18.5 10.5-2.9 19.5-18.9 28.4-26.9 6.5-12.9-27.1-30.2-10.8-41.5 3.9-2.7 7.8-1.8 13.1 2.3-3.3-19.6 18.6-57.9 43.8-53.1 1.4-3.6-3.3-7.2-3-10.7 3.3-1.7 6.6 0.4 10-0.8 2.4-5.4 2.5-10.8 5.3-16.2 1.4 4.7 8.5 9.3 12.3 13.9 7.2-0.4 16.8-3.3 21.6 7.7 8-5 9.4-10.9 10.2-18 0.7 7.1 2.1 13 10.1 18 4.8-11 14.4-8.1 21.6-7.7 3.8-4.6 10.9-9.2 12.3-13.9 2.8 5.4 2.9 10.8 5.3 16.2 3.4 1.2 6.7-0.9 10 0.8 0.3 3.5-4.4 7.1-3 10.7 25.2-4.8 47.1 33.5 43.8 53.1 5.3-4.1 9.2-5 13.1-2.3 16.3 11.3-17.3 28.6-10.8 41.5 8.9 8 17.9 24 28.4 26.9 1.3-6.2-2.4-12.3 0-18.5 5.2 1.7 10.3 4.3 15.4 7.7 11-8.3 26.5 6.9 16.2 17.7q4.7 2.2 9.5 4.3zm180.3 31.8c-3.9 2.6-8 5-12.2 7-34.9 16.3-71.2 13.6-99.1 4 0.5 4.8 4.2 3.9 5.4 7.6-4.7 0.3-8.4-0.8-12.7-1.1-5.2 8.6-23.3 11.9-25.4-2.2-1-4.2 2.9-5.5 4.6-8-5.3-10.8-18.4-3.4-30.3 0.2-0.5 10.1 0.8 21.2 1.9 32.2-4.5 2.3-23.2 20-31.3 21.9-2.6 0.6-4.2-0.1-5.9-0.9-1.9-0.2-3.6-0.4-5.6-2.2-6-5.7-13.5-30.4-16.1-34.6 6.4-9 13.1-18 17.7-26.9-8.5-9.1-16.2-22.1-26.2-15.4 0.2 3.1 3 6.2 0 9.2-8.9 11.2-22.8-0.6-23.1-10.7-3.8-1.9-7.6-2.8-11.5-5.4 2.8-2.7 5.6 0 8.5-3.9-29-5.7-61.8-21.4-83.8-53-2.7-3.9-5.1-8-7.1-12.2-2.1 4.2-4.5 8.3-7.2 12.2-22 31.6-54.8 47.3-83.8 53 2.9 3.9 5.7 1.2 8.5 3.9-3.9 2.6-7.7 3.5-11.5 5.4-0.2 10.1-14.2 21.9-23.1 10.7-3-3-0.2-6.1 0-9.2-10-6.7-17.7 6.3-26.1 15.4 4.5 8.9 11.2 17.9 17.6 26.9-2.6 4.2-10.1 28.9-16.1 34.6-2 1.8-3.7 2-5.6 2.2-1.7 0.8-3.3 1.5-5.9 0.9-8.1-1.9-26.8-19.6-31.3-21.9 1.1-11 2.4-22.1 1.9-32.2-11.9-3.6-25-11-30.3-0.2 1.7 2.5 5.7 3.8 4.6 8-2.1 14.1-20.2 10.8-25.4 2.2-4.3 0.3-8 1.4-12.7 1.1 1.2-3.7 4.9-2.8 5.4-7.6-27.9 9.6-64.2 12.3-99.1-4-4.2-2-8.3-4.4-12.2-7 0.3 4.7 0.3 9.4-0.1 14.1-3.2 38.3-23.8 68.4-46 87.8 4.3 2 5.4-1.7 9.2-0.9-2 4.2-4.9 6.9-7.3 10.5 4.9 8.8-1.3 26.1-14.6 20.8-4.1-1.1-3.2-5.2-4.6-8-12-0.8-12.1 14.4-14.9 26.4 8.4 5.5 18.6 9.9 28.7 14.5-0.2 5 5.7 30.1 3.3 38-0.7 2.6-2.1 3.6-3.7 4.7-1.1 1.5-2.1 3-4.7 3.7-7.9 2.4-33-3.5-38-3.3-4.5-10.1-9-20.3-14.5-28.8-12 2.9-27.1 3-26.4 15 2.8 1.3 6.9 0.5 8 4.6 5.3 13.3-12 19.5-20.8 14.6-3.6 2.4-6.3 5.3-10.4 7.3-0.9-3.8 2.8-4.9 0.9-9.2-19.5 22.2-49.5 42.7-87.9 46-4.7 0.4-9.4 0.4-14.1 0.1 2.6 3.9 5 8 7 12.2 16.3 34.9 13.6 71.2 4 99.1 4.8-0.5 3.9-4.3 7.6-5.4 0.3 4.7-0.8 8.4-1.1 12.7 8.6 5.2 11.9 23.3-2.2 25.4-4.2 1-5.5-2.9-8-4.7-10.8 5.3-3.4 18.5 0.2 30.4 10.1 0.5 21.2-0.8 32.2-1.9 2.3 4.5 20 23.2 21.9 31.3 0.6 2.6-0.1 4.2-0.9 5.9-0.2 1.9-0.4 3.6-2.2 5.6-5.7 6-30.3 13.4-34.6 16.1-9-6.4-17.9-13.1-26.9-17.7-9 8.5-22.1 16.2-15.4 26.2 3.1-0.2 6.2-3 9.2 0 11.2 8.9-0.6 22.8-10.7 23-1.9 3.9-2.8 7.7-5.4 11.6-2.7-2.8 0-5.7-3.9-8.5-5.7 29-21.4 61.8-53 83.8-3.9 2.7-8 5.1-12.1 7.1 4.1 2.1 8.2 4.5 12.1 7.2 31.6 22 47.3 54.7 53 83.8 3.9-2.9 1.2-5.7 3.9-8.5 2.6 3.8 3.5 7.7 5.4 11.5 10.1 0.2 21.9 14.2 10.7 23.1-3 3-6.1 0.2-9.2 0-6.7 10 6.4 17.7 15.4 26.1 9-4.5 17.9-11.2 26.9-17.6 4.3 2.6 28.9 10.1 34.6 16.1 1.8 2 2 3.7 2.2 5.6 0.8 1.7 1.5 3.3 0.9 5.9-1.9 8.1-19.6 26.8-21.9 31.3-11-1.1-22.1-2.4-32.2-1.9-3.6 11.9-11 25-0.2 30.3 2.5-1.7 3.8-5.7 8-4.6 14.1 2.1 10.8 20.1 2.2 25.4 0.3 4.3 1.4 8 1.1 12.7-3.7-1.2-2.8-4.9-7.6-5.4 9.6 27.9 12.3 64.2-4 99.1-2 4.2-4.4 8.3-7 12.2 4.7-0.3 9.4-0.3 14.1 0.1 38.4 3.2 68.4 23.8 87.9 46 1.9-4.4-1.8-5.4-0.9-9.2 4.1 2 6.8 4.9 10.4 7.3 8.8-4.9 26.1 1.3 20.8 14.6-1.1 4.1-5.2 3.2-8 4.6-0.7 12 14.4 12.1 26.4 14.9 5.5-8.4 10-18.7 14.5-28.7 5 0.2 30.1-5.7 38-3.3 2.6 0.7 3.6 2.1 4.7 3.7 1.6 1.1 3 2.1 3.7 4.7 2.4 7.9-3.5 33-3.3 38-10.1 4.5-20.3 9-28.7 14.5 2.8 12 2.9 27.1 14.9 26.3 1.4-2.7 0.5-6.8 4.6-7.9 13.3-5.3 19.5 12 14.6 20.8 2.4 3.6 5.3 6.3 7.3 10.4-3.8 0.9-4.9-2.8-9.2-0.9 22.2 19.5 42.8 49.5 46 87.9 0.4 4.7 0.4 9.4 0.1 14.1 3.9-2.6 8-5 12.2-7 34.9-16.4 71.2-13.6 99.1-4-0.5-4.8-4.2-3.9-5.4-7.6 4.7-0.3 8.4 0.8 12.7 1.1 5.2-8.6 23.3-11.9 25.4 2.2 1.1 4.2-2.9 5.5-4.6 8 5.3 10.8 18.4 3.3 30.3-0.2 0.5-10.1-0.8-21.2-1.9-32.2 4.5-2.3 23.2-20 31.3-21.9 2.6-0.6 4.2 0.1 5.9 0.9 1.9 0.2 3.6 0.4 5.6 2.2 6 5.7 13.5 30.3 16.1 34.6-6.4 9-13.1 17.9-17.6 26.9 8.4 9 16.1 22.1 26.1 15.4-0.2-3.1-3-6.2 0-9.2 8.9-11.2 22.9 0.6 23.1 10.7 3.8 1.9 7.6 2.8 11.5 5.4-2.8 2.6-5.6 0-8.5 3.8 29 5.7 61.8 21.5 83.8 53.1 2.7 3.9 5.1 8 7.2 12.1 2-4.2 4.4-8.2 7.1-12.1 22-31.6 54.8-47.4 83.8-53.1-2.8-3.8-5.7-1.2-8.5-3.8 3.9-2.6 7.7-3.5 11.5-5.4 0.3-10.1 14.2-21.9 23.1-10.7 3 3 0.2 6.1 0 9.2 10 6.7 17.7-6.4 26.2-15.4-4.6-9-11.3-17.9-17.7-26.9 2.6-4.3 10.1-28.9 16.1-34.6 2-1.8 3.7-2 5.6-2.2 1.7-0.8 3.3-1.5 5.9-0.9 8.1 1.9 26.8 19.6 31.3 21.9-1.1 11-2.4 22.1-1.9 32.2 11.9 3.5 25 11 30.3 0.2-1.7-2.5-5.6-3.8-4.6-8 2.1-14.1 20.2-10.8 25.4-2.2 4.3-0.3 8-1.4 12.7-1.1-1.2 3.7-4.9 2.8-5.4 7.6 27.9-9.6 64.2-12.4 99.1 4 4.2 2 8.3 4.4 12.2 7-0.3-4.7-0.3-9.4 0.1-14.1 3.2-38.4 23.8-68.4 46-87.9-4.3-1.9-5.4 1.8-9.2 0.9 2-4.1 4.9-6.8 7.3-10.4-4.9-8.8 1.3-26.1 14.6-20.8 4.1 1.1 3.2 5.2 4.6 7.9 12 0.8 12.1-14.3 14.9-26.3-8.4-5.5-18.6-10-28.7-14.5 0.2-5-5.7-30.1-3.3-38 0.7-2.6 2.2-3.6 3.7-4.7 1.1-1.6 2.1-3 4.7-3.7 7.9-2.4 33 3.5 38 3.3 4.5 10 9 20.3 14.5 28.7 12-2.8 27.2-2.9 26.4-14.9-2.8-1.4-6.9-0.5-8-4.6-5.3-13.3 12-19.5 20.8-14.6 3.6-2.4 6.3-5.3 10.4-7.3 0.9 3.8-2.8 4.8-0.9 9.2 19.5-22.2 49.5-42.8 87.9-46 4.7-0.4 9.4-0.4 14.1-0.1-2.6-3.9-5-8-7-12.2-16.3-34.9-13.6-71.2-4-99.1-4.8 0.5-3.9 4.2-7.6 5.4-0.3-4.7 0.8-8.4 1.1-12.7-8.6-5.3-11.9-23.3 2.2-25.4 4.2-1.1 5.5 2.9 8 4.6 10.8-5.3 3.4-18.4-0.2-30.3-10.1-0.5-21.2 0.8-32.2 1.9-2.3-4.5-20-23.2-21.9-31.3-0.6-2.6 0.1-4.2 0.9-5.9 0.2-1.9 0.4-3.6 2.2-5.6 5.7-6 30.3-13.5 34.6-16.1 9 6.4 17.9 13.1 26.9 17.6 9-8.4 22.1-16.1 15.4-26.1-3.1 0.2-6.2 3-9.2 0-11.2-8.9 0.6-22.9 10.7-23.1 1.9-3.8 2.8-7.7 5.4-11.5 2.7 2.8 0 5.6 3.9 8.5 5.7-29.1 21.4-61.9 53-83.8 3.9-2.7 8-5.1 12.1-7.2-4.1-2-8.2-4.4-12.1-7.1-31.6-22-47.3-54.8-53-83.8-3.9 2.8-1.2 5.7-3.9 8.5-2.6-3.9-3.5-7.7-5.4-11.6-10.1-0.2-21.9-14.1-10.7-23 3-3 6.1-0.2 9.2 0 6.7-10-6.4-17.7-15.4-26.2-9 4.6-17.9 11.3-26.9 17.7-4.3-2.7-28.9-10.1-34.6-16.1-1.8-2-2-3.7-2.2-5.6-0.8-1.7-1.5-3.3-0.9-5.9 1.9-8.1 19.6-26.8 21.9-31.3 11 1.1 22.1 2.4 32.2 1.9 3.6-11.9 11-25.1 0.2-30.4-2.5 1.8-3.8 5.7-8 4.7-14.1-2.1-10.8-20.2-2.2-25.4-0.3-4.3-1.4-8-1.1-12.7 3.7 1.1 2.8 4.9 7.6 5.4-9.6-27.9-12.3-64.2 4-99.1 2-4.2 4.4-8.3 7-12.2-4.7 0.3-9.4 0.3-14.1-0.1-38.4-3.3-68.4-23.8-87.9-46-1.9 4.3 1.8 5.4 0.9 9.2-4.1-2-6.8-4.9-10.4-7.3-8.8 4.9-26.1-1.3-20.8-14.6 1.1-4.1 5.2-3.3 8-4.6 0.8-12-14.4-12.1-26.4-15-5.5 8.5-10 18.7-14.5 28.8-5-0.2-30.1 5.7-38 3.3-2.6-0.7-3.6-2.2-4.7-3.7-1.5-1.1-3-2.1-3.7-4.7-2.4-7.9 3.5-33 3.3-38 10.1-4.6 20.3-9 28.7-14.5-2.8-12-2.9-27.2-14.9-26.4-1.4 2.8-0.5 6.9-4.6 8-13.3 5.3-19.5-12-14.6-20.8-2.4-3.6-5.3-6.3-7.3-10.5 3.8-0.8 4.9 2.9 9.2 0.9-22.2-19.4-42.8-49.5-46-87.8-0.4-4.7-0.4-9.4-0.1-14.1zm431 610.1c-8.1-8.1-16.3-16.2-24.7-24-4.6-4.3-14.9-17.9-20-9.2 8.4 9.8 19.9 21.3 32.3 33.2-12.4 12-23.9 23.5-32.3 33.3 5.1 8.7 15.4-5 20-9.2 8.4-7.8 16.6-15.9 24.7-24.1zm-104.9 391.7c-3-11.2-6-22.3-9.4-33.2-1.9-6-3.9-23-12.7-18 2.4 12.7 6.6 28.4 11.3 44.9-16.7 4.2-32.4 8.4-44.6 12.7 0.1 10.1 15.8 3.4 21.9 2 11.2-2.5 22.4-5.5 33.5-8.4zm-286.7 286.6c3-11.1 5.9-22.2 8.4-33.4 1.4-6.1 8.1-21.8-2-21.9-4.3 12.2-8.4 27.8-12.6 44.5-16.6-4.7-32.3-8.9-45-11.3-4.9 8.8 12 10.8 18 12.7 10.9 3.4 22.1 6.5 33.2 9.4zm-391.6 105c8.1-8.2 16.2-16.4 24-24.8 4.3-4.6 17.9-14.8 9.2-20-9.8 8.5-21.2 19.9-33.2 32.3-12-12.4-23.5-23.8-33.3-32.3-8.7 5.2 5 15.4 9.3 20 7.7 8.4 15.9 16.6 24 24.8zm-391.6-105c11.1-2.9 22.2-6 33.1-9.4 6-1.9 23-3.9 18-12.7-12.7 2.4-28.4 6.6-44.9 11.3-4.2-16.7-8.4-32.3-12.7-44.5-10.1 0.1-3.3 15.8-2 21.9 2.6 11.2 5.5 22.3 8.5 33.4zm-286.7-286.6c11.1 2.9 22.3 5.9 33.4 8.4 6.1 1.4 21.8 8.1 22-2-12.3-4.3-27.9-8.5-44.6-12.7 4.7-16.5 8.9-32.2 11.3-44.9-8.8-5-10.8 12-12.7 18-3.4 10.9-6.4 22-9.4 33.2zm-105-391.7c8.2 8.2 16.4 16.3 24.8 24.1 4.6 4.2 14.8 17.9 20 9.2-8.5-9.8-19.9-21.3-32.3-33.3 12.4-11.9 23.8-23.4 32.3-33.2-5.2-8.7-15.4 4.9-20 9.2-8.4 7.8-16.6 15.9-24.8 24zm105-391.6c3 11.1 6 22.3 9.4 33.2 1.9 6 3.9 22.9 12.7 18-2.4-12.7-6.6-28.4-11.3-45 16.7-4.1 32.3-8.3 44.6-12.6-0.2-10.1-15.9-3.4-22-2-11.1 2.5-22.3 5.4-33.4 8.4zm286.7-286.7c-3 11.1-5.9 22.3-8.5 33.5-1.3 6.1-8.1 21.8 2 21.9 4.3-12.2 8.5-27.9 12.7-44.6 16.5 4.7 32.2 8.9 44.9 11.3 5-8.8-12-10.8-18-12.6-10.9-3.5-22-6.5-33.1-9.5zm391.6-104.9c-8.1 8.1-16.3 16.3-24 24.8-4.3 4.6-18 14.8-9.3 19.9 9.8-8.4 21.3-19.9 33.3-32.2 12 12.3 23.4 23.8 33.2 32.2 8.7-5.1-4.9-15.3-9.2-19.9-7.8-8.5-15.9-16.7-24-24.8zm359.4 92.7c1.1-4.1 0.8-9-0.5-14.5-6.1 1.8-5.4 7.6-9.6 10.5-0.8-3.3-2.4-5.1-4.9-5.5-0.1 12 3.9 17.7 7.9 29.4 5.6-4.5 8.9-23.5 19.3-11.9-3.9 0.8-4.4-0.4-7.3 2q0.7 2.6 1.4 5.2c19.3 1.3 5-24.2-6.3-15.2zm-393.4-87.2c-1.1-4.1-3.8-8.2-7.7-12.3-4.4 4.6-0.9 9.3-3.1 13.9-2.3-2.4-4.6-3.2-6.9-2.3 5.9 10.4 12.2 13.4 21.5 21.5 2.6-6.7-4.1-24.8 10.8-20-3 2.6-4 1.9-5.4 5.4l3.8 3.8c17.5-8.5-7.7-23.4-13-10zm-384.3 121.2c-3-3-7.4-5.2-12.8-6.8-1.5 6.2 3.8 8.5 4.2 13.5-3.2-0.9-5.6-0.4-7.1 1.5 10.3 6.1 17.2 5.5 29.4 7.9-1.1-7.1-16-19.5-0.7-22.7-1.3 3.8-2.5 3.6-2 7.3q2.7 0.7 5.3 1.5c10.8-16.2-18.4-16.4-16.3-2.2zm-272.2 297.1c-4.1-1.1-9-0.8-14.5 0.5 1.8 6.1 7.5 5.4 10.4 9.6-3.2 0.8-5.1 2.4-5.4 4.9 11.9 0.1 17.7-3.9 29.4-7.9-4.6-5.6-23.6-8.9-12-19.3 0.8 3.9-0.3 4.4 2 7.3q2.6-0.7 5.3-1.4c1.3-19.3-24.2-4.9-15.2 6.3zm-87.2 393.4c-4.1 1.1-8.2 3.8-12.3 7.7 4.6 4.4 9.2 0.9 13.8 3.1-2.4 2.3-3.2 4.6-2.3 6.9 10.4-5.9 13.4-12.2 21.5-21.5-6.7-2.6-24.8 4.1-20-10.8 2.7 3 1.9 4 5.4 5.4l3.9-3.8c-8.6-17.4-23.4 7.8-10 13zm121.2 384.3c-3 3-5.2 7.4-6.8 12.8 6.2 1.5 8.4-3.8 13.5-4.2-0.9 3.2-0.5 5.6 1.5 7.1 6-10.3 5.4-17.2 7.8-29.4-7 1.2-19.4 16-22.7 0.7 3.8 1.3 3.7 2.5 7.4 2q0.7-2.7 1.4-5.3c-16.1-10.8-16.4 18.5-2.1 16.3zm297.1 272.2c-1.1 4.1-0.9 9 0.5 14.5 6.1-1.8 5.4-7.5 9.6-10.4 0.8 3.2 2.4 5.1 4.8 5.5 0.1-12-3.9-17.7-7.9-29.5-5.5 4.6-8.8 23.6-19.3 12 3.9-0.8 4.4 0.3 7.4-2q-0.7-2.6-1.4-5.2c-19.4-1.4-5 24.1 6.3 15.1zm393.4 87.2c1.1 4.1 3.8 8.2 7.7 12.3 4.4-4.6 0.9-9.2 3.1-13.8 2.3 2.4 4.6 3.2 6.9 2.3-5.9-10.4-12.2-13.4-21.5-21.5-2.6 6.7 4 24.8-10.8 20 3-2.7 4-1.9 5.4-5.4l-3.9-3.9c-17.4 8.6 7.8 23.4 13.1 10zm384.3-121.2c3 3 7.3 5.3 12.8 6.8 1.5-6.1-3.8-8.4-4.3-13.5 3.2 0.9 5.6 0.5 7.2-1.4-10.4-6.1-17.3-5.5-29.4-7.9 1.1 7.1 15.9 19.4 0.7 22.7 1.2-3.8 2.5-3.7 1.9-7.4q-2.6-0.7-5.2-1.4c-10.9 16.1 18.4 16.4 16.3 2.1zm272.2-297.1c4.1 1.1 9 0.9 14.5-0.5-1.8-6.1-7.6-5.4-10.5-9.6 3.3-0.8 5.1-2.4 5.5-4.8-12-0.1-17.7 3.9-29.4 7.9 4.5 5.5 23.5 8.8 11.9 19.3-0.8-3.9 0.4-4.4-1.9-7.4q-2.7 0.7-5.3 1.4c-1.3 19.4 24.2 5 15.2-6.3zm87.2-393.4c4.1-1.1 8.2-3.7 12.3-7.7-4.6-4.4-9.2-0.9-13.9-3.1 2.4-2.3 3.3-4.6 2.3-6.9-10.4 5.9-13.3 12.2-21.5 21.6 6.7 2.5 24.8-4.1 20 10.7-2.6-3-1.9-4-5.4-5.4l-3.8 3.9c8.5 17.4 23.4-7.8 10-13.1zm-121.2-384.3c3-3 5.2-7.3 6.8-12.8-6.2-1.5-8.4 3.9-13.5 4.3 0.9-3.2 0.4-5.6-1.5-7.2-6.1 10.4-5.5 17.3-7.9 29.4 7.1-1.1 19.5-15.9 22.7-0.6-3.8-1.3-3.6-2.6-7.3-2q-0.7 2.6-1.4 5.2c16.1 10.9 16.3-18.4 2.1-16.3zm-254.5-236q2.6-0.7 5.2-1.4c0.6-3.8-0.7-3.6-1.9-7.4 15.2 3.2 0.4 15.6-0.7 22.7 12.1-2.4 19.1-1.8 29.4-7.9-1.5-1.9-4-2.4-7.2-1.4 0.5-5.1 5.8-7.4 4.3-13.6-5.5 1.6-9.8 3.8-12.8 6.8 2.1-14.2-27.1-13.9-16.3 2.2zm-381.1-113.4l3.9-3.8c-1.4-3.5-2.4-2.8-5.4-5.4 14.8-4.8 8.2 13.3 10.8 20 9.3-8.1 15.6-11.1 21.5-21.5-2.3-0.9-4.6-0.1-6.9 2.3-2.2-4.6 1.3-9.3-3.1-13.9-3.9 4.1-6.6 8.2-7.7 12.3-5.3-13.4-30.5 1.5-13.1 10zm-386.6 92.4q0.7-2.6 1.4-5.2c-3-2.4-3.5-1.2-7.4-2 10.5-11.6 13.8 7.4 19.3 11.9 4-11.7 8-17.4 7.9-29.4-2.4 0.4-4 2.2-4.8 5.5-4.2-2.9-3.5-8.7-9.6-10.5-1.4 5.5-1.6 10.4-0.5 14.5-11.3-8.9-25.7 16.5-6.3 15.2zm-288.7 273.3q-0.7-2.6-1.4-5.2c-3.7-0.6-3.6 0.7-7.4 2 3.3-15.3 15.7-0.5 22.7 0.6-2.4-12.1-1.8-19-7.8-29.4-2 1.6-2.4 4-1.5 7.2-5.1-0.4-7.3-5.8-13.5-4.3 1.6 5.5 3.8 9.8 6.8 12.8-14.3-2.1-14 27.2 2.1 16.3zm-113.3 381.1l-3.9-3.9c-3.5 1.4-2.7 2.4-5.4 5.4-4.8-14.8 13.3-8.2 20-10.7-8.1-9.3-11.1-15.7-21.5-21.6-0.9 2.3-0.1 4.6 2.3 7-4.6 2.1-9.2-1.3-13.8 3 4.1 4 8.2 6.6 12.3 7.7-13.4 5.3 1.4 30.5 10 13.1zm92.3 386.6q-2.6-0.7-5.2-1.4c-2.3 3-1.2 3.5-2 7.4-11.6-10.5 7.4-13.8 12-19.3-11.7-4-17.5-8-29.5-7.9 0.4 2.4 2.3 4 5.5 4.8-2.9 4.2-8.6 3.5-10.4 9.6 5.5 1.4 10.4 1.6 14.5 0.5-9 11.3 16.5 25.7 15.1 6.3zm273.4 288.7q-2.7 0.7-5.3 1.4c-0.5 3.7 0.7 3.6 2 7.4-15.3-3.3-0.5-15.6 0.7-22.7-12.2 2.4-19.1 1.8-29.4 7.9 1.5 1.9 3.9 2.3 7.1 1.4-0.4 5.1-5.7 7.4-4.3 13.5 5.5-1.5 9.9-3.8 12.9-6.8-2.2 14.3 27.1 14 16.3-2.1zm381 113.3l-3.8 3.9c1.4 3.5 2.4 2.7 5.4 5.4-14.9 4.8-8.2-13.3-10.8-20-9.3 8.1-15.6 11.1-21.5 21.5 2.3 0.9 4.6 0.1 6.9-2.3 2.2 4.6-1.3 9.2 3.1 13.8 3.9-4.1 6.6-8.2 7.7-12.3 5.2 13.4 30.5-1.4 13-10zm386.7-92.3q-0.7 2.6-1.4 5.2c2.9 2.4 3.4 1.2 7.3 2-10.4 11.6-13.7-7.4-19.3-11.9-4 11.7-8 17.4-7.9 29.4 2.5-0.4 4.1-2.3 4.9-5.5 4.2 2.9 3.5 8.7 9.6 10.5 1.3-5.6 1.6-10.4 0.5-14.5 11.3 8.9 25.6-16.6 6.3-15.2zm288.7-273.4q0.7 2.7 1.4 5.3c3.7 0.5 3.5-0.7 7.3-2-3.2 15.3-15.6 0.5-22.7-0.7 2.4 12.2 1.8 19.1 7.9 29.5 1.9-1.6 2.4-4 1.5-7.2 5.1 0.4 7.3 5.7 13.5 4.3-1.6-5.5-3.8-9.9-6.8-12.8 14.2 2.1 14-27.2-2.1-16.4zm113.3-381l3.8 3.8c3.5-1.3 2.8-2.4 5.4-5.3 4.8 14.8-13.3 8.1-20 10.7 8.2 9.3 11.1 15.6 21.6 21.5 0.9-2.3 0-4.6-2.4-6.9 4.7-2.2 9.3 1.3 13.9-3.1-4.1-3.9-8.2-6.6-12.3-7.6 13.4-5.3-1.5-30.5-10-13.1zm-92.4-386.7q2.6 0.7 5.3 1.4c2.3-2.9 1.1-3.4 1.9-7.3 11.6 10.4-7.4 13.7-11.9 19.3 11.7 4 17.4 8 29.4 7.9-0.4-2.5-2.2-4.1-5.5-4.9 2.9-4.2 8.7-3.4 10.5-9.5-5.5-1.4-10.4-1.7-14.5-0.5 9-11.3-16.5-25.7-15.2-6.4zm-283.7-312.6c-11.1 3-22.3 6-33.2 9.5-6 1.8-22.9 3.8-18 12.6 12.8-2.4 28.4-6.6 45-11.3 4.2 16.7 8.3 32.4 12.6 44.6 10.1-0.1 3.4-15.8 2-21.9-2.5-11.2-5.4-22.4-8.4-33.5zm-404.9-69.4c3.8-3.4 5.5-8.6 6.9-2.3 3.9-3.8 2.8-7.7 2.3-11.5-2.9 4.6-13.4 9.2-9.2 13.8zm-372.1 106.8c1.6-4.9 0.4-10.2 4.9-5.4 1.4-5.3-1.5-8.1-3.8-11.2-0.2 5.5-7 14.7-1.1 16.6zm-268.8 278.6c-1.1-5.1-4.8-9.1 1.5-7.2-1.4-5.2-5.3-6.2-8.9-7.7 2.6 4.8 1.3 16.2 7.4 14.9zm-93.5 375.6c-3.5-3.8-8.7-5.4-2.4-6.9-3.8-3.9-7.6-2.8-11.5-2.3 4.6 2.9 9.2 13.4 13.9 9.2zm106.8 372.1c-4.9-1.6-10.3-0.4-5.5-4.8-5.3-1.5-8 1.4-11.1 3.7 5.4 0.2 14.7 7 16.6 1.1zm278.5 268.8c-5 1.1-9.1 4.8-7.1-1.4-5.3 1.4-6.3 5.2-7.8 8.8 4.8-2.6 16.2-1.3 14.9-7.4zm375.6 93.6c-3.8 3.4-5.4 8.6-6.9 2.3-3.8 3.8-2.8 7.7-2.3 11.5 2.9-4.6 13.4-9.2 9.2-13.8zm372.1-106.8c-1.6 4.9-0.4 10.2-4.8 5.4-1.4 5.3 1.4 8.1 3.8 11.2 0.1-5.5 7-14.7 1-16.6zm268.9-278.6c1 5.1 4.7 9.1-1.5 7.2 1.4 5.2 5.3 6.2 8.8 7.7-2.5-4.8-1.3-16.2-7.3-14.9zm93.5-375.6c3.4 3.8 8.7 5.4 2.3 6.9 3.8 3.9 7.7 2.8 11.5 2.3-4.6-2.9-9.2-13.4-13.8-9.2zm-69.4-378.4c-11.1-3-22.3-5.9-33.5-8.4-6.1-1.4-21.8-8.1-21.9 2 12.2 4.3 27.9 8.5 44.6 12.6-4.7 16.6-8.9 32.3-11.3 45 8.8 4.9 10.8-12 12.7-18 3.4-10.9 6.4-22.1 9.4-33.2zm-294.1-265.9c-2.3 3.1-5.1 5.9-3.7 11.2 4.4-4.8 3.2 0.5 4.8 5.4 6-1.9-0.9-11.1-1.1-16.6zm-380.2-104c-0.5 3.8-1.5 7.7 2.3 11.5 1.5-6.3 3.1-1.1 6.9 2.3 4.2-4.6-6.3-9.2-9.2-13.8zm-381.3 100c1.5 3.6 2.5 7.4 7.8 8.8-2-6.2 2.1-2.5 7.1-1.4 1.3-6.1-10.1-4.8-14.9-7.4zm-280.2 277.3c3 2.3 5.8 5.2 11.1 3.7-4.8-4.4 0.6-3.2 5.5-4.8-1.9-5.9-11.2 0.9-16.6 1.1zm-104.1 380.2c3.9 0.5 7.7 1.6 11.5-2.3-6.3-1.5-1.1-3.1 2.3-6.9-4.6-4.2-9.2 6.3-13.8 9.2zm100 381.3c3.6-1.5 7.5-2.5 8.9-7.7-6.3 1.9-2.6-2.1-1.5-7.2-6.1-1.3-4.8 10.1-7.4 14.9zm277.3 280.3c2.3-3.1 5.2-5.9 3.8-11.2-4.5 4.8-3.3-0.5-4.9-5.4-5.9 1.9 0.9 11.1 1.1 16.6zm380.2 104c0.5-3.8 1.6-7.7-2.3-11.5-1.4 6.3-3.1 1.1-6.9-2.3-4.2 4.6 6.3 9.2 9.2 13.8zm381.3-100c-1.5-3.6-2.5-7.4-7.7-8.8 1.9 6.2-2.1 2.5-7.2 1.4-1.3 6.1 10.1 4.8 14.9 7.4zm280.3-277.3c-3.1-2.3-5.9-5.2-11.2-3.7 4.8 4.4-0.5 3.2-5.4 4.8 1.9 5.9 11.1-0.9 16.6-1.1zm104-380.2c-3.8-0.5-7.7-1.6-11.5 2.3 6.3 1.5 1.1 3.1-2.3 6.9 4.6 4.2 9.2-6.3 13.8-9.2zm-100-381.3c-3.6 1.5-7.4 2.5-8.8 7.7 6.2-1.9 2.5 2.1 1.4 7.2 6.1 1.3 4.9-10.1 7.4-14.9zm-282.4-279.4c-18.2 20.7-34.6 45.2-68.4 53.5 13-8 30.4-13.9 39.4-25.2 5.3-6.7 9.1-19.6 6.4-26.5-4.4 2.7-0.3 10.5-4.2 13.5-1.4-4.9 1.6-7.3 0-12.4-6.5 6.1-4.3 14.4-8.9 21.5-8.5 13.4-26.8 24.8-48.8 27.7-25.6 3.5-50.2-8.9-71.4-10.1 0.6 4.1 11.5 3.6 13.1 11.1 35 14.9 85.6 8.6 120.8-15.5q0.2-0.1 0.4-0.2 0 0.2-0.1 0.4c-3.2 42.6 16.6 89.6 47 112.4 7.4-2.4 12.3 7.3 16.2 5.8-11.6-17.8-34.6-32.9-44.5-56.8-8.4-20.5-7.7-42.1-0.4-56.1 3.9-7.5 12.3-9.8 14.2-18.5-5.2 1.2-5.7 5-10.7 6.3 0.7-5 9.4-5.3 9.6-10.5-7.3 1.1-16.6 10.9-19.7 18.8-5.3 13.5-1.8 31.6-2.1 46.7-9.8-33.4 3.3-59.8 12.1-85.9zm-379.1-101.6c-5.5 27-7.4 56.4-32.5 80.5 7.2-13.3 19.4-27.2 21.5-41.5 1.3-8.4-1.9-21.5-7.7-26.2-2.4 4.6 5 9.3 3.1 13.9-3.7-3.6-2.2-7.2-6.2-10.8-2.6 8.5 3.5 14.7 3.1 23.1-0.7 15.8-10.9 34.9-28.4 48.4-20.5 15.8-48 17.3-66.9 26.9 2.6 3.3 11.8-2.7 16.9 3.1 37.7-4.6 78.4-35.3 96.9-73.8q0.1-0.2 0.2-0.4 0.1 0.2 0.2 0.4c18.4 38.5 59.1 69.2 96.8 73.8 5.2-5.8 14.4 0.2 16.9-3.1-18.9-9.6-46.4-11.1-66.8-26.9-17.6-13.5-27.8-32.6-28.5-48.4-0.4-8.4 5.7-14.6 3.1-23.1-4 3.6-2.5 7.2-6.2 10.8-1.9-4.6 5.6-9.3 3.1-13.9-5.8 4.7-8.9 17.8-7.7 26.2 2.2 14.3 14.3 28.2 21.5 41.5-25.1-24.1-27-53.5-32.4-80.5zm-379.2 101.6c8.8 26.1 21.9 52.5 12.2 85.9-0.4-15.1 3.1-33.2-2.2-46.7-3.1-7.9-12.3-17.7-19.7-18.8 0.2 5.2 8.9 5.5 9.6 10.5-5-1.3-5.5-5.1-10.7-6.3 2 8.7 10.3 11 14.2 18.5 7.3 14 8 35.6-0.4 56.1-9.8 23.9-32.9 39-44.5 56.8 3.9 1.5 8.9-8.2 16.2-5.8 30.4-22.8 50.2-69.8 47-112.4q0-0.2-0.1-0.4 0.2 0.1 0.4 0.2c35.3 24.1 85.8 30.4 120.8 15.5 1.6-7.5 12.5-7 13.1-11.1-21.2 1.2-45.8 13.6-71.4 10.1-21.9-2.9-40.3-14.3-48.8-27.7-4.6-7.1-2.3-15.4-8.9-21.5-1.6 5.1 1.4 7.5 0.1 12.4-4-3 0.1-10.8-4.3-13.5-2.7 6.9 1.1 19.8 6.4 26.5 9 11.3 26.5 17.2 39.4 25.2-33.8-8.3-50.1-32.8-68.4-53.5zm-277.5 277.5c20.7 18.2 45.2 34.6 53.5 68.4-7.9-13-13.9-30.4-25.2-39.4-6.7-5.3-19.6-9.1-26.5-6.4 2.8 4.4 10.5 0.3 13.5 4.2-4.9 1.4-7.3-1.6-12.4 0 6.1 6.5 14.5 4.3 21.5 8.9 13.4 8.5 24.8 26.8 27.8 48.8 3.4 25.6-9 50.2-10.2 71.4 4.2-0.6 3.6-11.5 11.1-13.1 15-35 8.7-85.6-15.4-120.8q-0.2-0.2-0.3-0.4 0.2 0 0.4 0.1c42.6 3.2 89.6-16.6 112.4-47-2.4-7.4 7.4-12.3 5.8-16.2-17.8 11.6-32.9 34.6-56.7 44.4-20.5 8.5-42.1 7.8-56.2 0.5-7.5-3.9-9.8-12.3-18.5-14.2 1.2 5.2 5 5.7 6.3 10.7-5-0.7-5.2-9.4-10.5-9.6 1.2 7.3 10.9 16.6 18.8 19.7 13.5 5.3 31.6 1.8 46.8 2.1-33.4 9.8-59.9-3.3-86-12.1zm-101.6 379.1c27 5.5 56.4 7.4 80.5 32.5-13.3-7.2-27.2-19.4-41.5-21.5-8.4-1.3-21.5 1.9-26.2 7.7 4.7 2.4 9.3-5 13.9-3.1-3.6 3.7-7.2 2.2-10.8 6.2 8.6 2.6 14.7-3.5 23.1-3.1 15.8 0.7 34.9 10.9 48.4 28.4 15.8 20.5 17.4 48 26.9 66.9 3.3-2.6-2.6-11.8 3.1-16.9-4.6-37.7-35.3-78.4-73.8-96.9q-0.2-0.1-0.4-0.2 0.2-0.1 0.4-0.2c38.5-18.4 69.2-59.1 73.8-96.8-5.7-5.2 0.2-14.4-3.1-16.9-9.5 18.9-11.1 46.4-26.9 66.8-13.5 17.6-32.6 27.8-48.4 28.5-8.4 0.4-14.5-5.7-23.1-3.1 3.6 4 7.2 2.5 10.8 6.2-4.6 1.9-9.2-5.6-13.9-3.1 4.7 5.8 17.8 8.9 26.2 7.7 14.3-2.2 28.2-14.3 41.5-21.5-24.1 25.1-53.5 27-80.5 32.4zm101.6 379.2c26.1-8.8 52.6-21.9 86-12.2-15.2 0.4-33.3-3.1-46.8 2.2-7.9 3.1-17.6 12.3-18.8 19.7 5.3-0.2 5.5-8.9 10.5-9.6-1.3 5-5.1 5.5-6.3 10.7 8.8-2 11-10.3 18.5-14.2 14.1-7.3 35.7-8 56.2 0.4 23.8 9.8 38.9 32.9 56.7 44.5 1.6-3.9-8.2-8.9-5.8-16.2-22.8-30.4-69.8-50.2-112.4-47q-0.2 0-0.4 0.1 0.1-0.2 0.3-0.4c24.1-35.3 30.4-85.8 15.4-120.8-7.5-1.6-6.9-12.5-11.1-13.1 1.2 21.2 13.6 45.8 10.2 71.4-3 21.9-14.4 40.3-27.8 48.8-7 4.6-15.4 2.3-21.5 8.9 5.1 1.6 7.5-1.4 12.4-0.1-3 4-10.7-0.1-13.5 4.3 6.9 2.7 19.8-1.1 26.5-6.4 11.3-9 17.3-26.5 25.2-39.4-8.3 33.8-32.8 50.1-53.5 68.4zm277.5 277.5c18.3-20.7 34.6-45.2 68.4-53.5-12.9 7.9-30.4 13.9-39.4 25.2-5.3 6.7-9.1 19.6-6.4 26.5 4.4-2.8 0.3-10.5 4.3-13.5 1.3 4.9-1.7 7.3-0.1 12.4 6.6-6.1 4.3-14.5 8.9-21.5 8.5-13.4 26.9-24.8 48.8-27.8 25.6-3.4 50.2 9 71.4 10.2-0.6-4.2-11.5-3.6-13.1-11.1-35-15-85.5-8.7-120.8 15.4q-0.2 0.2-0.4 0.3 0.1-0.2 0.1-0.5c3.2-42.5-16.6-89.5-47-112.3-7.3 2.4-12.3-7.4-16.2-5.8 11.6 17.8 34.7 32.9 44.5 56.7 8.4 20.5 7.7 42.1 0.4 56.2-3.9 7.5-12.2 9.7-14.2 18.5 5.2-1.2 5.7-5 10.7-6.3-0.7 5-9.4 5.2-9.6 10.5 7.4-1.2 16.6-10.9 19.7-18.8 5.3-13.5 1.8-31.6 2.2-46.8 9.7 33.4-3.4 59.9-12.2 86zm379.2 101.6c5.4-27 7.3-56.4 32.4-80.5-7.2 13.3-19.3 27.2-21.5 41.5-1.2 8.4 1.9 21.5 7.7 26.1 2.5-4.6-5-9.2-3.1-13.8 3.7 3.6 2.2 7.2 6.2 10.8 2.6-8.6-3.5-14.7-3.1-23.1 0.7-15.8 10.9-34.9 28.5-48.4 20.4-15.8 47.9-17.4 66.8-26.9-2.5-3.3-11.7 2.6-16.9-3.1-37.7 4.6-78.4 35.3-96.8 73.8q-0.1 0.2-0.2 0.4-0.1-0.2-0.2-0.4c-18.5-38.5-59.2-69.2-96.9-73.8-5.1 5.7-14.3-0.2-16.9 3.1 18.9 9.5 46.4 11.1 66.9 26.9 17.5 13.5 27.7 32.6 28.4 48.4 0.4 8.4-5.7 14.5-3.1 23.1 4-3.6 2.5-7.2 6.2-10.8 1.9 4.6-5.5 9.2-3.1 13.8 5.8-4.6 9-17.7 7.7-26.1-2.1-14.3-14.3-28.2-21.5-41.5 25.1 24.1 27 53.5 32.5 80.5zm379.1-101.6c-8.8-26.1-21.9-52.6-12.1-86 0.3 15.2-3.2 33.3 2.1 46.8 3.1 7.9 12.4 17.6 19.7 18.8-0.2-5.3-8.9-5.5-9.6-10.5 5 1.3 5.5 5.1 10.7 6.3-1.9-8.8-10.3-11-14.2-18.5-7.3-14.1-8-35.7 0.5-56.2 9.8-23.8 32.8-38.9 44.4-56.7-3.8-1.6-8.8 8.2-16.2 5.8-30.4 22.8-50.2 69.8-47 112.3q0.1 0.3 0.1 0.5-0.2-0.1-0.4-0.3c-35.2-24.1-85.8-30.4-120.8-15.4-1.6 7.5-12.5 6.9-13.1 11.1 21.2-1.2 45.8-13.6 71.4-10.2 22 3 40.3 14.4 48.8 27.8 4.6 7 2.4 15.4 8.9 21.5 1.6-5.1-1.4-7.5 0-12.4 3.9 3-0.2 10.7 4.2 13.5 2.7-6.9-1.1-19.8-6.4-26.5-9-11.3-26.4-17.3-39.4-25.2 33.8 8.3 50.2 32.8 68.4 53.5zm277.5-277.5c-20.7-18.3-45.2-34.6-53.5-68.4 8 12.9 13.9 30.4 25.2 39.4 6.7 5.3 19.6 9.1 26.5 6.4-2.7-4.4-10.5-0.3-13.5-4.3 4.9-1.3 7.3 1.7 12.4 0.1-6.1-6.6-14.4-4.3-21.5-8.9-13.4-8.5-24.8-26.9-27.7-48.8-3.5-25.6 8.9-50.2 10.1-71.4-4.1 0.6-3.6 11.5-11.1 13.1-14.9 35-8.6 85.5 15.5 120.8q0.1 0.2 0.2 0.4-0.2-0.1-0.4-0.1c-42.6-3.2-89.6 16.6-112.4 47 2.4 7.3-7.3 12.3-5.8 16.2 17.8-11.6 32.9-34.7 56.8-44.5 20.5-8.4 42.1-7.7 56.1-0.4 7.5 3.9 9.8 12.2 18.5 14.2-1.2-5.2-5-5.7-6.3-10.7 5 0.6 5.3 9.4 10.5 9.6-1.1-7.4-10.9-16.6-18.8-19.7-13.5-5.3-31.6-1.8-46.7-2.2 33.4-9.7 59.8 3.3 85.9 12.2zm101.6-379.2c-27-5.4-56.4-7.3-80.5-32.4 13.3 7.2 27.2 19.3 41.5 21.5 8.4 1.2 21.5-1.9 26.2-7.7-4.6-2.5-9.3 5-13.9 3.1 3.6-3.7 7.2-2.2 10.8-6.2-8.5-2.6-14.7 3.5-23.1 3.1-15.8-0.7-34.9-10.9-48.4-28.5-15.8-20.4-17.3-47.9-26.9-66.8-3.3 2.5 2.7 11.7-3.1 16.9 4.6 37.7 35.3 78.4 73.8 96.8q0.2 0.1 0.4 0.2-0.2 0.1-0.4 0.2c-38.5 18.5-69.2 59.2-73.8 96.9 5.8 5.1-0.2 14.3 3.1 16.9 9.6-18.9 11.1-46.4 26.9-66.9 13.5-17.5 32.6-27.7 48.4-28.4 8.4-0.4 14.6 5.7 23.1 3.1-3.6-4-7.2-2.5-10.8-6.2 4.6-1.9 9.3 5.5 13.9 3.1-4.7-5.8-17.8-9-26.2-7.7-14.3 2.1-28.2 14.3-41.5 21.5 24.1-25.1 53.5-27 80.5-32.5zm-101.6-379.1c-26.1 8.8-52.5 21.9-85.9 12.1 15.1-0.3 33.2 3.2 46.7-2.1 7.9-3.1 17.7-12.4 18.8-19.7-5.2 0.2-5.5 8.9-10.5 9.6 1.3-5 5.1-5.5 6.3-10.7-8.7 1.9-11 10.3-18.5 14.2-14 7.3-35.6 8-56.1-0.5-23.9-9.8-39-32.8-56.8-44.4-1.5 3.8 8.2 8.8 5.8 16.2 22.8 30.4 69.8 50.2 112.4 46.9q0.2 0 0.4 0-0.1 0.2-0.2 0.4c-24.1 35.2-30.4 85.8-15.5 120.8 7.5 1.6 7 12.5 11.1 13.1-1.2-21.2-13.6-45.8-10.1-71.4 2.9-22 14.3-40.3 27.7-48.8 7.1-4.6 15.4-2.4 21.5-8.9-5.1-1.6-7.5 1.4-12.4 0 3-3.9 10.8 0.2 13.5-4.2-6.9-2.7-19.8 1.1-26.5 6.4-11.3 9-17.2 26.4-25.2 39.4 8.3-33.8 32.8-50.2 53.5-68.4zm-275-263c-5.3 1.1-4.5 5.7-6.7 8.5 2.1 0.6 8.4-3.9 6.7-8.5zm-372.2-104.8c-4 3.6-1.1 7.2-1.5 10.8 2.1-0.6 5.3-7.7 1.5-10.8zm-374.7 95.4c-1.7 5.1 2.6 6.7 4 10.1 1.6-1.6 0.8-9.3-4-10.1zm-276.9 269.9c1.1 5.3 5.7 4.5 8.6 6.7 0.5-2.1-4-8.4-8.6-6.7zm-104.8 372.2c3.6 4.1 7.2 1.1 10.8 1.6-0.6-2.2-7.7-5.4-10.8-1.6zm95.4 374.8c5.1 1.7 6.7-2.7 10.1-4.1-1.6-1.5-9.3-0.8-10.1 4.1zm269.9 276.8c5.3-1.1 4.5-5.7 6.8-8.5-2.2-0.6-8.5 3.9-6.8 8.5zm372.3 104.8c4-3.6 1-7.2 1.5-10.8-2.1 0.6-5.3 7.7-1.5 10.8zm374.7-95.4c1.7-5.1-2.7-6.7-4.1-10-1.5 1.5-0.7 9.3 4.1 10zm276.8-269.9c-1-5.3-5.6-4.5-8.5-6.7-0.6 2.1 4 8.4 8.5 6.7zm104.8-372.2c-3.6-4.1-7.1-1.1-10.7-1.6 0.5 2.2 7.6 5.4 10.7 1.6zm-95.3-374.8c-5.2-1.7-6.8 2.7-10.1 4.1 1.5 1.6 9.3 0.8 10.1-4.1zm-310.9-323.5c-12.8-11.8-29-14.9-45.2-4.8-12.9 8-13.9 29.3-30.9 27.4-0.3-1-1.2-1-1.7-1.8-2.2-4.9 2.3-5.8 2-9.5-12.8 0.4-9.6 16.5-1 17.1-2.3 4.9-5.8 9.2-6.1 15.2 6.8 0.4 10.9-7.8 16.2-11.1 0.9 1.3 0.2 5.7 2.4 4.9-0.9-9.1 2.6-20.3 7.3-23.3-0.3 5.7-9 22.4 0.9 24.5-6.4-25 18-48.9 40.7-41.3 11.3 3.8 13.6 14.7 22.8 22.1 2.4-10.2-10.8-11.1-7.4-19.4zm-390.1-78.1c-16.9-3.8-32.5 1.6-41.5 18.5-7.2 13.4 2.6 32.4-13.1 39.2-0.8-0.8-1.6-0.3-2.3-0.8-4.4-3.1-1-6.1-3.1-9.2-10.9 6.8-0.1 19.1 7.7 15.4 0.4 5.3-0.4 10.7 2.3 16.1 6.1-3 5.6-12.2 8.5-17.7 1.5 0.7 3 4.9 4.6 3.1-5.4-7.4-7.9-19-5.4-23.8 2.6 5 3.4 23.8 13.1 20.7-18.1-18.4-8.9-51.4 14.6-56.1 11.6-2.4 19.1 6 30.7 7.7-3-10-14.9-4.2-16.1-13.1zm-376.9 127.5c-16.5 5.1-27.3 17.6-26.7 36.7 0.5 15.2 18.4 26.7 8.3 40.5-1.1-0.3-1.5 0.5-2.4 0.5-5.4-0.5-3.9-4.9-7.3-6.5-6 11.4 9.5 16.6 14.4 9.5 3.1 4.4 5 9.5 10 12.8 3.8-5.6-1.2-13.3-1.5-19.5 1.7-0.2 5.1 2.7 5.6 0.4-8.4-3.8-16.4-12.5-16.6-18 4.8 3.1 14.9 19 21.7 11.4-24.9-6.9-33.4-40-15.4-55.9 8.9-7.8 19.5-4.4 30.4-8.7-7.5-7.1-15 3.8-20.5-3.2zm-262.6 298.8c-11.7 12.7-14.9 28.9-4.8 45.1 8 13 29.4 14 27.4 31-1 0.3-1 1.2-1.8 1.6-4.9 2.3-5.8-2.2-9.5-2 0.4 12.9 16.5 9.7 17.1 1.1 4.9 2.3 9.2 5.7 15.2 6 0.4-6.8-7.8-10.9-11.1-16.1 1.4-1 5.8-0.2 5-2.5-9.2 1-20.4-2.6-23.4-7.2 5.8 0.2 22.4 8.9 24.5-1-24.9 6.4-48.9-18-41.3-40.7 3.8-11.3 14.8-13.5 22.1-22.8-10.1-2.4-11.1 10.8-19.4 7.5zm-78.1 390.1c-3.7 16.9 1.7 32.5 18.5 41.5 13.4 7.2 32.4-2.6 39.2 13-0.8 0.8-0.3 1.6-0.8 2.4-3 4.4-6.1 0.9-9.2 3 6.8 10.9 19.1 0.1 15.4-7.7 5.4-0.4 10.7 0.4 16.1-2.3-3-6.1-12.1-5.5-17.7-8.4 0.7-1.6 4.9-3.1 3.1-4.6-7.4 5.4-18.9 7.9-23.8 5.3 5.1-2.6 23.9-3.4 20.7-13-18.4 18-51.3 8.9-56.1-14.6-2.3-11.7 6-19.1 7.7-30.8-9.9 3-4.2 14.9-13.1 16.2zm127.5 376.8c5.2 16.5 17.6 27.3 36.7 26.7 15.2-0.4 26.8-18.4 40.5-8.3-0.3 1.1 0.5 1.5 0.5 2.4-0.5 5.4-4.8 4-6.4 7.3 11.3 6 16.5-9.5 9.4-14.3 4.5-3.1 9.5-5.1 12.9-10.1-5.7-3.8-13.4 1.2-19.6 1.5-0.2-1.7 2.7-5.1 0.4-5.5-3.8 8.4-12.5 16.3-18 16.6 3.1-4.9 19-15 11.5-21.7-7 24.8-40.1 33.3-55.9 15.4-7.9-8.9-4.4-19.6-8.8-30.5-7.1 7.6 3.9 15-3.2 20.5zm298.8 262.6c12.7 11.8 28.9 14.9 45.2 4.8 12.9-8 13.9-29.3 30.9-27.4 0.3 1.1 1.2 1 1.6 1.8 2.3 4.9-2.2 5.8-1.9 9.5 12.8-0.4 9.6-16.5 1-17.1 2.3-4.9 5.7-9.1 6.1-15.1-6.8-0.5-10.9 7.7-16.2 11-1-1.3-0.2-5.7-2.5-4.9 1 9.1-2.6 20.3-7.2 23.3 0.2-5.7 8.9-22.4-1-24.5 6.4 25-17.9 48.9-40.7 41.3-11.2-3.8-13.5-14.7-22.8-22-2.3 10.1 10.9 11 7.5 19.3zm390.1 78.1c16.9 3.8 32.5-1.6 41.5-18.5 7.2-13.4-2.6-32.3 13.1-39.2 0.7 0.8 1.5 0.3 2.3 0.8 4.4 3.1 0.9 6.2 3 9.2 10.9-6.8 0.1-19.1-7.6-15.4-0.5-5.3 0.4-10.7-2.3-16.1-6.2 3-5.6 12.2-8.5 17.7-1.5-0.7-3.1-4.9-4.6-3.1 5.4 7.5 7.9 19 5.4 23.8-2.7-5-3.5-23.8-13.1-20.7 18 18.4 8.9 51.4-14.6 56.1-11.7 2.4-19.1-6-30.8-7.7 3 10 15 4.2 16.2 13.1zm376.8-127.5c16.6-5.1 27.4-17.6 26.8-36.7-0.5-15.2-18.5-26.7-8.3-40.5 1 0.3 1.4-0.5 2.4-0.5 5.3 0.5 3.9 4.9 7.2 6.5 6.1-11.4-9.5-16.6-14.3-9.5-3.1-4.4-5.1-9.5-10.1-12.8-3.8 5.6 1.3 13.3 1.5 19.5-1.7 0.2-5.1-2.7-5.5-0.3 8.4 3.7 16.3 12.4 16.6 17.9-4.9-3.1-14.9-18.9-21.7-11.4 24.8 6.9 33.4 40 15.4 55.9-8.9 7.8-19.5 4.4-30.5 8.7 7.6 7.1 15-3.8 20.5 3.2zm262.7-298.8c11.7-12.7 14.8-28.9 4.7-45.1-8-13-29.3-14-27.4-31 1.1-0.2 1-1.1 1.8-1.6 4.9-2.3 5.9 2.3 9.6 2-0.5-12.9-16.5-9.6-17.2-1.1-4.9-2.3-9.1-5.7-15.1-6-0.5 6.8 7.7 10.9 11.1 16.1-1.4 1-5.8 0.3-5 2.5 9.1-1 20.4 2.6 23.3 7.2-5.7-0.2-22.4-8.9-24.5 1 25-6.4 49 18 41.3 40.7-3.8 11.3-14.7 13.6-22 22.8 10.1 2.4 11.1-10.8 19.4-7.5zm78-390c3.8-17-1.6-32.5-18.4-41.6-13.4-7.2-32.4 2.6-39.2-13 0.7-0.8 0.2-1.6 0.7-2.3 3.1-4.5 6.2-1 9.2-3.1-6.8-10.9-19.1-0.1-15.3 7.7-5.4 0.4-10.8-0.4-16.2 2.3 3 6.1 12.2 5.5 17.7 8.4-0.7 1.6-4.9 3.1-3.1 4.7 7.5-5.4 19-8 23.9-5.4-5.1 2.6-23.9 3.4-20.8 13 18.4-18 51.4-8.9 56.1 14.6 2.4 11.7-5.9 19.1-7.7 30.8 10-3 4.2-14.9 13.1-16.1zm-127.4-376.9c-5.2-16.5-17.7-27.3-36.8-26.7-15.2 0.5-26.7 18.4-40.5 8.3 0.3-1.1-0.5-1.5-0.5-2.4 0.5-5.4 4.9-3.9 6.5-7.3-11.3-6-16.6 9.5-9.5 14.3-4.4 3.1-9.5 5.1-12.8 10.1 5.7 3.8 13.3-1.2 19.5-1.5 0.2 1.7-2.6 5.1-0.3 5.5 3.7-8.4 12.4-16.3 17.9-16.5-3 4.8-18.9 14.9-11.4 21.7 6.9-24.9 40-33.4 55.9-15.5 7.9 9 4.4 19.6 8.7 30.5 7.1-7.5-3.8-15 3.3-20.5zm-233.8-210c11 4.4 21.6 0.9 30.5 8.7 18 15.9 9.4 49-15.4 55.9 6.8 7.6 16.8-8.3 21.7-11.4-0.3 5.5-8.2 14.2-16.6 18 0.4 2.3 3.8-0.6 5.5-0.4-0.2 6.2-5.3 13.9-1.5 19.5 5-3.3 7-8.4 10.1-12.8 4.8 7.1 20.4 1.9 14.3-9.5-3.3 1.7-1.9 6-7.3 6.5-0.9 0-1.3-0.8-2.3-0.5-10.2-13.7 7.8-25.3 8.3-40.5 0.6-19.1-10.2-31.6-26.8-36.7-5.5 7-12.9-3.9-20.5 3.2zm-372.5-117.6c11.7-1.7 19.1-10.1 30.8-7.7 23.5 4.7 32.6 37.7 14.6 56.1 9.6 3.1 10.4-15.7 13.1-20.7 2.5 4.8 0 16.4-5.4 23.8 1.5 1.8 3.1-2.4 4.6-3.1 2.9 5.5 2.3 14.7 8.4 17.7 2.7-5.4 1.9-10.8 2.4-16.1 7.7 3.7 18.5-8.6 7.6-15.4-2.1 3.1 1.4 6.1-3 9.2-0.8 0.5-1.6 0-2.3 0.8-15.7-6.8-5.9-25.8-13.1-39.2-9-16.9-24.6-22.3-41.5-18.5-1.2 8.9-13.2 3.1-16.2 13.1zm-381.4 84.4c9.3-7.4 11.6-18.3 22.8-22.1 22.8-7.6 47.1 16.3 40.7 41.3 9.9-2.1 1.2-18.8 1-24.5 4.6 3 8.2 14.2 7.2 23.3 2.3 0.8 1.5-3.6 2.5-4.9 5.3 3.3 9.4 11.5 16.2 11.1-0.4-6-3.8-10.3-6.1-15.2 8.6-0.6 11.8-16.7-1-17.1-0.3 3.7 4.2 4.6 1.9 9.5-0.4 0.8-1.3 0.8-1.6 1.8-17 1.9-18-19.4-30.9-27.4-16.3-10.1-32.5-7-45.2 4.8 3.4 8.3-9.8 9.2-7.5 19.4zm-288.1 263.7c4.4-10.9 0.9-21.5 8.7-30.5 15.9-17.9 49-9.4 56 15.5 7.5-6.8-8.4-16.9-11.5-21.7 5.5 0.2 14.2 8.1 18 16.5 2.3-0.4-0.6-3.8-0.4-5.5 6.2 0.3 13.9 5.3 19.6 1.5-3.4-5-8.4-7-12.9-10.1 7.1-4.8 1.9-20.3-9.5-14.3 1.7 3.4 6 1.9 6.5 7.3 0 0.9-0.8 1.3-0.5 2.4-13.7 10.1-25.3-7.9-40.5-8.3-19.1-0.6-31.5 10.2-36.7 26.7 7.1 5.5-3.9 12.9 3.2 20.5zm-117.6 372.5c-1.7-11.7-10-19.1-7.7-30.8 4.8-23.5 37.7-32.6 56.1-14.6 3.1-9.6-15.7-10.4-20.7-13 4.9-2.6 16.4-0.1 23.8 5.3 1.8-1.5-2.4-3-3.1-4.6 5.6-2.9 14.7-2.3 17.7-8.4-5.4-2.7-10.7-1.9-16.1-2.3 3.7-7.8-8.6-18.6-15.4-7.7 3.1 2.1 6.1-1.4 9.2 3.1 0.5 0.7 0 1.5 0.8 2.3-6.8 15.6-25.8 5.8-39.2 13-16.8 9.1-22.3 24.6-18.5 41.6 8.9 1.2 3.2 13.1 13.1 16.1zm84.4 381.4c-7.3-9.2-18.3-11.5-22.1-22.8-7.6-22.7 16.4-47.1 41.3-40.7-2.1-9.9-18.8-1.2-24.5-1 3-4.6 14.2-8.2 23.4-7.2 0.7-2.2-3.6-1.5-5-2.5 3.3-5.2 11.5-9.3 11.1-16.1-6 0.3-10.3 3.7-15.2 6-0.6-8.6-16.7-11.8-17.1 1.1 3.7 0.3 4.6-4.3 9.5-2 0.8 0.4 0.8 1.4 1.8 1.6 1.9 17-19.4 18-27.4 31-10.1 16.2-7 32.4 4.8 45.1 8.3-3.3 9.3 9.9 19.4 7.5zm263.7 288.1c-10.9-4.3-21.5-0.9-30.5-8.7-17.9-15.9-9.4-49 15.5-55.9-6.8-7.5-16.9 8.3-21.7 11.4 0.2-5.5 8.1-14.2 16.5-17.9-0.4-2.4-3.8 0.5-5.5 0.3 0.3-6.2 5.3-13.9 1.5-19.5-5 3.3-7 8.4-10 12.8-4.9-7.1-20.4-1.9-14.4 9.5 3.4-1.6 1.9-6 7.3-6.5 0.9 0 1.3 0.8 2.4 0.5 10.1 13.8-7.8 25.3-8.3 40.5-0.6 19.1 10.2 31.6 26.7 36.7 5.5-7 13 3.9 20.5-3.2zm372.5 117.6c-11.6 1.7-19.1 10.1-30.7 7.7-23.5-4.7-32.7-37.7-14.7-56.1-9.6-3.1-10.4 15.7-13 20.7-2.6-4.8 0-16.4 5.4-23.8-1.6-1.8-3.1 2.4-4.7 3.1-2.8-5.5-2.3-14.7-8.4-17.7-2.7 5.4-1.9 10.8-2.3 16.1-7.8-3.7-18.6 8.6-7.7 15.4 2.1-3.1-1.3-6.1 3.1-9.2 0.7-0.5 1.5 0 2.3-0.8 15.7 6.9 5.9 25.8 13 39.2 9.1 16.9 24.6 22.3 41.6 18.5 1.2-8.9 13.1-3.1 16.1-13.1zm381.4-84.4c-9.2 7.4-11.5 18.3-22.8 22.1-22.7 7.6-47.1-16.3-40.7-41.3-9.9 2.1-1.2 18.8-0.9 24.5-4.7-3-8.3-14.2-7.3-23.3-2.2-0.8-1.5 3.6-2.5 4.9-5.2-3.3-9.3-11.5-16.1-11.1 0.3 6.1 3.8 10.3 6 15.2-8.5 0.6-11.8 16.7 1.1 17.1 0.3-3.7-4.3-4.6-2-9.5 0.5-0.8 1.4-0.8 1.6-1.8 17-1.9 18 19.4 31 27.4 16.2 10.1 32.4 7 45.2-4.8-3.4-8.3 9.8-9.2 7.4-19.4zm288.1-263.7c-4.3 10.9-0.8 21.5-8.7 30.5-15.9 17.9-49 9.4-55.9-15.4-7.5 6.7 8.4 16.8 11.4 21.7-5.5-0.3-14.2-8.2-17.9-16.6-2.4 0.4 0.5 3.8 0.3 5.5-6.2-0.3-13.9-5.3-19.5-1.5 3.3 5 8.4 7 12.8 10.1-7.1 4.8-1.8 20.3 9.5 14.3-1.6-3.3-6-1.9-6.5-7.3 0-0.9 0.8-1.3 0.5-2.4 13.8-10.1 25.3 7.9 40.5 8.3 19.1 0.6 31.6-10.2 36.8-26.7-7.1-5.5 3.8-12.9-3.3-20.5zm117.6-372.5c1.7 11.7 10.1 19.1 7.7 30.8-4.7 23.5-37.7 32.6-56.1 14.6-3.1 9.6 15.7 10.4 20.7 13-4.8 2.6-16.3 0.1-23.8-5.3-1.8 1.5 2.4 3 3.1 4.6-5.5 2.9-14.7 2.3-17.7 8.4 5.4 2.7 10.8 1.9 16.2 2.3-3.8 7.8 8.5 18.6 15.3 7.7-3-2.1-6.1 1.4-9.2-3-0.5-0.8 0-1.6-0.8-2.4 6.9-15.6 25.8-5.8 39.2-13 16.9-9 22.3-24.6 18.5-41.5-8.9-1.3-3.1-13.2-13.1-16.2zm-84.3-381.4c7.3 9.2 18.2 11.5 22 22.8 7.6 22.7-16.3 47.1-41.3 40.7 2.1 9.9 18.8 1.2 24.5 1-3 4.6-14.2 8.2-23.3 7.2-0.8 2.2 3.6 1.5 4.9 2.5-3.3 5.2-11.5 9.3-11 16.1 6-0.3 10.2-3.7 15.1-6 0.6 8.6 16.7 11.8 17.2-1.1-3.8-0.2-4.7 4.3-9.6 2-0.8-0.4-0.7-1.3-1.8-1.6-1.9-17 19.4-18 27.4-31 10.1-16.2 7-32.4-4.8-45.1-8.3 3.3-9.2-9.9-19.3-7.5zm-380.9-316.6c4.7-4.9 5-11.4 10.8-14.2 15.5-7.7 31.2 3.7 40.3 11.7-0.1-31.8-54.8-21.6-51.1 2.5zm-371.1-55.3c1.7-6.6-1.3-12.3 2.3-17.7 9.6-14.3 28.9-12.3 40.8-10-16-27.4-58.3 8.7-43.1 27.7zm-349 137.7c-1.8-6.5-7.2-10-6.8-16.4 1.1-17.3 18.8-25.2 30.3-29.1-27.6-15.8-46.1 36.6-23.5 45.5zm-233.3 293.8c-4.9-4.8-11.4-5.1-14.2-10.9-7.7-15.5 3.7-31.2 11.7-40.3-31.8 0.1-21.6 54.8 2.5 51.2zm-55.3 371c-6.6-1.6-12.3 1.3-17.7-2.3-14.3-9.6-12.3-28.9-10-40.7-27.4 15.9 8.7 58.2 27.7 43zm137.7 349c-6.5 1.9-10 7.3-16.4 6.8-17.3-1.1-25.2-18.8-29.1-30.2-15.8 27.5 36.6 46 45.5 23.4zm293.8 233.4c-4.8 4.9-5.1 11.3-10.9 14.1-15.5 7.7-31.2-3.7-40.3-11.7 0.1 31.8 54.8 21.6 51.2-2.4zm371 55.2c-1.6 6.6 1.3 12.3-2.3 17.7-9.6 14.4-28.9 12.4-40.7 10 15.9 27.5 58.2-8.7 43-27.7zm349-137.7c1.9 6.6 7.3 10.1 6.8 16.5-1.1 17.2-18.8 25.1-30.2 29 27.5 15.8 46-36.6 23.4-45.5zm233.4-293.7c4.9 4.7 11.3 5 14.1 10.8 7.7 15.5-3.7 31.2-11.7 40.3 31.8-0.1 21.6-54.8-2.4-51.1zm55.2-371.1c6.6 1.7 12.3-1.3 17.7 2.3 14.4 9.6 12.4 28.9 10 40.8 27.5-16-8.7-58.3-27.7-43.1zm-137.7-349c6.6-1.8 10.1-7.2 16.5-6.8 17.2 1.1 25.1 18.8 29 30.3 15.8-27.6-36.6-46.1-45.5-23.5zm-174.4-196.4c11.5 3.9 29.2 11.8 30.3 29 0.4 6.5-4.9 10-6.8 16.5 22.6-8.9 4.1-61.3-23.5-45.5zm-368.5-119.9c11.8-2.3 31.1-4.4 40.7 10 3.6 5.4 0.7 11.1 2.3 17.7 15.2-19-27.1-55.1-43-27.7zm-379.2 80.5c9.1-8 24.8-19.4 40.3-11.7 5.8 2.8 6.1 9.3 10.9 14.2 3.6-24.1-51.1-34.3-51.2-2.5zm-288.1 259.3c3.9-11.5 11.8-29.2 29-30.3 6.5-0.4 10 4.9 16.5 6.8-8.9-22.6-61.3-4.1-45.5 23.5zm-119.9 368.5c-2.3-11.8-4.4-31.1 10-40.7 5.4-3.6 11.1-0.6 17.7-2.3-19-15.2-55.1 27.1-27.7 43zm80.5 379.2c-8-9.1-19.4-24.8-11.7-40.3 2.8-5.8 9.2-6.1 14.1-10.8-24-3.7-34.2 51-2.4 51.1zm259.3 288.1c-11.5-3.9-29.2-11.8-30.3-29-0.4-6.5 4.9-9.9 6.8-16.5-22.6 8.9-4.1 61.3 23.5 45.5zm368.5 119.9c-11.8 2.4-31.1 4.4-40.7-10-3.6-5.4-0.6-11.1-2.3-17.7-15.2 19 27.1 55.2 43 27.7zm379.2-80.5c-9.1 8-24.8 19.4-40.3 11.7-5.8-2.8-6.1-9.2-10.8-14.1-3.7 24 51 34.2 51.1 2.4zm288.1-259.3c-3.9 11.5-11.8 29.2-29 30.3-6.5 0.4-9.9-4.9-16.5-6.8 8.9 22.6 61.3 4.1 45.5-23.5zm119.9-368.5c2.4 11.8 4.4 31.1-10 40.7-5.4 3.6-11.1 0.7-17.7 2.3 19 15.2 55.2-27.1 27.7-43zm-80.5-379.2c8 9.1 19.4 24.8 11.7 40.3-2.8 5.8-9.2 6.1-14.1 10.9 24 3.6 34.2-51.1 2.4-51.2zm-341.6-287.7c-14.4 8.3-29.6 4.9-40.4-3.8-15.3-0.4-32.3 7.5-48.3 13 28.5 16.5 101.6 12.4 107.9-30.1q-0.5-1.6-0.9-3.1c-8.3 5.8-7.8 18-18.3 24zm-357.4-78.7c-8.3 14.3-23.1 18.9-36.9 16.9-13.4 7.2-24.2 22.6-35.3 35.3 32.9 0.1 94.1-40 78.4-79.9l-2.3-2.3c-4.3 9.2 2.2 19.5-3.9 30zm-348.8 110.4c0 16.7-10.6 28-23.5 33.1-8 13.1-9.7 31.7-13 48.3 28.6-16.4 61.6-81.7 28-108.4q-1.6-0.4-3.2-0.9c1 10.2 11.7 15.9 11.7 27.9zm-246.9 270.1c8.3 14.4 4.9 29.6-3.8 40.4-0.4 15.3 7.5 32.3 13 48.4 16.5-28.5 12.4-101.6-30.1-107.9q-1.6 0.4-3.1 0.8c5.8 8.3 18 7.9 24 18.3zm-78.7 357.4c14.3 8.3 18.9 23.2 16.9 36.9 7.2 13.4 22.6 24.2 35.3 35.4 0.1-33-40-94.2-79.9-78.5l-2.3 2.3c9.2 4.3 19.5-2.2 30 3.9zm110.4 348.8c16.7 0.1 28 10.6 33.1 23.5 13.1 8.1 31.7 9.7 48.3 13-16.4-28.6-81.7-61.6-108.4-28q-0.4 1.6-0.9 3.2c10.2-0.9 15.9-11.7 27.9-11.7zm270.1 246.9c14.4-8.3 29.6-4.8 40.4 3.8 15.3 0.4 32.3-7.4 48.4-12.9-28.5-16.5-101.6-12.4-107.9 30q0.4 1.6 0.8 3.2c8.3-5.9 7.9-18.1 18.3-24.1zm357.4 78.8c8.3-14.4 23.2-19 36.9-16.9 13.4-7.3 24.2-22.6 35.4-35.4-33-0.1-94.2 40-78.5 79.9l2.3 2.4c4.3-9.3-2.2-19.6 3.9-30zm348.8-110.5c0.1-16.6 10.6-28 23.5-33.1 8-13 9.7-31.7 13-48.3-28.6 16.4-61.6 81.8-28 108.4q1.6 0.5 3.2 0.9c-0.9-10.1-11.7-15.8-11.7-27.9zm246.9-270.1c-8.3-14.4-4.8-29.6 3.8-40.4 0.4-15.3-7.4-32.3-12.9-48.3-16.5 28.5-12.4 101.6 30 107.9q1.6-0.5 3.2-0.9c-5.9-8.3-18.1-7.8-24.1-18.3zm78.8-357.4c-14.4-8.3-19-23.1-16.9-36.9-7.3-13.4-22.6-24.2-35.4-35.3-0.1 32.9 40 94.1 79.9 78.4l2.4-2.3c-9.3-4.3-19.6 2.2-30-3.9zm-110.5-348.8c-16.6 0-28-10.6-33.1-23.5-13-8-31.7-9.7-48.3-13 16.4 28.6 81.8 61.6 108.4 28q0.5-1.6 0.9-3.2c-10.1 1-15.8 11.7-27.9 11.7zm-203.5-243.1q-1.6 0.5-3.2 0.9c-33.6 26.7-0.6 92 28 108.4-3.3-16.6-5-35.2-13-48.3-12.9-5.1-23.4-16.4-23.5-33.1 0-12 10.8-17.7 11.7-27.9zm-364.4-112.5l-2.3 2.3c-15.7 39.9 45.5 80 78.5 79.9-11.2-12.7-22-28.1-35.4-35.3-13.7 2-28.6-2.6-36.9-16.9-6.1-10.5 0.4-20.8-3.9-30zm-371.8 84.7q-0.4 1.5-0.8 3.1c6.3 42.5 79.4 46.6 107.9 30.1-16.1-5.5-33.1-13.4-48.4-13-10.8 8.7-26 12.1-40.4 3.8-10.4-6-10-18.2-18.3-24zm-279.7 259.2q0.5 1.6 0.9 3.2c26.7 33.6 92 0.6 108.4-28-16.6 3.3-35.2 5-48.3 13-5.1 12.9-16.4 23.5-33.1 23.5-12 0-17.7-10.7-27.9-11.7zm-112.5 364.4l2.3 2.3c39.9 15.8 80-45.5 79.9-78.4-12.7 11.1-28.1 21.9-35.3 35.3 2 13.8-2.6 28.6-16.9 36.9-10.5 6.1-20.8-0.4-30 3.9zm84.7 371.8q1.5 0.4 3.1 0.9c42.5-6.3 46.6-79.4 30.1-107.9-5.5 16-13.4 33-13 48.3 8.7 10.8 12.1 26 3.8 40.4-6 10.5-18.2 10-24 18.3zm259.2 279.7q1.6-0.4 3.2-0.9c33.6-26.6 0.6-92-28-108.4 3.3 16.6 5 35.3 13 48.3 12.9 5.1 23.5 16.5 23.5 33.1 0 12-10.7 17.7-11.7 27.9zm364.4 112.5l2.3-2.3c15.7-39.9-45.5-80-78.4-79.9 11.1 12.8 21.9 28.1 35.3 35.3 13.8-2 28.6 2.6 36.9 17 6.1 10.4-0.4 20.7 3.9 29.9zm371.8-84.7q0.4-1.5 0.9-3.1c-6.3-42.4-79.4-46.5-107.9-30 16 5.4 33 13.3 48.3 12.9 10.8-8.6 26-12.1 40.4-3.8 10.4 6 10 18.2 18.3 24zm279.7-259.2q-0.4-1.6-0.9-3.2c-26.7-33.6-92-0.6-108.4 28 16.6-3.3 35.3-5 48.3-13 5.1-12.9 16.5-23.4 33.1-23.5 12 0 17.7 10.8 27.9 11.7zm112.5-364.4l-2.3-2.3c-39.9-15.7-80 45.5-79.9 78.4 12.8-11.1 28.1-21.9 35.3-35.3-2-13.8 2.6-28.6 17-36.9 10.4-6.1 20.7 0.4 29.9-3.9zm-84.7-371.8q-1.5-0.4-3.1-0.8c-42.4 6.3-46.5 79.4-30 107.9 5.4-16.1 13.3-33.1 12.9-48.4-8.6-10.8-12.1-26-3.8-40.4 6-10.4 18.2-10 24-18.3zm-320.4-322.1c-4.2 4.9 1.1 7.1 2.6 13.9-2.1 6.9-7 14.3-14.5 17.4-10.3 4.4-19.9-0.4-29.2 0 16.4 21.6 62.4-5.8 41.1-31.3zm-377.4-76.3c-1.2 6.4 4.5 5.6 9.3 10.8 1.6 6.9 1 15.8-3.9 22.3-6.8 8.9-17.5 9.6-25.4 14.6 25.1 10.5 51.2-36.3 20-47.7zm-364.9 122.6c2.1 6.2 6.7 2.6 13.3 4.7 4.9 5.3 8.9 13.3 7.9 21.3-1.4 11.1-10.4 17-14.7 25.3 26.9-3.4 26.2-57-6.5-51.3zm-254.8 288.7c4.9 4.3 7.1-1.1 13.9-2.6 6.9 2.1 14.3 7 17.4 14.5 4.4 10.3-0.4 19.9 0 29.3 21.6-16.5-5.8-62.5-31.3-41.2zm-76.3 377.4c6.4 1.2 5.6-4.5 10.8-9.3 6.9-1.6 15.9-1 22.3 3.9 8.9 6.8 9.6 17.5 14.6 25.4 10.5-25.1-36.3-51.2-47.7-20zm122.6 364.9c6.2-2.1 2.6-6.7 4.8-13.3 5.2-4.9 13.2-8.9 21.2-7.9 11.1 1.4 17 10.4 25.3 14.7-3.4-26.9-57-26.2-51.3 6.5zm288.7 254.8c4.3-4.9-1.1-7.1-2.6-13.9 2.1-6.9 7-14.3 14.5-17.4 10.3-4.4 20 0.4 29.3 0-16.5-21.6-62.5 5.8-41.2 31.3zm377.4 76.3c1.2-6.4-4.5-5.6-9.2-10.8-1.6-6.9-1.1-15.8 3.8-22.3 6.8-8.9 17.5-9.6 25.4-14.6-25.1-10.5-51.2 36.3-20 47.7zm364.9-122.6c-2.1-6.2-6.7-2.6-13.3-4.7-4.9-5.3-8.9-13.3-7.8-21.3 1.4-11.1 10.3-17 14.6-25.3-26.9 3.4-26.2 57 6.5 51.3zm254.8-288.7c-4.9-4.3-7.1 1.1-13.9 2.6-6.9-2.1-14.3-7-17.4-14.5-4.4-10.3 0.4-19.9 0-29.3-21.6 16.5 5.8 62.5 31.3 41.2zm76.3-377.4c-6.4-1.2-5.6 4.5-10.8 9.3-6.9 1.6-15.8 1-22.3-3.9-8.9-6.8-9.5-17.5-14.6-25.4-10.5 25.1 36.3 51.2 47.7 20zm-122.6-364.9c-6.2 2.1-2.6 6.7-4.7 13.3-5.3 4.9-13.3 8.9-21.3 7.9-11.1-1.5-17-10.4-25.3-14.7 3.4 26.9 57 26.2 51.3-6.5zm-215-157.2c-4.3-8.3-13.2-14.2-14.7-25.3-1-8 3-16 7.9-21.3 6.6-2.1 11.2 1.5 13.3-4.7-32.7-5.7-33.4 47.9-6.5 51.3zm-338.4-126.2c-7.9-5-18.6-5.7-25.4-14.6-4.9-6.5-5.5-15.4-3.9-22.3 4.8-5.2 10.5-4.4 9.3-10.8-31.2 11.4-5.1 58.2 20 47.7zm-356.3 59.9c-9.3-0.4-18.9 4.4-29.2 0-7.5-3.1-12.4-10.5-14.5-17.4 1.5-6.8 6.9-9 2.6-13.9-21.3 25.5 24.7 52.9 41.1 31.3zm-278.5 230c-8.3 4.3-14.2 13.2-25.3 14.7-8 1-16-3-21.3-7.9-2.1-6.6 1.5-11.2-4.7-13.3-5.7 32.7 47.9 33.4 51.3 6.5zm-126.2 338.4c-5 7.9-5.7 18.6-14.6 25.4-6.5 4.9-15.4 5.5-22.3 3.9-5.2-4.8-4.4-10.5-10.8-9.3 11.4 31.2 58.2 5.1 47.7-20zm59.9 356.3c-0.4 9.3 4.4 18.9 0 29.2-3.1 7.5-10.5 12.4-17.4 14.5-6.8-1.5-9-6.9-13.9-2.6 25.5 21.3 52.9-24.7 31.3-41.1zm230 278.5c4.3 8.3 13.2 14.2 14.7 25.3 1 8-3 16-7.9 21.3-6.6 2.1-11.2-1.5-13.3 4.7 32.7 5.7 33.4-47.9 6.5-51.3zm338.4 126.2c7.9 5 18.6 5.7 25.4 14.6 4.9 6.5 5.5 15.4 3.9 22.3-4.8 5.2-10.5 4.4-9.3 10.8 31.2-11.4 5.1-58.2-20-47.7zm356.3-59.9c9.3 0.4 18.9-4.4 29.2 0 7.5 3.1 12.4 10.5 14.5 17.4-1.5 6.8-6.9 9-2.6 13.9 21.3-25.5-24.7-52.9-41.1-31.3zm278.5-230c8.3-4.3 14.2-13.2 25.3-14.7 8-1 16 3 21.3 7.9 2.1 6.6-1.5 11.2 4.7 13.3 5.7-32.7-47.9-33.4-51.3-6.5zm126.2-338.4c5-7.9 5.7-18.6 14.6-25.4 6.5-4.9 15.4-5.5 22.3-3.9 5.2 4.8 4.4 10.5 10.8 9.3-11.4-31.2-58.2-5.1-47.7 20zm-59.9-356.3c0.4-9.3-4.4-18.9 0-29.2 3.1-7.5 10.5-12.4 17.4-14.5 6.8 1.5 9 6.9 13.9 2.6-25.5-21.3-52.9 24.7-31.3 41.1zm-319.1-383.2c-3.4 5.2 0.6 11.2 5.7 13.1 2.7-0.3 1.8-2.6 5-2.5 3-6.2-2.3-15.1-10.7-10.6zm-378.9-67.7c-0.3 6.3 6.1 9.5 11.5 8.5 2.2-1.5 0.3-3.1 3.1-4.6-0.5-6.9-9.5-11.9-14.6-3.9zm-361.9 130.9c2.8 5.6 10 5.1 14.2 1.6 1.1-2.4-1.3-2.8 0.4-5.6-3.9-5.6-14.3-5.5-14.6 4zm-248 294.3c5.2 3.4 11.2-0.6 13.1-5.7-0.3-2.7-2.6-1.8-2.5-5-6.2-3-15.1 2.3-10.6 10.7zm-67.6 378.9c6.2 0.3 9.4-6.1 8.4-11.5-1.5-2.2-3.1-0.3-4.6-3.1-6.8 0.5-11.9 9.5-3.8 14.6zm130.8 361.9c5.6-2.8 5.1-10 1.6-14.2-2.4-1.1-2.8 1.3-5.5-0.4-5.7 3.9-5.6 14.3 3.9 14.6zm294.3 248c3.4-5.2-0.5-11.2-5.7-13.1-2.7 0.3-1.8 2.6-5 2.5-3 6.2 2.3 15.1 10.7 10.6zm378.9 67.6c0.3-6.2-6.1-9.4-11.5-8.4-2.2 1.5-0.3 3.1-3.1 4.6 0.5 6.8 9.5 11.9 14.6 3.8zm361.9-130.8c-2.8-5.6-10-5.1-14.2-1.6-1.1 2.4 1.3 2.8-0.3 5.6 3.8 5.6 14.2 5.5 14.5-4zm248-294.3c-5.2-3.4-11.2 0.5-13.1 5.7 0.3 2.7 2.6 1.8 2.5 5 6.2 3 15.1-2.3 10.6-10.7zm67.7-378.9c-6.3-0.3-9.5 6.1-8.5 11.5 1.5 2.2 3.1 0.3 4.6 3.1 6.9-0.5 11.9-9.5 3.9-14.6zm-130.9-361.9c-5.6 2.8-5.1 10-1.6 14.2 2.4 1.1 2.8-1.3 5.6 0.3 5.6-3.8 5.5-14.2-4-14.5zm-199.4-188.8c1.7 2.8-0.7 3.2 0.4 5.6 4.2 3.5 11.4 3.9 14.2-1.6-0.3-9.5-10.7-9.6-14.6-4zm-361.9-123c2.8 1.5 0.9 3.1 3.1 4.6 5.4 1 11.8-2.2 11.5-8.5-5.1-8.1-14.1-3-14.6 3.9zm-375 74.4c3.2-0.1 2.3 2.2 5 2.5 5.2-1.9 9.1-7.9 5.7-13.1-8.4-4.5-13.7 4.4-10.7 10.6zm-287.5 251.9c2.7-1.6 3.1 0.8 5.5-0.3 3.5-4.2 4-11.4-1.6-14.2-9.5 0.3-9.6 10.7-3.9 14.5zm-123.1 362c1.5-2.8 3.1-0.9 4.6-3.1 1-5.4-2.2-11.8-8.4-11.5-8.1 5.1-3 14.1 3.8 14.6zm74.4 375c0-3.2 2.2-2.3 2.5-5-1.9-5.2-7.9-9.1-13.1-5.7-4.5 8.4 4.4 13.7 10.6 10.7zm252 287.5c-1.7-2.7 0.7-3.1-0.4-5.5-4.2-3.5-11.4-4-14.2 1.6 0.3 9.5 10.7 9.6 14.6 3.9zm361.9 123.1c-2.8-1.6-0.9-3.1-3.1-4.6-5.4-1-11.8 2.2-11.5 8.4 5.1 8.1 14.1 3 14.6-3.8zm375-74.4c-3.2 0-2.3-2.2-5-2.5-5.1 1.9-9.1 7.9-5.7 13.1 8.4 4.5 13.7-4.4 10.7-10.6zm287.6-252c-2.8 1.7-3.2-0.7-5.6 0.4-3.5 4.2-4 11.4 1.6 14.2 9.5-0.4 9.6-10.7 4-14.6zm123-361.9c-1.5 2.8-3.1 0.9-4.6 3-1 5.5 2.2 11.9 8.4 11.6 8.1-5.1 3-14.1-3.8-14.6zm-74.4-375c0.1 3.2-2.2 2.3-2.5 4.9 1.9 5.2 7.9 9.2 13.1 5.8 4.5-8.4-4.4-13.7-10.6-10.7zm-338.5-332.2c-5.4 1.6-6.5 5.7-4.8 11.4 2.5 2.1 7 0.8 9.7-1.5 0.9-4.2-1.2-9.3-4.9-9.9zm-372.7-73.8c-3.9 4.1-2.7 8.2 1.6 12.3 3.2 0.5 6.4-2.8 7.7-6.2-1.4-4-5.8-7.4-9.3-6.1zm-359.6 122.4c-1.4 5.5 1.7 8.5 7.4 9.9 3.1-1.1 4.2-5.7 3.6-9.2-3.2-2.8-8.6-3.6-11-0.7zm-250.3 285.9c1.6 5.4 5.7 6.5 11.4 4.8 2.1-2.5 0.8-7-1.5-9.7-4.1-0.9-9.3 1.2-9.9 4.9zm-73.8 372.7c4.1 3.9 8.2 2.7 12.3-1.6 0.5-3.2-2.8-6.4-6.1-7.7-4.1 1.4-7.5 5.8-6.2 9.3zm122.4 359.6c5.5 1.3 8.5-1.7 9.9-7.5-1.1-3-5.6-4.1-9.2-3.5-2.8 3.2-3.5 8.6-0.7 11zm285.9 250.3c5.4-1.6 6.5-5.8 4.8-11.4-2.5-2.1-7-0.8-9.7 1.4-0.9 4.2 1.2 9.3 4.9 10zm372.7 73.8c3.9-4.1 2.7-8.2-1.6-12.3-3.2-0.6-6.4 2.8-7.7 6.1 1.4 4.1 5.8 7.5 9.3 6.2zm359.6-122.5c1.3-5.5-1.7-8.4-7.5-9.8-3 1.1-4.1 5.6-3.5 9.1 3.2 2.9 8.6 3.6 11 0.7zm250.3-285.8c-1.6-5.4-5.7-6.5-11.4-4.8-2.1 2.5-0.8 7 1.4 9.7 4.2 0.8 9.4-1.2 10-4.9zm73.8-372.7c-4.1-3.9-8.2-2.7-12.3 1.5-0.5 3.3 2.8 6.5 6.1 7.7 4.1-1.3 7.5-5.7 6.2-9.2zm-122.4-359.7c-5.5-1.3-8.5 1.8-9.9 7.5 1.1 3.1 5.6 4.2 9.1 3.6 2.9-3.2 3.6-8.7 0.8-11.1zm-212.7-200.9c-0.6 3.5 0.5 8.1 3.5 9.2 5.8-1.4 8.9-4.4 7.5-9.9-2.4-2.9-7.8-2.1-11 0.7zm-357.9-117c1.3 3.4 4.5 6.7 7.7 6.2 4.3-4.1 5.5-8.2 1.6-12.3-3.5-1.3-7.9 2.1-9.3 6.1zm-368.3 77.6c2.7 2.3 7.2 3.6 9.7 1.5 1.7-5.7 0.6-9.8-4.8-11.4-3.7 0.6-5.8 5.7-4.9 9.9zm-280.3 251.4c3.5 0.6 8.1-0.5 9.2-3.6-1.4-5.7-4.4-8.8-9.9-7.5-2.8 2.4-2.1 7.9 0.7 11.1zm-116.9 357.8c3.3-1.2 6.6-4.4 6.1-7.7-4.1-4.2-8.2-5.4-12.3-1.5-1.3 3.5 2.1 7.9 6.2 9.2zm77.5 368.4c2.3-2.7 3.6-7.2 1.5-9.7-5.7-1.7-9.8-0.6-11.4 4.8 0.6 3.7 5.7 5.7 9.9 4.9zm251.4 280.2c0.6-3.5-0.5-8-3.6-9.1-5.7 1.4-8.8 4.4-7.4 9.8 2.3 2.9 7.8 2.2 11-0.7zm357.8 117c-1.2-3.3-4.4-6.7-7.6-6.1-4.3 4.1-5.5 8.2-1.6 12.3 3.5 1.3 7.9-2.1 9.2-6.2zm368.4-77.6c-2.7-2.2-7.2-3.5-9.7-1.4-1.7 5.6-0.6 9.8 4.8 11.4 3.7-0.7 5.8-5.8 4.9-10zm280.2-251.3c-3.5-0.6-8 0.5-9.1 3.5 1.4 5.8 4.4 8.8 9.9 7.5 2.8-2.4 2.1-7.8-0.8-11zm117-357.9c-3.3 1.3-6.6 4.5-6.1 7.7 4.1 4.3 8.2 5.5 12.3 1.6 1.3-3.5-2.1-7.9-6.2-9.3zm-77.6-368.3c-2.2 2.7-3.5 7.2-1.4 9.7 5.7 1.7 9.8 0.6 11.4-4.8-0.6-3.7-5.8-5.8-10-4.9zm-342.2-332.7c-2.1 3.4-2.3 8.3 1.7 10.8 4.3-0.5 5.9-2.6 7.9-4.4-0.7-6.6-4-8.6-9.6-6.4zm-371.9-64.6c-0.1 4 2.2 8.4 6.9 8.5 3.5-2.6 3.8-5.1 4.6-7.7-3.8-5.3-7.7-5.4-11.5-0.8zm-354.3 130.1c1.9 3.5 6.1 6.2 10.2 3.9 1.7-4 0.7-6.4 0.2-9-6-2.7-9.4-0.9-10.4 5.1zm-241.8 289.8c3.4 2.1 8.3 2.3 10.8-1.8-0.5-4.2-2.6-5.8-4.4-7.8-6.6 0.7-8.5 3.9-6.4 9.6zm-64.5 371.9c3.9 0.1 8.3-2.2 8.4-6.9-2.5-3.5-5.1-3.8-7.7-4.6-5.3 3.8-5.4 7.6-0.7 11.5zm130 354.3c3.5-1.9 6.2-6.1 3.9-10.2-4-1.7-6.4-0.8-9-0.2-2.7 6-0.8 9.4 5.1 10.4zm289.8 241.8c2.1-3.4 2.3-8.3-1.7-10.8-4.3 0.5-5.9 2.6-7.9 4.4 0.7 6.5 4 8.5 9.6 6.4zm371.9 64.5c0.1-4-2.2-8.3-6.9-8.4-3.5 2.5-3.8 5.1-4.6 7.7 3.8 5.3 7.7 5.4 11.5 0.7zm354.3-130c-1.9-3.5-6.1-6.2-10.2-3.9-1.7 3.9-0.7 6.3-0.2 9 6 2.7 9.4 0.8 10.4-5.1zm241.8-289.8c-3.4-2.1-8.3-2.3-10.8 1.7 0.5 4.3 2.6 5.9 4.4 7.9 6.5-0.7 8.5-4 6.4-9.6zm64.5-371.9c-3.9-0.1-8.3 2.2-8.4 6.9 2.5 3.5 5.1 3.8 7.7 4.6 5.3-3.8 5.4-7.7 0.7-11.5zm-130-354.3c-3.5 1.9-6.2 6.1-3.9 10.2 4 1.7 6.4 0.7 9 0.1 2.7-6 0.8-9.3-5.1-10.3zm-186.7-181.4c-0.5 2.6-1.5 5 0.2 9 4.1 2.3 8.3-0.4 10.2-3.9-1-6-4.4-7.8-10.4-5.1zm-355.4-124.2c0.8 2.6 1.1 5.1 4.6 7.7 4.7-0.1 7-4.5 6.9-8.5-3.8-4.6-7.7-4.5-11.5 0.8zm-370 70.2c2 1.8 3.6 3.9 7.9 4.4 4-2.5 3.8-7.4 1.7-10.8-5.6-2.2-8.9-0.2-9.6 6.4zm-285.3 245.7c2.6 0.6 5 1.6 9-0.1 2.3-4.1-0.4-8.3-3.9-10.2-5.9 1-7.8 4.3-5.1 10.3zm-124.2 355.5c2.6-0.8 5.2-1.1 7.7-4.6-0.1-4.7-4.5-7-8.4-6.9-4.7 3.8-4.6 7.7 0.7 11.5zm70.2 370c1.8-2 3.9-3.6 4.4-7.9-2.5-4-7.4-3.8-10.8-1.7-2.1 5.6-0.1 8.9 6.4 9.6zm245.8 285.3c0.5-2.7 1.5-5.1-0.2-9-4.1-2.3-8.3 0.4-10.2 3.9 1 5.9 4.4 7.8 10.4 5.1zm355.4 124.1c-0.8-2.5-1.1-5.1-4.6-7.6-4.7 0.1-7 4.4-6.9 8.4 3.8 4.7 7.7 4.6 11.5-0.8zm370-70.1c-2-1.8-3.6-3.9-7.9-4.4-4 2.5-3.8 7.4-1.7 10.8 5.6 2.1 8.9 0.1 9.6-6.4zm285.3-245.8c-2.6-0.6-5-1.5-9 0.2-2.3 4.1 0.4 8.3 3.9 10.2 5.9-1 7.8-4.4 5.1-10.4zm124.2-355.5c-2.6 0.9-5.2 1.2-7.7 4.7 0.1 4.7 4.5 6.9 8.4 6.9 4.7-3.9 4.6-7.7-0.7-11.6zm-70.2-369.9c-1.8 2-3.9 3.6-4.4 7.8 2.5 4.1 7.4 3.8 10.8 1.8 2.1-5.7 0.1-9-6.4-9.6zm-357.8-358c-1.3 5.7 3.3 9.3 7.3 10.4 2.8-2.7 7.8-4.3 5.1-10.3-2.8-2.5-7.3-1.8-12.4-0.1zm-376.8-58.4c1.7 5.5 7.5 6.3 11.5 5.4 1.1-3.9 4.6-7.7-0.8-11.6-3.6-0.7-7.2 2.1-10.7 6.2zm-355.6 137.8c4.3 3.9 9.7 1.7 12.7-1.1-1-3.9 0.2-9-6.4-9.6-3.5 1.1-5.2 5.4-6.3 10.7zm-239 297.1c5.7 1.3 9.3-3.3 10.5-7.3-2.8-2.8-4.4-7.8-10.4-5.1-2.5 2.7-1.8 7.3-0.1 12.4zm-58.4 376.8c5.5-1.7 6.3-7.5 5.4-11.5-3.9-1.1-7.7-4.6-11.5 0.8-0.8 3.5 2 7.1 6.1 10.7zm137.8 355.6c3.9-4.3 1.7-9.7-1.1-12.7-3.9 1-9-0.2-9.6 6.4 1.1 3.5 5.4 5.2 10.7 6.3zm297.1 239c1.3-5.7-3.3-9.3-7.3-10.5-2.8 2.8-7.8 4.4-5.1 10.4 2.8 2.5 7.3 1.8 12.4 0.1zm376.8 58.4c-1.7-5.6-7.5-6.4-11.5-5.4-1.1 3.8-4.6 7.7 0.8 11.5 3.5 0.8 7.1-2.1 10.7-6.1zm355.6-137.8c-4.3-4-9.7-1.8-12.7 1.1 1 3.8-0.2 8.9 6.4 9.6 3.5-1.2 5.2-5.4 6.3-10.7zm239-297.1c-5.7-1.3-9.3 3.3-10.5 7.3 2.8 2.8 4.4 7.8 10.4 5.1 2.5-2.8 1.8-7.3 0.1-12.4zm58.4-376.9c-5.6 1.8-6.3 7.6-5.4 11.6 3.8 1.1 7.7 4.6 11.5-0.8 0.8-3.6-2.1-7.2-6.1-10.8zm-137.8-355.5c-3.9 4.3-1.8 9.7 1.1 12.7 3.9-1 8.9 0.1 9.6-6.4-1.2-3.5-5.4-5.2-10.7-6.3zm-165.9-170.3c-6.6 0.6-5.4 5.7-6.4 9.6 3 2.8 8.4 5 12.7 1.1-1.1-5.3-2.8-9.6-6.3-10.7zm-360-133.3c-5.4 3.9-1.9 7.7-0.8 11.6 4 0.9 9.8 0.1 11.5-5.4-3.6-4.1-7.1-6.9-10.7-6.2zm-378.5 64.7c-2.7 6 2.3 7.6 5.1 10.3 4-1.1 8.6-4.7 7.3-10.4-5.1-1.7-9.6-2.4-12.4 0.1zm-295.4 245.2c0.6 6.6 5.7 5.4 9.6 6.4 2.8-3 5-8.4 1.1-12.7-5.3 1.1-9.6 2.8-10.7 6.3zm-133.2 360c3.8 5.4 7.6 1.9 11.5 0.8 0.9-4 0.2-9.8-5.4-11.5-4 3.5-6.9 7.1-6.1 10.7zm64.6 378.5c6 2.7 7.6-2.3 10.4-5.1-1.2-4-4.8-8.6-10.5-7.3-1.7 5.1-2.4 9.6 0.1 12.4zm245.2 295.4c6.6-0.7 5.4-5.8 6.4-9.6-3-2.9-8.4-5.1-12.7-1.1 1.1 5.3 2.8 9.5 6.3 10.7zm360 133.2c5.4-3.8 1.9-7.7 0.8-11.5-4-1-9.8-0.2-11.5 5.4 3.5 4 7.1 6.9 10.7 6.1zm378.5-64.6c2.7-6-2.3-7.6-5.1-10.4-4 1.2-8.6 4.8-7.3 10.5 5.1 1.7 9.6 2.3 12.4-0.1zm295.4-245.2c-0.7-6.6-5.7-5.4-9.6-6.4-2.9 3-5 8.4-1.1 12.7 5.3-1.1 9.5-2.8 10.7-6.3zm133.2-360c-3.8-5.4-7.7-1.9-11.5-0.8-1 4-0.2 9.8 5.4 11.5 4-3.6 6.9-7.2 6.1-10.7zm-64.6-378.5c-6-2.7-7.6 2.3-10.4 5.1 1.2 4 4.8 8.6 10.5 7.3 1.7-5.1 2.4-9.7-0.1-12.4zm-372-334.9q1 3.7 2 7.4c19.4 5.8 10.9-21.4-2-7.4zm-362.8-64.5l5.4 5.3c19.7-4.7-1.2-23.9-5.4-5.3zm-346.5 125.4q3.7 1 7.4 2c14.7-13.9-13.1-20.1-7.4-2zm-237.3 282q3.7-1 7.4-2c5.8-19.5-21.4-10.9-7.4 2zm-64.5 362.8l5.3-5.4c-4.7-19.8-23.9 1.2-5.3 5.4zm125.5 346.4q0.9-3.6 1.9-7.3c-13.9-14.8-20.1 13-1.9 7.3zm281.9 237.3q-1-3.6-2-7.3c-19.5-5.8-10.9 21.4 2 7.3zm362.8 64.6l-5.4-5.4c-19.8 4.7 1.2 24 5.4 5.4zm346.4-125.5q-3.6-1-7.3-2c-14.8 14 13 20.2 7.3 2zm237.4-281.9q-3.7 1-7.4 2c-5.8 19.4 21.4 10.9 7.4-2zm64.5-362.8l-5.4 5.4c4.8 19.7 24-1.2 5.4-5.4zm-125.5-346.5q-1 3.7-1.9 7.4c13.9 14.7 20.1-13.1 1.9-7.4zm-183.7-174.4q3.7-1 7.3-2c5.7-18.1-22.1-11.9-7.3 2zm-344.5-122.1l5.4-5.3c-4.2-18.6-25.2 0.6-5.4 5.3zm-359.4 66.6q1-3.7 2-7.4c-12.9-14-21.5 13.2-2 7.4zm-278 237.3q-1-3.7-1.9-7.4c-18.2-5.7-12 22.1 1.9 7.4zm-122.1 344.5l-5.3-5.4c-18.6 4.2 0.6 25.1 5.3 5.4zm66.6 359.4q-3.7-1-7.4-2c-14 12.9 13.2 21.4 7.4 2zm237.3 277.9q-3.7 1-7.4 2c-5.7 18.2 22.1 12 7.4-2zm344.5 122.1l-5.4 5.4c4.2 18.6 25.1-0.7 5.4-5.4zm359.4-66.5q-1 3.7-2 7.3c12.9 14.1 21.4-13.1 2-7.3zm278-237.3q0.9 3.7 1.9 7.3c18.2 5.7 12-22.1-1.9-7.3zm122-344.5l5.4 5.4c18.6-4.2-0.6-25.2-5.4-5.4zm-66.5-359.4q3.7 1 7.4 2c14-12.9-13.2-21.5-7.4-2zm-337.7-344.8c-0.1-1.3 1.4-1.6 2.9-1.9-2.2-26.7-21.7 0.8-2.9 1.9zm-364.4-62.9c-0.8-1.1 0.3-2.1 1.5-3.1-15.2-22.1-18.4 11.5-1.5 3.1zm-347.1 127.7c-1.2-0.5-0.7-2-0.3-3.5-24.2-11.5-10.1 19.3 0.3 3.5zm-236.8 284.1c-1.3 0.2-1.6-1.3-1.9-2.8-26.7 2.1 0.8 21.7 1.9 2.8zm-62.9 364.5c-1.1 0.8-2.1-0.4-3.1-1.5-22.1 15.2 11.5 18.4 3.1 1.5zm127.7 347.1c-0.5 1.2-2 0.7-3.5 0.2-11.5 24.3 19.3 10.2 3.5-0.2zm284.2 236.8c0.1 1.2-1.4 1.6-2.9 1.9 2.1 26.7 21.7-0.8 2.9-1.9zm364.4 62.9c0.8 1-0.4 2.1-1.5 3.1 15.2 22.1 18.4-11.6 1.5-3.1zm347.1-127.7c1.2 0.5 0.7 2 0.2 3.4 24.3 11.5 10.2-19.2-0.2-3.4zm236.8-284.2c1.3-0.1 1.6 1.4 1.9 2.9 26.7-2.2-0.8-21.7-1.9-2.9zm62.9-364.4c1.1-0.8 2.1 0.3 3.1 1.5 22.1-15.2-11.6-18.4-3.1-1.5zm-127.7-347.2c0.5-1.1 2-0.6 3.4-0.2 11.5-24.2-19.2-10.1-3.4 0.2zm-171.8-175.4c0.5 1.5 1 3-0.2 3.5 10.4 15.8 24.5-15 0.2-3.5zm-348.8-127.3c1.1 1 2.3 2 1.5 3.1 16.9 8.4 13.7-25.2-1.5-3.1zm-365.8 64.1c1.5 0.3 3 0.6 2.9 1.9 18.8-1.1-0.8-28.6-2.9-1.9zm-284.7 238.4c1.4-0.4 2.9-0.9 3.4 0.3 15.8-10.4-14.9-24.5-3.4-0.3zm-127.4 348.9c1-1.2 2-2.3 3.1-1.5 8.4-16.9-25.2-13.7-3.1 1.5zm64.1 365.8c0.3-1.5 0.6-3 1.9-2.9-1.1-18.8-28.6 0.7-1.9 2.9zm238.5 284.7c-0.5-1.4-1-2.9 0.2-3.4-10.4-15.8-24.5 14.9-0.2 3.4zm348.8 127.4c-1.1-1-2.3-2.1-1.5-3.1-16.9-8.5-13.7 25.2 1.5 3.1zm365.8-64.1c-1.5-0.3-3-0.7-2.9-1.9-18.8 1.1 0.8 28.6 2.9 1.9zm284.7-238.5c-1.4 0.5-2.9 1-3.4-0.2-15.8 10.4 14.9 24.5 3.4 0.2zm127.4-348.8c-1 1.1-2 2.3-3.1 1.5-8.5 16.9 25.2 13.7 3.1-1.5zm-64.1-365.8c-0.3 1.5-0.6 3-1.9 2.8 1.1 18.9 28.6-0.7 1.9-2.8zm-354.5-342.9c-1.4 0.3-1.8-0.9-3.4-0.2-13.1-1.8-35.9 8.8-53.6 14.4-22.7 7.1-45.5 9.8-61.4 18.7 1.2 1 2.1 2.4 2.5 4.9 35.1-9.6 81.9-20 116.7-34.6q-0.4-1.6-0.8-3.2zm-362.4-61.5c-1 0.9-2 0-3 1.5-12.3 5-26.7 25.5-39.3 39.2-16 17.6-34.5 31.3-43.8 46.9 1.6 0.3 3.1 1.1 4.6 3.1 25.6-25.9 61-58.3 83.8-88.4q-1.1-1.2-2.3-2.3zm-344.6 127.8c-0.4 1.4-1.7 1.1-1.9 2.9-8.1 10.4-10.3 35.4-14.3 53.6-5.2 23.2-14.3 44.3-14.5 62.5 1.4-0.6 3.2-0.6 5.5 0.4 9.2-35.3 23.6-81 28.4-118.5q-1.6-0.5-3.2-0.9zm-234.5 283.1c0.3 1.3-0.9 1.8-0.2 3.4-1.8 13.1 8.8 35.8 14.4 53.6 7.1 22.6 9.8 45.5 18.7 61.4 1-1.2 2.4-2.2 4.9-2.5-9.6-35.1-20-81.9-34.6-116.8q-1.6 0.4-3.2 0.9zm-61.5 362.3c0.9 1.1 0 2.1 1.5 3.1 5 12.3 25.5 26.7 39.2 39.2 17.6 16.1 31.3 34.6 46.9 43.9 0.3-1.6 1.1-3.1 3.1-4.7-25.9-25.5-58.3-60.9-88.4-83.8zm127.8 344.6c1.4 0.5 1.1 1.8 2.9 1.9 10.4 8.2 35.4 10.4 53.6 14.4 23.2 5.1 44.3 14.3 62.5 14.5-0.5-1.5-0.6-3.2 0.4-5.5-35.3-9.2-81-23.7-118.5-28.4q-0.4 1.6-0.9 3.1zm283.1 234.5c1.3-0.3 1.8 1 3.4 0.2 13.1 1.9 35.8-8.7 53.6-14.3 22.7-7.2 45.5-9.8 61.4-18.7-1.2-1-2.2-2.5-2.5-5-35.1 9.7-81.9 20-116.8 34.7q0.5 1.6 0.9 3.1zm362.4 61.6c1-0.9 2-0.1 3-1.5 12.3-5 26.7-25.5 39.2-39.3 16.1-17.5 34.6-31.2 43.9-46.9-1.6-0.2-3.1-1-4.6-3-25.6 25.9-61 58.3-83.9 88.4zm344.6-127.9c0.5-1.3 1.8-1.1 1.9-2.9 8.2-10.4 10.4-35.4 14.4-53.5 5.1-23.2 14.3-44.4 14.5-62.5-1.5 0.5-3.2 0.6-5.5-0.4-9.2 35.2-23.7 81-28.4 118.5q1.6 0.4 3.1 0.8zm234.5-283c-0.3-1.4 1-1.8 0.3-3.5 1.8-13-8.8-35.8-14.4-53.5-7.2-22.7-9.8-45.6-18.7-61.4-1 1.2-2.4 2.1-5 2.4 9.7 35.1 20.1 82 34.7 116.8q1.6-0.4 3.1-0.8zm61.6-362.4c-0.9-1-0.1-2-1.5-3.1-5-12.2-25.5-26.6-39.2-39.2-17.6-16-31.3-34.5-46.9-43.8-0.3 1.5-1.1 3.1-3.1 4.6 25.9 25.6 58.3 61 88.4 83.8q1.2-1.1 2.3-2.3zm-127.9-344.6c-1.3-0.4-1.1-1.7-2.8-1.9-10.5-8.1-35.4-10.3-53.6-14.3-23.2-5.2-44.3-14.3-62.5-14.5 0.5 1.4 0.6 3.1-0.4 5.5 35.3 9.2 81 23.6 118.5 28.4q0.4-1.6 0.8-3.2zm-171.3-167.3c4.7 37.5 19.2 83.2 28.4 118.4 2.3-0.9 4.1-0.9 5.5-0.3-0.2-18.2-9.4-39.3-14.5-62.5-4-18.2-6.2-43.2-14.3-53.6-0.2-1.8-1.5-1.5-1.9-2.9q-1.6 0.4-3.2 0.9zm-343.8-126.4c22.9 30.1 58.3 62.5 83.9 88.4 1.5-2.1 3-2.9 4.6-3.1-9.3-15.6-27.8-29.4-43.9-46.9-12.5-13.7-26.9-34.2-39.2-39.2-1-1.5-2-0.6-3-1.5zm-361 62.4c34.9 14.6 81.7 25 116.8 34.6 0.4-2.5 1.3-4 2.5-4.9-15.9-8.9-38.7-11.6-61.4-18.8-17.8-5.6-40.5-16.1-53.6-14.3-1.6-0.8-2.1 0.5-3.4 0.2q-0.4 1.6-0.9 3.2zm-281.3 234.5c37.5-4.8 83.2-19.2 118.5-28.4-1-2.4-0.9-4.1-0.4-5.5-18.2 0.2-39.3 9.3-62.5 14.5-18.2 4-43.2 6.2-53.6 14.3-1.8 0.2-1.5 1.5-2.8 1.9q0.4 1.6 0.8 3.2zm-126.4 343.7c30.1-22.8 62.5-58.2 88.4-83.8-2-1.5-2.8-3.1-3.1-4.6-15.6 9.3-29.3 27.7-46.9 43.8-13.7 12.6-34.2 27-39.2 39.2-1.4 1-0.6 2.1-1.5 3.1q1.1 1.2 2.3 2.3zm62.4 360.9c14.6-34.8 25-81.7 34.7-116.8-2.6-0.3-4-1.2-5-2.4-8.9 15.8-11.6 38.7-18.7 61.4-5.6 17.7-16.2 40.4-14.4 53.5-0.7 1.7 0.5 2.1 0.2 3.5q1.6 0.4 3.2 0.8zm234.5 281.4c-4.8-37.5-19.2-83.3-28.4-118.5-2.3 1-4.1 0.9-5.5 0.3 0.2 18.2 9.3 39.3 14.5 62.6 4 18.1 6.2 43.1 14.3 53.5 0.2 1.8 1.5 1.6 1.9 2.9q1.6-0.4 3.2-0.8zm343.7 126.4c-22.8-30.1-58.2-62.5-83.8-88.4-1.5 2-3 2.8-4.6 3 9.3 15.7 27.8 29.4 43.8 46.9 12.6 13.7 27 34.3 39.3 39.2 1 1.5 2 0.6 3 1.6q1.2-1.2 2.3-2.3zm360.9-62.4c-34.8-14.7-81.6-25.1-116.7-34.7-0.4 2.5-1.3 4-2.5 5 15.9 8.9 38.7 11.5 61.4 18.7 17.7 5.6 40.5 16.2 53.6 14.3 1.6 0.8 2-0.5 3.4-0.2q0.4-1.6 0.8-3.1zm281.4-234.5c-37.5 4.7-83.2 19.1-118.5 28.3 1 2.4 0.9 4.1 0.4 5.6 18.2-0.3 39.3-9.4 62.5-14.5 18.2-4.1 43.1-6.3 53.6-14.4 1.7-0.1 1.5-1.5 2.8-1.9q-0.4-1.6-0.8-3.1zm126.4-343.8c-30.1 22.9-62.5 58.2-88.4 83.8 2 1.6 2.8 3.1 3.1 4.6 15.6-9.3 29.3-27.7 46.9-43.8 13.7-12.6 34.2-27 39.2-39.2 1.4-1 0.6-2.1 1.5-3.1zm-62.4-360.9c-14.6 34.8-25 81.7-34.7 116.8 2.6 0.3 4 1.2 5 2.5 8.9-15.9 11.6-38.8 18.7-61.5 5.6-17.7 16.2-40.4 14.4-53.5 0.7-1.6-0.5-2.1-0.2-3.4q-1.6-0.5-3.2-0.9zm-431.6-314.4c3 3.6 15 10.9 7.9 17-1-1.8-0.2-6.7-3.5-4.6-3.9 2.2 0.9 7.6 1.8 10.7 6.6 0.8 9.7-3.2 10.1-8.3 3.2-2.3 6.7 2.6 7.7-0.9-8.4-4-11.2-17.6-24-13.9zm-333.9-23.4c4.4 1.6 18.5 1.9 15.4 10.8-1.8-1.1-3.6-5.7-5.4-2.3-2.2 3.9 4.6 6.1 7 8.4 6.1-2.6 6.7-7.6 4.6-12.3 1.6-3.5 7.1-1 6.1-4.6-9.2 0.8-18.4-9.7-27.7 0zm-300.8 146.6c4.5-0.8 16.9-7.6 18.7 1.7-2.1-0.1-5.9-3.1-5.8 0.7 0 4.5 7 3 10.2 3.8 4-5.3 2.1-10-2.1-12.9-0.4-3.9 5.6-4.5 3-7.1-7.6 5.3-20.8 0.9-24 13.8zm-187.2 277.5c3.5-3 10.8-15.1 17-8-1.9 1-6.7 0.3-4.7 3.5 2.3 3.9 7.6-0.8 10.8-1.7 0.8-6.6-3.2-9.7-8.4-10.2-2.2-3.2 2.7-6.6-0.9-7.6-3.9 8.3-17.6 11.1-13.8 24zm-23.4 333.8c1.5-4.3 1.8-18.4 10.7-15.4-1.1 1.8-5.7 3.6-2.3 5.4 4 2.3 6.2-4.5 8.5-6.9-2.6-6.1-7.7-6.8-12.3-4.6-3.6-1.6-1.1-7.1-4.6-6.2 0.7 9.3-9.7 18.5 0 27.7zm146.6 300.8c-0.8-4.5-7.6-16.8 1.6-18.7 0 2.2-3.1 6 0.7 5.9 4.6-0.1 3.1-7.1 3.9-10.3-5.3-3.9-10-2-13 2.2-3.9 0.4-4.4-5.6-7-3 5.2 7.6 0.8 20.8 13.8 23.9zm277.4 187.3c-3-3.5-15-10.9-7.9-17 1 1.8 0.2 6.7 3.5 4.6 3.9-2.2-0.9-7.6-1.8-10.7-6.5-0.8-9.7 3.2-10.1 8.3-3.2 2.3-6.7-2.6-7.7 0.9 8.4 4 11.2 17.6 24 13.9zm333.9 23.4c-4.4-1.6-18.5-1.9-15.4-10.8 1.8 1.1 3.6 5.7 5.4 2.3 2.2-3.9-4.6-6.1-7-8.4-6 2.6-6.7 7.6-4.6 12.3-1.6 3.5-7 1-6.1 4.6 9.2-0.7 18.4 9.7 27.7 0zm300.8-146.6c-4.5 0.8-16.9 7.6-18.7-1.7 2.1 0.1 5.9 3.1 5.8-0.7 0-4.5-7-3-10.2-3.8-4 5.3-2 10 2.2 12.9 0.3 3.9-5.7 4.5-3.1 7.1 7.7-5.3 20.8-0.9 24-13.8zm187.2-277.5c-3.5 3-10.8 15.1-17 8 1.9-1 6.7-0.3 4.7-3.5-2.3-3.9-7.6 0.8-10.8 1.7-0.8 6.6 3.3 9.7 8.4 10.2 2.2 3.2-2.7 6.6 0.9 7.6 4-8.3 17.6-11.1 13.8-24zm23.4-333.8c-1.5 4.3-1.8 18.4-10.7 15.4 1.1-1.8 5.7-3.6 2.3-5.4-3.9-2.3-6.2 4.5-8.5 6.9 2.6 6.1 7.7 6.8 12.3 4.6 3.6 1.6 1.1 7.1 4.6 6.2-0.7-9.3 9.7-18.5 0-27.7zm-146.6-300.8c0.8 4.5 7.6 16.8-1.6 18.7 0-2.2 3.1-6-0.7-5.9-4.6 0.1-3.1 7.1-3.9 10.3 5.3 3.9 10 2 13-2.2 3.9-0.4 4.4 5.6 7 3-5.2-7.6-0.8-20.8-13.8-23.9zm-88-77.9c-2.5 2.6 3.4 3.2 3.1 7.1-4.2 2.9-6.2 7.7-2.2 12.9 3.2-0.8 10.2 0.7 10.2-3.8 0.1-3.8-3.7-0.8-5.8-0.7 1.8-9.3 14.2-2.5 18.7-1.6-3.2-13-16.3-8.6-24-13.9zm-304.5-132.8c-0.9 3.6 4.5 1.1 6.1 4.6-2.1 4.7-1.4 9.7 4.6 12.3 2.4-2.3 9.2-4.5 7-8.4-1.8-3.4-3.6 1.2-5.4 2.3-3.1-8.9 11-9.2 15.4-10.8-9.3-9.7-18.5 0.8-27.7 0zm-330.2 37.3c1 3.5 4.5-1.4 7.7 0.9 0.4 5.1 3.5 9.1 10.1 8.3 0.9-3.1 5.7-8.4 1.8-10.7-3.3-2.1-2.5 2.8-3.5 4.7-7.1-6.2 4.9-13.5 7.9-17.1-12.8-3.7-15.6 9.9-24 13.9zm-267.2 197.3c2.6 2.6 3.1-3.4 7-3 3 4.2 7.7 6.1 13 2.2-0.8-3.2 0.7-10.2-3.9-10.3-3.8-0.1-0.7 3.7-0.7 5.9-9.2-1.8-2.4-14.2-1.6-18.7-13 3.1-8.6 16.3-13.8 23.9zm-132.8 304.6c3.5 0.9 1-4.6 4.6-6.2 4.6 2.2 9.7 1.5 12.3-4.6-2.3-2.4-4.6-9.1-8.5-6.9-3.4 1.8 1.2 3.6 2.3 5.4-8.9 3-9.2-11.1-10.7-15.4-9.7 9.2 0.7 18.5 0 27.7zm37.2 330.1c3.6-0.9-1.3-4.4 0.9-7.6 5.2-0.5 9.2-3.6 8.4-10.2-3.2-0.9-8.5-5.6-10.8-1.7-2 3.2 2.8 2.5 4.7 3.5-6.2 7.1-13.5-5-17-7.9-3.8 12.8 9.8 15.6 13.8 23.9zm197.4 267.3c2.6-2.6-3.4-3.2-3-7.1 4.1-2.9 6.1-7.6 2.1-12.9-3.2 0.8-10.2-0.7-10.2 3.8-0.1 3.9 3.7 0.8 5.8 0.7-1.8 9.3-14.2 2.5-18.7 1.7 3.2 13 16.4 8.6 24 13.8zm304.5 132.8c0.9-3.5-4.5-1-6.1-4.6 2.1-4.7 1.4-9.7-4.6-12.3-2.4 2.3-9.2 4.5-7 8.5 1.8 3.3 3.6-1.2 5.4-2.4 3.1 8.9-11 9.2-15.4 10.8 9.3 9.7 18.5-0.7 27.7 0zm330.2-37.3c-1-3.5-4.5 1.4-7.7-0.9-0.4-5.1-3.5-9.1-10.1-8.3-0.9 3.1-5.7 8.5-1.8 10.8 3.3 2 2.5-2.9 3.5-4.7 7.1 6.2-4.9 13.5-7.9 17 12.8 3.7 15.6-9.9 24-13.9zm267.3-197.3c-2.7-2.6-3.2 3.4-7.1 3-3-4.2-7.7-6.1-13-2.1 0.8 3.2-0.6 10.2 3.9 10.2 3.8 0.1 0.7-3.7 0.7-5.8 9.2 1.8 2.4 14.1 1.6 18.7 13-3.2 8.6-16.4 13.9-24zm132.8-304.6c-3.6-0.9-1.1 4.6-4.7 6.2-4.6-2.2-9.7-1.5-12.3 4.6 2.3 2.4 4.6 9.2 8.5 6.9 3.4-1.8-1.2-3.6-2.3-5.4 8.9-3 9.2 11.1 10.8 15.4 9.6-9.2-0.8-18.4 0-27.7zm-37.3-330.1c-3.6 1 1.3 4.5-0.9 7.6-5.1 0.5-9.2 3.6-8.4 10.2 3.2 0.9 8.5 5.6 10.8 1.7 2-3.2-2.8-2.5-4.7-3.5 6.2-7.1 13.5 5 17 8 3.8-12.9-9.8-15.6-13.8-24zm-429.8-391c9.3 2.7 18.6 4.7 24.8 1.2-6.3-2.9-18.5-3.7-21.2-7.8 12.3 1.7 21.5 8.8 37.3 4.6 0.2-2.7-4.9-3.5-2.5-4.9 4.6-2.7 8.4-5.9 8.3-11.3-4.1 0.4-7-1.1-12.1 1-1.5-8-9.8-9.6-15.9-4.7-0.2 2.6-0.6 8.5 4 6.8 3.1-0.3-2.3-5.5 0.7-5.8 9.2 4.9-0.2 10.7-8.2 11.2-4 0.2-8.2-0.1-12.4-0.6-4-1.7-7.8-3.5-11.1-5.7-6.8-4.4-12-14.2-1.5-13.8 2.5 1.7-4.8 3.5-2.3 5.3 3.1 3.9 5.7-1.5 6.9-3.8-2.9-7.4-10.9-10-16.2-3.9-3.3-4.4-6.6-4.5-10-6.9-2.7 4.6-1.1 9.3 1.6 13.9 1.4 2.4-3.5 0.6-4.6 3 11.5 11.5 23 10 34.6 14.7-4.4 2.2-15.4-3.2-22.3-3.9 3.7 6.1 12.7 9.1 22.1 11.4zm290.3 167.6c6.7 7.1 13.8 13.3 21 13.5-4.1-5.7-14.3-12.5-14.5-17.4 9.8 7.7 14.2 18.4 29.9 22.7 1.6-2.2-2.4-5.5 0.4-5.6 5.3 0 10.1-0.9 12.7-5.6-3.7-1.7-5.4-4.5-10.9-5.1 2.7-7.7-3.6-13.3-11.4-12.1-1.5 2.2-4.8 7.1 0.1 7.9 2.8 1.3 0.7-5.9 3.5-4.7 5.5 8.9-5.5 9.2-12.8 5.6-3.5-1.8-7-4.1-10.4-6.7-2.6-3.5-4.9-6.9-6.7-10.5-3.7-7.2-3.3-18.2 5.5-12.7 1.3 2.8-5.9 0.7-4.6 3.5 0.7 4.9 5.6 1.5 7.9 0.1 1.2-7.8-4.4-14.1-12.1-11.4-0.7-5.5-3.5-7.3-5.2-11-4.7 2.6-5.6 7.5-5.6 12.8 0 2.8-3.3-1.2-5.5 0.3 4.2 15.7 15 20.2 22.7 30-4.9-0.3-11.8-10.4-17.4-14.5 0.1 7.2 6.4 14.2 13.4 20.9zm167.7 290.4c2.3 9.4 5.2 18.4 11.4 22.1-0.7-6.9-6.1-17.9-3.9-22.3 4.6 11.5 3.1 23.1 14.6 34.6 2.5-1.1 0.6-6 3.1-4.6 4.6 2.7 9.2 4.3 13.8 1.5-2.3-3.3-2.5-6.6-6.9-10 6.2-5.3 3.5-13.2-3.8-16.1-2.4 1.2-7.7 3.8-3.9 6.9 1.8 2.5 3.6-4.8 5.4-2.3 0.3 10.4-9.4 5.2-13.8-1.5-2.2-3.4-4-7.1-5.7-11.1-0.6-4.3-0.8-8.4-0.6-12.4 0.5-8.1 6.3-17.5 11.2-8.2-0.3 3-5.5-2.4-5.8 0.6-1.8 4.7 4.1 4.2 6.8 4.1 4.9-6.2 3.2-14.4-4.8-15.9 2.2-5.1 0.7-8 1-12.1-5.3-0.1-8.5 3.6-11.2 8.2-1.4 2.5-2.3-2.7-5-2.4-4.1 15.7 2.9 25 4.7 37.3-4.1-2.7-5-14.9-7.8-21.3-3.5 6.3-1.6 15.6 1.2 24.9zm0 335.2c-2.8 9.4-4.7 18.6-1.2 24.9 2.8-6.3 3.7-18.6 7.8-21.2-1.8 12.3-8.8 21.5-4.7 37.2 2.7 0.3 3.6-4.8 5-2.4 2.7 4.6 5.9 8.3 11.2 8.2-0.3-4 1.2-7-1-12.1 8-1.5 9.7-9.7 4.8-15.9-2.7-0.1-8.6-0.5-6.8 4.1 0.3 3 5.5-2.4 5.8 0.7-4.9 9.2-10.7-0.2-11.2-8.3-0.2-4 0-8.1 0.6-12.4 1.7-4 3.5-7.7 5.7-11 4.4-6.8 14.1-12 13.8-1.6-1.8 2.5-3.6-4.8-5.4-2.3-3.8 3.1 1.5 5.7 3.9 6.9 7.3-2.9 10-10.8 3.8-16.1 4.4-3.3 4.6-6.7 6.9-10-4.6-2.8-9.2-1.1-13.8 1.5-2.5 1.4-0.6-3.4-3.1-4.6-11.5 11.6-10 23.1-14.6 34.6-2.2-4.3 3.2-15.4 3.9-22.3-6.2 3.7-9.1 12.7-11.4 22.1zm-167.7 290.4c-7 6.7-13.3 13.7-13.4 20.9 5.6-4 12.5-14.2 17.4-14.5-7.7 9.8-18.5 14.3-22.7 30 2.2 1.5 5.5-2.5 5.5 0.3 0 5.4 0.9 10.2 5.6 12.8 1.7-3.7 4.5-5.5 5.2-11 7.7 2.7 13.3-3.6 12.1-11.4-2.3-1.4-7.2-4.8-7.9 0.1-1.3 2.8 5.9 0.8 4.6 3.5-8.8 5.6-9.2-5.5-5.5-12.7 1.8-3.6 4.1-7 6.7-10.5 3.4-2.6 6.9-4.9 10.4-6.7 7.3-3.6 18.3-3.3 12.8 5.6-2.8 1.3-0.7-5.9-3.5-4.7-4.9 0.8-1.6 5.7-0.1 7.9 7.8 1.2 14.1-4.4 11.4-12 5.5-0.7 7.2-3.5 10.9-5.2-2.6-4.7-7.4-5.6-12.7-5.6-2.8 0 1.2-3.3-0.4-5.5-15.7 4.2-20.1 14.9-29.9 22.6 0.2-4.9 10.4-11.7 14.5-17.4-7.2 0.2-14.3 6.5-21 13.5zm-290.3 167.6c-9.4 2.3-18.4 5.3-22.1 11.4 6.9-0.7 17.9-6.1 22.3-3.8-11.6 4.6-23.1 3.1-34.6 14.6 1.1 2.4 6 0.6 4.6 3.1-2.7 4.6-4.3 9.2-1.6 13.8 3.4-2.4 6.7-2.5 10-6.9 5.3 6.2 13.3 3.5 16.2-3.9-1.2-2.3-3.8-7.7-6.9-3.8-2.5 1.8 4.8 3.6 2.3 5.4-10.5 0.3-5.3-9.4 1.5-13.9 3.3-2.2 7.1-4 11.1-5.7 4.2-0.5 8.4-0.8 12.4-0.6 8 0.5 17.4 6.3 8.2 11.3-3-0.4 2.4-5.5-0.7-5.9-4.6-1.7-4.2 4.2-4.1 6.8 6.2 5 14.5 3.3 16-4.7 5.1 2.2 8 0.6 12.1 1 0-5.4-3.7-8.6-8.3-11.2-2.4-1.5 2.7-2.3 2.5-5-15.8-4.2-25 2.9-37.3 4.6 2.7-4.1 14.9-4.9 21.2-7.8-6.2-3.4-15.5-1.5-24.8 1.2zm-335.3 0c-9.3-2.7-18.5-4.6-24.8-1.2 6.3 2.9 18.5 3.7 21.2 7.8-12.3-1.7-21.5-8.8-37.3-4.6-0.2 2.7 4.9 3.5 2.5 5-4.6 2.6-8.3 5.8-8.3 11.2 4.1-0.4 7 1.2 12.1-1 1.5 8 9.8 9.7 16 4.7 0.1-2.6 0.5-8.5-4.1-6.8-3.1 0.4 2.3 5.5-0.7 5.9-9.2-5 0.2-10.8 8.2-11.3 4-0.2 8.2 0.1 12.5 0.6 3.9 1.7 7.7 3.5 11 5.7 6.8 4.5 12 14.2 1.5 13.9-2.4-1.8 4.8-3.6 2.3-5.4-3.1-3.9-5.6 1.5-6.9 3.8 2.9 7.4 10.9 10.1 16.2 3.9 3.3 4.4 6.6 4.5 10 6.9 2.7-4.6 1.1-9.2-1.6-13.8-1.4-2.5 3.5-0.7 4.6-3.1-11.5-11.5-23-10-34.6-14.6 4.4-2.3 15.4 3.1 22.3 3.8-3.7-6.1-12.6-9.1-22.1-11.4zm-290.3-167.6c-6.7-7-13.8-13.3-21-13.5 4.1 5.7 14.3 12.5 14.5 17.4-9.8-7.7-14.2-18.4-29.9-22.6-1.6 2.2 2.4 5.5-0.4 5.5-5.3 0-10.1 0.9-12.7 5.6 3.7 1.7 5.5 4.5 11 5.2-2.8 7.6 3.5 13.2 11.4 12 1.4-2.2 4.7-7.1-0.2-7.9-2.8-1.2-0.7 6-3.5 4.7-5.5-8.9 5.5-9.2 12.8-5.6 3.5 1.8 7 4.1 10.4 6.7 2.6 3.5 5 6.9 6.7 10.5 3.7 7.2 3.3 18.3-5.5 12.7-1.3-2.7 5.9-0.7 4.6-3.5-0.7-4.9-5.6-1.5-7.9-0.1-1.1 7.8 4.4 14.1 12.1 11.4 0.7 5.5 3.5 7.3 5.2 11 4.7-2.6 5.6-7.4 5.6-12.8 0-2.8 3.3 1.2 5.5-0.3-4.2-15.7-15-20.2-22.6-30 4.8 0.3 11.7 10.5 17.3 14.5-0.1-7.2-6.4-14.2-13.4-20.9zm-167.6-290.4c-2.4-9.4-5.3-18.4-11.4-22.1 0.6 6.9 6 17.9 3.8 22.3-4.6-11.5-3.1-23-14.6-34.6-2.5 1.2-0.6 6-3.1 4.6-4.6-2.6-9.2-4.3-13.8-1.5 2.3 3.3 2.5 6.7 6.9 10-6.2 5.3-3.5 13.2 3.8 16.1 2.4-1.2 7.7-3.8 3.9-6.9-1.8-2.5-3.6 4.8-5.4 2.3-0.3-10.4 9.4-5.2 13.8 1.6 2.2 3.3 4.1 7 5.7 11 0.6 4.3 0.9 8.4 0.6 12.4-0.4 8.1-6.3 17.5-11.2 8.3 0.3-3.1 5.5 2.3 5.8-0.7 1.8-4.6-4.1-4.2-6.8-4.1-4.9 6.2-3.2 14.4 4.8 15.9-2.2 5.1-0.6 8.1-1 12.1 5.4 0.1 8.5-3.6 11.2-8.2 1.4-2.5 2.3 2.7 5 2.4 4.2-15.7-2.9-24.9-4.7-37.2 4.1 2.6 5 14.9 7.8 21.2 3.5-6.3 1.6-15.5-1.1-24.9zm0-335.2c2.7-9.3 4.6-18.6 1.1-24.9-2.8 6.4-3.7 18.6-7.8 21.3 1.8-12.3 8.9-21.6 4.7-37.3-2.7-0.3-3.6 4.9-5 2.4-2.7-4.6-5.8-8.3-11.2-8.2 0.4 4.1-1.2 7 1 12.1-8 1.5-9.7 9.7-4.8 15.9 2.7 0.1 8.6 0.6 6.8-4.1-0.3-3-5.5 2.4-5.8-0.7 4.9-9.2 10.8 0.2 11.2 8.3 0.3 4 0 8.1-0.6 12.4-1.6 4-3.5 7.7-5.7 11.1-4.4 6.7-14.1 11.9-13.8 1.5 1.8-2.5 3.6 4.8 5.4 2.3 3.8-3.1-1.5-5.7-3.9-6.9-7.3 2.9-10 10.8-3.8 16.1-4.4 3.4-4.6 6.7-6.9 10 4.6 2.8 9.2 1.1 13.8-1.5 2.5-1.4 0.6 3.5 3.1 4.6 11.5-11.5 10-23.1 14.6-34.6 2.2 4.4-3.2 15.4-3.9 22.3 6.2-3.7 9.1-12.7 11.5-22.1zm167.6-290.4c7-6.7 13.3-13.7 13.4-20.9-5.6 4.1-12.5 14.2-17.3 14.5 7.6-9.8 18.4-14.3 22.6-30-2.2-1.5-5.5 2.5-5.5-0.3 0-5.3-0.9-10.2-5.6-12.8-1.7 3.7-4.5 5.5-5.2 11-7.7-2.7-13.2 3.6-12.1 11.4 2.3 1.4 7.2 4.8 7.9-0.1 1.3-2.8-5.9-0.7-4.6-3.5 8.8-5.5 9.2 5.5 5.5 12.7-1.7 3.6-4.1 7-6.7 10.5-3.4 2.6-6.9 4.9-10.4 6.7-7.3 3.6-18.3 3.3-12.8-5.6 2.8-1.2 0.7 6 3.5 4.7 4.9-0.8 1.6-5.7 0.2-7.9-7.9-1.2-14.2 4.4-11.4 12.1-5.5 0.6-7.3 3.4-11 5.1 2.6 4.7 7.4 5.6 12.7 5.6 2.8 0.1-1.2 3.4 0.4 5.6 15.7-4.3 20.1-15 29.9-22.7-0.2 4.9-10.4 11.7-14.5 17.4 7.2-0.2 14.3-6.4 21-13.5zm290.3-167.6c9.5-2.3 18.4-5.3 22.1-11.4-6.9 0.7-17.9 6.1-22.3 3.9 11.6-4.7 23.1-3.2 34.6-14.7-1.1-2.4-6-0.6-4.6-3 2.7-4.6 4.3-9.3 1.6-13.9-3.4 2.4-6.7 2.5-10 6.9-5.3-6.1-13.3-3.5-16.2 3.9 1.3 2.3 3.8 7.7 7 3.8 2.4-1.8-4.8-3.6-2.4-5.3 10.5-0.4 5.3 9.4-1.5 13.8-3.3 2.2-7.1 4-11 5.7-4.3 0.5-8.5 0.8-12.5 0.6-8-0.5-17.4-6.3-8.2-11.2 3 0.3-2.4 5.5 0.7 5.8 4.6 1.8 4.2-4.2 4.1-6.8-6.2-4.9-14.5-3.3-15.9 4.7-5.1-2.1-8.1-0.6-12.2-1 0 5.4 3.7 8.6 8.3 11.3 2.4 1.4-2.7 2.2-2.5 4.9 15.8 4.2 25-2.9 37.3-4.6-2.7 4.1-14.9 4.9-21.2 7.8 6.3 3.5 15.5 1.5 24.8-1.2zm340.7 4.2c0.4 2.8 1.6 4.4 4.3 3.3-0.5-2.8-1.6-4.4-4.3-3.3zm-333.9-3.3c1.8 2.2 3.6 3 5.4 0.8-1.8-2.2-3.6-3-5.4-0.8zm-290.8 164.2c2.7 1 4.6 0.8 5-2.1-2.6-1-4.6-0.8-5 2.1zm-169.8 287.5c2.8-0.4 4.4-1.6 3.4-4.3-2.9 0.5-4.4 1.6-3.4 4.3zm-3.2 333.9c2.2-1.8 3-3.6 0.7-5.4-2.2 1.8-3 3.6-0.7 5.4zm164.1 290.8c1-2.7 0.8-4.6-2-5.1-1.1 2.7-0.8 4.7 2 5.1zm287.5 169.8c-0.4-2.9-1.6-4.5-4.2-3.4 0.4 2.8 1.6 4.4 4.2 3.4zm333.9 3.2c-1.8-2.2-3.5-3-5.3-0.8 1.8 2.3 3.5 3.1 5.3 0.8zm290.8-164.1c-2.6-1.1-4.6-0.9-5 2 2.7 1 4.6 0.8 5-2zm169.8-287.6c-2.8 0.5-4.4 1.6-3.3 4.3 2.8-0.4 4.4-1.6 3.3-4.3zm3.3-333.9c-2.3 1.8-3.1 3.6-0.8 5.4 2.2-1.8 3-3.6 0.8-5.4zm-164.2-290.8c-1 2.7-0.8 4.7 2 5.1 1.1-2.7 0.9-4.6-2-5.1zm-13.9-10.9c0.4 2.9 2.4 3.1 5 2.1-0.4-2.9-2.3-3.1-5-2.1zm-291.1-161.3c1.8 2.3 3.6 1.5 5.3-0.8-1.7-2.2-3.5-1.4-5.3 0.8zm-332.8 5.8c2.6 1.1 3.8-0.5 4.2-3.3-2.6-1.1-3.8 0.5-4.2 3.3zm-285.3 171.5c2.8-0.4 3-2.4 2-5.1-2.9 0.5-3.1 2.4-2 5.1zm-161.4 291.1c2.3-1.8 1.5-3.6-0.7-5.4-2.3 1.8-1.5 3.6 0.7 5.4zm5.9 332.8c1-2.7-0.6-3.8-3.4-4.3-1 2.7 0.5 3.9 3.4 4.3zm171.4 285.3c-0.4-2.8-2.3-3-5-2 0.4 2.8 2.4 3 5 2zm291.2 161.4c-1.8-2.3-3.6-1.5-5.4 0.7 1.8 2.3 3.6 1.5 5.4-0.7zm332.8-5.9c-2.7-1-3.9 0.5-4.3 3.4 2.7 1 3.8-0.6 4.3-3.4zm285.3-171.4c-2.9 0.4-3.1 2.3-2.1 5 2.9-0.4 3.1-2.4 2.1-5zm161.3-291.2c-2.3 1.8-1.5 3.6 0.8 5.4 2.2-1.8 1.4-3.6-0.8-5.4zm-5.8-332.8c-1.1 2.7 0.5 3.9 3.3 4.3 1.1-2.7-0.5-3.8-3.3-4.3zm-453.1-438.7c1.8 1.8 4.9 2.7 6.3 5.2-3.6 0-2.8 2.5-4.7 3.5 1.1 5.8 4.2 8.1 5 14.4 3.1-0.9 6.2 1.6 7.7-0.9-2.7-11.9-6.3-22-13.2-26.4-8.1 0.4-16.3 7.3-24.5 16.3 0 3 3.9 2.3 6.2 4.6 3.8-5.1 7.7-5.5 11.5-10-1.1-1.8 0.8-3.6-2.3-5.4 2.5-1.4 5.6-0.6 8-1.3zm285.9 165c0.7 2.5 2.9 4.8 2.9 7.7-3.1-1.8-3.7 0.8-5.8 0.7-2 5.6-0.5 9.1-2.9 14.9 3.1 0.8 4.5 4.6 7.1 3.1 3.6-11.6 5.6-22.1 1.8-29.4-7.3-3.8-17.8-1.8-29.4 1.8-1.5 2.6 2.3 4 3 7.1 5.9-2.5 9.4-0.9 15-2.9-0.1-2.1 2.5-2.7 0.7-5.8 2.9 0 5.2 2.2 7.6 2.8zm165.1 286c-0.7 2.4 0.1 5.5-1.3 8-1.8-3.1-3.6-1.2-5.4-2.3-4.5 3.8-5 7.7-10 11.5 2.3 2.3 1.6 6.2 4.6 6.2 8.9-8.2 15.9-16.4 16.2-24.6-4.3-6.9-14.4-10.5-26.3-13.1-2.6 1.5 0 4.6-0.9 7.7 6.3 0.8 8.6 3.9 14.4 5 1-1.9 3.5-1.1 3.5-4.7 2.5 1.4 3.4 4.5 5.2 6.3zm0 330.1c-1.8 1.8-2.7 4.9-5.2 6.3 0-3.6-2.5-2.8-3.5-4.7-5.8 1-8.1 4.2-14.4 5 0.9 3.1-1.7 6.1 0.9 7.6 11.9-2.6 22-6.2 26.3-13.1-0.3-8.2-7.3-16.3-16.2-24.5-3 0-2.3 3.9-4.6 6.1 5 3.9 5.5 7.7 10 11.6 1.8-1.2 3.6 0.8 5.4-2.3 1.4 2.4 0.6 5.5 1.3 8zm-165.1 285.9c-2.4 0.6-4.7 2.9-7.6 2.9 1.8-3.2-0.8-3.7-0.7-5.9-5.6-2-9.1-0.4-15-2.9-0.7 3.2-4.5 4.6-3 7.1 11.6 3.7 22.1 5.6 29.4 1.8 3.8-7.2 1.8-17.8-1.8-29.3-2.6-1.5-4 2.2-7.1 3 2.4 5.9 0.9 9.4 2.9 15 2.1-0.1 2.7 2.5 5.8 0.7 0 2.8-2.2 5.1-2.9 7.6zm-285.9 165.1c-2.4-0.7-5.5 0.1-8-1.4 3.1-1.8 1.2-3.6 2.3-5.4-3.8-4.5-7.7-4.9-11.5-9.9-2.3 2.3-6.2 1.6-6.2 4.6 8.2 8.9 16.4 15.9 24.5 16.2 6.9-4.4 10.5-14.5 13.2-26.3-1.5-2.6-4.6 0-7.7-0.9-0.8 6.3-3.9 8.5-5 14.4 1.9 1 1.1 3.5 4.7 3.5-1.4 2.5-4.5 3.3-6.3 5.2zm-330.1 0c-1.8-1.9-4.9-2.7-6.3-5.2 3.6 0 2.8-2.5 4.7-3.5-1.1-5.9-4.2-8.1-5-14.4-3.1 0.9-6.1-1.7-7.6 0.9 2.6 11.8 6.2 21.9 13.1 26.3 8.2-0.3 16.3-7.3 24.5-16.2 0-3-3.9-2.3-6.1-4.6-3.9 5-7.7 5.4-11.6 9.9 1.2 1.8-0.8 3.6 2.3 5.4-2.4 1.5-5.6 0.7-8 1.4zm-285.9-165.1c-0.6-2.5-2.9-4.8-2.9-7.6 3.1 1.8 3.7-0.8 5.9-0.7 2-5.6 0.4-9.1 2.8-15-3.1-0.8-4.5-4.5-7-3-3.7 11.5-5.6 22.1-1.8 29.3 7.2 3.8 17.8 1.9 29.3-1.8 1.5-2.5-2.2-3.9-3-7-5.9 2.4-9.4 0.8-15 2.8 0.1 2.2-2.5 2.7-0.7 5.9-2.8 0-5.1-2.3-7.6-2.9zm-165.1-285.9c0.7-2.5-0.1-5.6 1.4-8 1.8 3.1 3.6 1.1 5.3 2.3 4.6-3.9 5-7.7 10-11.6-2.3-2.2-1.6-6.1-4.6-6.1-8.9 8.2-15.9 16.3-16.2 24.5 4.4 6.9 14.5 10.5 26.3 13.1 2.6-1.5 0-4.5 0.9-7.6-6.3-0.8-8.5-4-14.4-5-1 1.9-3.5 1.1-3.5 4.7-2.5-1.4-3.4-4.5-5.2-6.3zm0-330.1c1.8-1.8 2.7-4.9 5.2-6.3 0 3.6 2.5 2.8 3.5 4.7 5.9-1.1 8.1-4.2 14.4-5-0.9-3.1 1.7-6.2-0.9-7.7-11.8 2.6-21.9 6.2-26.3 13.1 0.3 8.2 7.3 16.4 16.2 24.6 3 0 2.3-3.9 4.6-6.2-5-3.8-5.4-7.7-10-11.5-1.7 1.1-3.5-0.8-5.3 2.3-1.5-2.5-0.7-5.6-1.4-8zm165.1-286c2.5-0.6 4.8-2.8 7.6-2.8-1.8 3.1 0.8 3.7 0.7 5.8 5.6 2 9.1 0.4 15 2.9 0.8-3.1 4.5-4.5 3-7.1-11.5-3.6-22.1-5.6-29.3-1.8-3.8 7.3-1.9 17.8 1.8 29.4 2.5 1.5 3.9-2.3 7-3-2.4-5.9-0.8-9.4-2.9-15-2.1 0.1-2.7-2.5-5.8-0.7 0-2.9 2.3-5.2 2.9-7.7zm285.9-165c2.4 0.7 5.6-0.1 8 1.3-3.1 1.8-1.1 3.6-2.3 5.4 3.9 4.5 7.7 4.9 11.6 10 2.2-2.3 6.1-1.6 6.1-4.6-8.2-9-16.3-15.9-24.5-16.3-6.9 4.4-10.5 14.5-13.1 26.4 1.5 2.5 4.5 0 7.6 0.9 0.8-6.3 3.9-8.6 5-14.4-1.9-1-1.1-3.5-4.7-3.5 1.4-2.5 4.5-3.4 6.3-5.2zm320.1 37.5c4.3-0.8 8.7-2 12.9-3.3 2.9 1.8 10.6 7.5 6.5 11.8q-0.8-4-3.5-4.7c-2.6 3.1-0.2 7.3 3.3 8.1 12.1-3.9 4.5-17.5-4.5-16.8 1-2.2 6.2-4.3 2.8-6.4-7.3 0.3-8.9 8.5-15.2 6.4 1.9-4 8.1-5.4 7.2-11-1.7-0.2-3.4-0.3-5.2-0.3-1.5-0.9-3.1-1.7-4.6-2.3-3.6 4.4 1.1 8.7 0.8 13.1-6.5-1.3-3.9-9.2-10-13.1-4 0.1-0.6 4.5-0.8 6.9-7.5-5.1-20.8 2.9-12.3 12.3 3.4 1.1 7.6-1.4 6.9-5.4q-2.7-0.7-5.4 2.4c-1.4-5.8 8.2-6.9 11.6-7 2.9 3.3 6.2 6.4 9.5 9.3zm268.5 155c4.1 1.5 8.5 2.7 12.8 3.6 1.6 3 5.5 11.8-0.3 13.5q1.3-3.9-0.7-5.8c-3.7 1.4-3.7 6.2-1.2 8.6 12.5 2.7 12.7-12.9 4.5-16.8 2-1.4 7.6-0.6 5.7-4.1-6.5-3.4-12 2.9-16.4-2.1 3.7-2.4 9.8-0.6 11.7-5.9-1.3-1-2.7-2-4.3-2.8-0.8-1.6-1.8-3-2.8-4.3-5.3 1.9-3.5 8-5.9 11.7-5-4.4 1.3-9.9-2.1-16.4-3.5-1.9-2.7 3.7-4.1 5.7-3.9-8.2-19.5-8-16.8 4.5 2.4 2.5 7.2 2.5 8.6-1.2q-1.9-2-5.8-0.7c1.7-5.8 10.5-1.9 13.5-0.3 0.9 4.3 2.1 8.7 3.6 12.8zm155 268.5c2.9 3.3 6 6.6 9.3 9.5-0.1 3.4-1.2 13-7 11.6q3.1-2.7 2.4-5.4c-4-0.7-6.5 3.5-5.4 6.9 9.4 8.5 17.4-4.8 12.3-12.3 2.4-0.2 6.8 3.2 6.9-0.8-3.9-6.1-11.8-3.5-13.1-10 4.4-0.3 8.7 4.4 13.1 0.8-0.6-1.5-1.4-3.1-2.3-4.6 0-1.8-0.1-3.5-0.3-5.2-5.6-0.9-7 5.3-11 7.2-2.1-6.3 6.1-7.9 6.4-15.2-2.1-3.4-4.2 1.8-6.4 2.8 0.7-9-12.9-16.6-16.8-4.5 0.8 3.5 5 5.9 8.1 3.3q-0.7-2.7-4.7-3.5c4.3-4.1 10 3.6 11.8 6.5-1.3 4.2-2.5 8.6-3.3 12.9zm0 310.1c0.8 4.3 2 8.6 3.3 12.8-1.8 3-7.5 10.7-11.8 6.5q4-0.8 4.7-3.5c-3.1-2.5-7.3-0.1-8.1 3.3 3.9 12.2 17.5 4.6 16.8-4.5 2.2 1 4.3 6.3 6.4 2.8-0.3-7.2-8.5-8.9-6.4-15.2 4 2 5.4 8.2 11 7.2 0.2-1.6 0.3-3.3 0.3-5.1 0.9-1.6 1.7-3.1 2.3-4.6-4.4-3.6-8.7 1-13.1 0.7 1.3-6.5 9.2-3.8 13.1-10-0.1-4-4.5-0.5-6.9-0.7 5.1-7.5-2.9-20.9-12.3-12.3-1.1 3.3 1.4 7.5 5.4 6.9q0.7-2.7-2.4-5.4c5.8-1.5 6.9 8.1 7 11.5-3.3 3-6.4 6.2-9.3 9.6zm-155 268.5c-1.5 4.1-2.7 8.5-3.6 12.7-3 1.7-11.8 5.5-13.5-0.2q3.9 1.3 5.8-0.7c-1.4-3.8-6.2-3.8-8.6-1.2-2.7 12.5 12.9 12.7 16.8 4.5 1.4 2 0.6 7.5 4.1 5.6 3.4-6.4-2.9-11.9 2.1-16.3 2.4 3.6 0.6 9.7 5.9 11.7 1-1.3 2-2.7 2.8-4.3 1.6-0.9 3-1.8 4.3-2.8-1.9-5.3-8-3.5-11.7-5.9 4.4-5 9.9 1.3 16.4-2.1 1.9-3.6-3.7-2.8-5.7-4.2 8.2-3.9 8-19.4-4.5-16.8-2.5 2.4-2.5 7.3 1.2 8.7q2-2 0.7-5.8c5.8 1.6 1.9 10.5 0.3 13.4-4.3 1-8.7 2.2-12.8 3.7zm-268.5 155c-3.3 2.8-6.6 6-9.5 9.2-3.4 0-13-1.1-11.6-6.9q2.7 3.1 5.4 2.3c0.7-4-3.5-6.4-6.9-5.4-8.5 9.5 4.8 17.5 12.3 12.3 0.2 2.4-3.2 6.9 0.8 7 6.1-3.9 3.5-11.8 10-13.1 0.3 4.3-4.4 8.7-0.8 13.1 1.5-0.7 3.1-1.4 4.6-2.4 1.8 0.1 3.5 0 5.2-0.3 0.9-5.5-5.3-7-7.2-10.9 6.3-2.1 7.9 6.1 15.2 6.3 3.4-2.1-1.8-4.2-2.8-6.3 9 0.7 16.6-12.9 4.5-16.9-3.5 0.8-5.9 5-3.3 8.2q2.7-0.7 3.5-4.7c4.1 4.3-3.6 10-6.5 11.7-4.2-1.3-8.6-2.4-12.9-3.2zm-310.1 0c-4.3 0.8-8.6 1.9-12.8 3.2-3-1.7-10.7-7.4-6.5-11.7q0.8 4 3.5 4.7c2.5-3.2 0.1-7.4-3.3-8.2-12.2 4-4.6 17.6 4.5 16.9-1.1 2.1-6.3 4.2-2.8 6.3 7.2-0.2 8.9-8.4 15.2-6.3-2 3.9-8.2 5.4-7.2 10.9 1.6 0.3 3.3 0.4 5.1 0.3 1.6 1 3.1 1.7 4.6 2.4 3.6-4.4-1-8.8-0.7-13.1 6.5 1.3 3.8 9.2 10 13.1 4-0.1 0.5-4.6 0.7-7 7.5 5.2 20.9-2.8 12.3-12.3-3.3-1-7.6 1.4-6.9 5.4q2.7 0.8 5.4-2.3c1.4 5.8-8.1 6.9-11.5 6.9-3-3.2-6.2-6.4-9.6-9.2zm-268.5-155c-4.1-1.5-8.5-2.7-12.7-3.7-1.7-2.9-5.5-11.8 0.2-13.4q-1.3 3.8 0.7 5.8c3.8-1.4 3.8-6.3 1.2-8.7-12.5-2.6-12.7 12.9-4.5 16.8-2 1.4-7.5 0.6-5.6 4.2 6.4 3.4 11.9-2.9 16.3 2.1-3.6 2.4-9.7 0.5-11.7 5.9 1.3 1 2.7 1.9 4.3 2.8 0.9 1.6 1.8 3 2.8 4.3 5.3-2 3.5-8.1 5.9-11.7 5 4.4-1.3 9.9 2.1 16.3 3.6 1.9 2.8-3.6 4.2-5.6 3.9 8.2 19.4 8 16.8-4.5-2.4-2.6-7.3-2.6-8.7 1.2q2 2 5.8 0.7c-1.6 5.7-10.5 1.9-13.4 0.2-1-4.2-2.2-8.6-3.7-12.7zm-155-268.5c-2.8-3.4-6-6.6-9.2-9.6 0-3.4 1.1-12.9 6.9-11.5q-3.1 2.7-2.3 5.4c4 0.7 6.4-3.6 5.4-6.9-9.5-8.6-17.5 4.8-12.3 12.3-2.4 0.2-6.9-3.3-7 0.7 3.9 6.2 11.8 3.5 13.1 10-4.3 0.3-8.7-4.3-13.1-0.7 0.7 1.5 1.4 3 2.4 4.6-0.1 1.8 0 3.5 0.3 5.1 5.5 1 7-5.2 10.9-7.2 2.1 6.3-6.1 8-6.3 15.2 2.1 3.5 4.2-1.7 6.3-2.8-0.7 9.1 12.9 16.7 16.9 4.5-0.8-3.4-5-5.8-8.2-3.3q0.7 2.7 4.7 3.5c-4.3 4.2-10-3.5-11.7-6.5 1.3-4.2 2.4-8.5 3.2-12.8zm0-310.1c-0.8-4.3-1.9-8.7-3.2-12.9 1.7-2.9 7.4-10.6 11.7-6.5q-4 0.8-4.7 3.5c3.2 2.6 7.4 0.2 8.2-3.3-4-12.1-17.6-4.5-16.9 4.5-2.1-1-4.2-6.2-6.3-2.8 0.2 7.3 8.4 8.9 6.3 15.2-3.9-1.9-5.4-8.1-10.9-7.2-0.3 1.7-0.4 3.4-0.3 5.2-1 1.5-1.7 3.1-2.4 4.6 4.4 3.6 8.8-1.1 13.1-0.8-1.3 6.5-9.2 3.9-13.1 10 0.1 4 4.6 0.6 7 0.8-5.2 7.5 2.8 20.8 12.3 12.3 1-3.4-1.4-7.6-5.4-6.9q-0.8 2.7 2.3 5.4c-5.8 1.4-6.9-8.2-6.9-11.6 3.2-2.9 6.4-6.2 9.2-9.5zm155-268.5c1.5-4.1 2.7-8.5 3.7-12.8 2.9-1.6 11.8-5.5 13.4 0.3q-3.9-1.3-5.8 0.7c1.4 3.7 6.3 3.7 8.7 1.2 2.6-12.5-12.9-12.7-16.8-4.5-1.4-2-0.6-7.6-4.2-5.7-3.4 6.5 2.9 12-2.1 16.4-2.4-3.7-0.6-9.8-5.9-11.7-1 1.3-1.9 2.7-2.8 4.3-1.6 0.8-3 1.8-4.3 2.8 2 5.3 8.1 3.5 11.7 5.9-4.4 5-9.9-1.3-16.3 2.1-1.9 3.5 3.6 2.7 5.6 4.1-8.2 3.9-8 19.5 4.5 16.8 2.6-2.4 2.6-7.2-1.2-8.6q-2 1.9-0.7 5.8c-5.7-1.7-1.9-10.5-0.2-13.5 4.2-0.9 8.6-2.1 12.7-3.6zm268.5-155c3.4-2.9 6.6-6 9.6-9.3 3.4 0.1 12.9 1.2 11.5 7q-2.7-3.1-5.4-2.4c-0.7 4 3.6 6.5 6.9 5.4 8.6-9.4-4.8-17.4-12.3-12.3-0.2-2.4 3.3-6.8-0.7-6.9-6.2 3.9-3.5 11.8-10 13.1-0.3-4.4 4.3-8.7 0.7-13.1-1.5 0.6-3 1.4-4.6 2.3-1.8 0-3.5 0.1-5.1 0.3-1 5.6 5.2 7 7.2 11-6.3 2.1-8-6.1-15.2-6.4-3.5 2.1 1.7 4.2 2.8 6.4-9.1-0.7-16.7 12.9-4.5 16.8 3.4-0.8 5.8-5 3.3-8.1q-2.7 0.7-3.5 4.7c-4.2-4.3 3.5-10 6.5-11.8 4.2 1.3 8.5 2.5 12.8 3.3zm315.5-20.1c1.6-0.1 3.5-0.6 5-0.5q-0.5-2.1-1.1-4.2c-0.6-0.4-1.5-0.5-2.6-0.4-0.8-0.6-1.7-1-2.4-1l-3.1 3.1c1.4 0.7 2.8 2.1 4.2 3zm277.8 160.4c1.5 0.7 3.4 1.2 4.7 2.1q0.5-2.1 1.1-4.2c-0.4-0.6-1.1-1.2-2.1-1.6-0.4-1-1-1.7-1.6-2.1q-2.1 0.6-4.2 1.1c0.9 1.3 1.4 3.2 2.1 4.7zm160.4 277.8c0.9 1.4 2.3 2.8 3 4.2q1.5-1.6 3.1-3.1c0-0.7-0.4-1.6-1-2.4 0.1-1.1 0-2-0.4-2.6q-2.1-0.6-4.2-1.2c0.1 1.6-0.4 3.5-0.5 5.1zm0 320.8c0.1 1.7 0.6 3.6 0.5 5.1q2.1-0.6 4.2-1.1c0.4-0.6 0.5-1.6 0.4-2.6 0.6-0.9 1-1.7 1-2.4l-3.1-3.1c-0.7 1.4-2.1 2.7-3 4.1zm-160.4 277.8c-0.7 1.6-1.2 3.4-2.1 4.7q2.1 0.6 4.2 1.1c0.6-0.3 1.2-1.1 1.6-2 1-0.5 1.7-1 2.1-1.6q-0.6-2.1-1.1-4.2c-1.3 0.8-3.2 1.3-4.7 2zm-277.8 160.4c-1.4 1-2.8 2.3-4.2 3.1l3.1 3c0.7 0 1.6-0.4 2.4-0.9 1.1 0 2-0.1 2.6-0.4q0.6-2.1 1.1-4.2c-1.5 0.1-3.4-0.4-5-0.6zm-320.8 0c-1.7 0.2-3.6 0.7-5.1 0.6q0.6 2.1 1.1 4.2c0.6 0.3 1.6 0.4 2.6 0.4 0.9 0.5 1.7 0.9 2.4 0.9q1.6-1.5 3.1-3c-1.4-0.8-2.8-2.1-4.1-3.1zm-277.8-160.4c-1.6-0.7-3.4-1.2-4.7-2q-0.6 2.1-1.2 4.2c0.4 0.6 1.2 1.1 2.1 1.6 0.4 0.9 1 1.7 1.6 2q2.1-0.5 4.2-1.1c-0.8-1.3-1.3-3.1-2-4.7zm-160.4-277.8c-1-1.4-2.3-2.7-3.1-4.1l-3 3.1c0 0.7 0.3 1.5 0.9 2.4-0.1 1 0 2 0.4 2.6q2.1 0.5 4.2 1.1c-0.1-1.5 0.4-3.4 0.6-5.1zm0-320.8c-0.2-1.6-0.7-3.5-0.6-5.1q-2.1 0.6-4.2 1.2c-0.4 0.6-0.5 1.5-0.4 2.6-0.6 0.8-0.9 1.7-0.9 2.4q1.5 1.5 3 3.1c0.8-1.4 2.1-2.8 3.1-4.2zm160.4-277.8c0.7-1.5 1.2-3.4 2-4.7q-2.1-0.5-4.2-1.1c-0.6 0.3-1.2 1.1-1.6 2.1-0.9 0.4-1.7 1-2.1 1.6q0.6 2.1 1.2 4.2c1.3-0.9 3.1-1.4 4.7-2.1zm277.8-160.4c1.4-0.9 2.7-2.3 4.1-3q-1.5-1.5-3.1-3.1c-0.7 0-1.5 0.4-2.4 1-1-0.1-2 0-2.6 0.4q-0.6 2.1-1.1 4.2c1.5-0.1 3.4 0.4 5.1 0.5zm324.2 26.9c2.8-0.2 5-5.3 1.7-6.1-1.5 1.5-1.4 3.9-1.7 6.1zm-307.8-5.3c2.4-1.6 1.6-7.1-1.5-6.2-0.6 2.1 0.7 4.1 1.5 6.2zm-269.2 149.3c1.2-2.6-2.2-7-4.4-4.6 0.5 2.1 2.6 3.2 4.4 4.6zm-158.5 263.9c-0.3-2.9-5.4-5-6.1-1.8 1.4 1.6 3.9 1.5 6.1 1.8zm-5.4 307.8c-1.6-2.4-7-1.7-6.1 1.5 2 0.6 4.1-0.7 6.1-1.5zm149.3 269.2c-2.6-1.2-6.9 2.1-4.5 4.4 2-0.5 3.2-2.7 4.5-4.4zm263.9 158.5c-2.8 0.2-4.9 5.3-1.7 6.1 1.5-1.5 1.4-3.9 1.7-6.1zm307.8 5.3c-2.3 1.7-1.6 7.1 1.6 6.2 0.5-2.1-0.8-4.1-1.6-6.2zm269.3-149.2c-1.3 2.5 2.1 6.9 4.4 4.5-0.6-2-2.7-3.2-4.4-4.5zm158.5-263.9c0.2 2.8 5.3 4.9 6.1 1.7-1.5-1.5-4-1.4-6.1-1.7zm5.3-307.8c1.6 2.3 7.1 1.6 6.1-1.6-2-0.6-4.1 0.8-6.1 1.6zm-149.3-269.3c2.6 1.3 6.9-2.1 4.6-4.4-2.1 0.5-3.2 2.7-4.6 4.4zm-10.1-19.1c-2.3-2.4-5.7 2-4.4 4.6 1.7-1.4 3.8-2.5 4.4-4.6zm-272.1-150.9c-3.2-0.9-3.9 4.6-1.6 6.2 0.8-2.1 2.1-4.1 1.6-6.2zm-311.1 5.4c-3.2 0.8-1.1 5.9 1.7 6.1-0.3-2.2-0.2-4.6-1.7-6.1zm-266.7 160.2c-2.4 2.3 1.9 5.7 4.5 4.4-1.4-1.7-2.5-3.8-4.5-4.4zm-150.9 272.1c-0.9 3.2 4.5 3.9 6.1 1.6-2-0.8-4.1-2.1-6.1-1.6zm5.4 311.1c0.7 3.2 5.8 1.1 6.1-1.7-2.2 0.3-4.7 0.2-6.1 1.7zm160.2 266.7c2.2 2.4 5.6-2 4.4-4.5-1.8 1.3-3.9 2.5-4.4 4.5zm272.1 150.9c3.1 0.9 3.9-4.5 1.5-6.1-0.8 2-2.1 4.1-1.5 6.1zm311-5.4c3.3-0.8 1.1-5.9-1.7-6.1 0.3 2.2 0.2 4.6 1.7 6.1zm266.8-160.2c2.4-2.3-2-5.6-4.6-4.4 1.4 1.7 2.5 3.9 4.6 4.4zm150.8-272.1c1-3.1-4.5-3.9-6.1-1.5 2 0.8 4.1 2.1 6.1 1.5zm-5.3-311.1c-0.8-3.2-5.9-1.1-6.1 1.8 2.1-0.3 4.6-0.2 6.1-1.8zm-415.4-394.5c2.6-1.7 7.1-2.4 4.9-6.9-3.3 1.3-7.4 2.2-4.9 6.9zm-301.8-6.1c1.4-2.9 5-5.7 0.8-8.5-2.2 2.8-5.3 5.6-0.8 8.5zm-264.5 145.5c-0.2-3.1 1.5-7.4-3.5-7.7-0.5 3.5-1.8 7.5 3.5 7.7zm-156.2 258.3c-1.8-2.6-2.4-7.1-7-4.9 1.4 3.3 2.3 7.4 7 4.9zm-6.2 301.8c-2.8-1.4-5.6-5-8.5-0.8 2.9 2.2 5.7 5.3 8.5 0.8zm145.5 264.4c-3.1 0.3-7.3-1.4-7.7 3.6 3.6 0.5 7.6 1.8 7.7-3.6zm258.3 156.3c-2.6 1.8-7.1 2.4-4.9 6.9 3.3-1.3 7.4-2.2 4.9-6.9zm301.8 6.2c-1.3 2.8-4.9 5.6-0.8 8.4 2.3-2.8 5.3-5.6 0.8-8.4zm264.5-145.6c0.2 3.2-1.5 7.4 3.5 7.8 0.5-3.6 1.8-7.6-3.5-7.8zm156.2-258.2c1.8 2.5 2.4 7.1 7 4.9-1.4-3.4-2.3-7.4-7-4.9zm6.2-301.8c2.8 1.3 5.7 4.9 8.5 0.7-2.8-2.2-5.7-5.3-8.5-0.7zm-145.5-264.5c3.1-0.2 7.3 1.5 7.7-3.6-3.6-0.5-7.5-1.7-7.7 3.6zm-13.4-24.6c-5 0.3-3.3 4.6-3.5 7.7 5.3-0.2 4.1-4.2 3.5-7.7zm-268.7-146.3c-4.2 2.8-0.6 5.6 0.7 8.5 4.6-2.9 1.5-5.7-0.7-8.5zm-306 7.7c-2.2 4.6 2.3 5.2 4.9 7 2.5-4.8-1.5-5.7-4.9-7zm-261.1 159.7c0.4 5 4.6 3.3 7.7 3.5-0.1-5.3-4.1-4.1-7.7-3.5zm-146.3 268.7c2.9 4.2 5.7 0.6 8.5-0.7-2.8-4.6-5.6-1.5-8.5 0.7zm7.7 306c4.6 2.2 5.2-2.3 7-4.9-4.7-2.5-5.6 1.5-7 4.9zm159.7 261.1c5-0.4 3.3-4.6 3.5-7.7-5.3 0.1-4 4.1-3.5 7.7zm268.8 146.3c4.2-2.9 0.6-5.7-0.8-8.5-4.5 2.8-1.4 5.6 0.8 8.5zm305.9-7.8c2.2-4.5-2.3-5.1-4.9-6.9-2.5 4.7 1.6 5.6 4.9 6.9zm261.1-159.6c-0.3-5-4.6-3.3-7.7-3.6 0.2 5.4 4.1 4.1 7.7 3.6zm146.3-268.8c-2.8-4.2-5.7-0.6-8.5 0.8 2.8 4.5 5.7 1.4 8.5-0.8zm-7.7-305.9c-4.6-2.2-5.2 2.3-7 4.9 4.7 2.5 5.6-1.6 7-4.9zm-204.6-486.8c5-1.1 9-4.8 7.1 1.4 5.3-1.4 6.3-5.2 7.8-8.8-4.8 2.5-16.3 1.3-14.9 7.4zm278.5 268.8c4.9 1.6 10.2 0.4 5.5 4.8 5.2 1.4 8-1.4 11.1-3.7-5.4-0.2-14.7-7.1-16.6-1.1zm-271.9-253.9q-0.3-0.4-0.6-0.8 0.7-0.3 1.4-0.5 0.1 0.7 0.2 1.5-0.5-0.1-1-0.2zm-369-98.9q-0.5-0.1-1-0.4 0.5-0.5 1-1.1 0.4 0.6 0.9 1.1-0.5 0.3-0.9 0.4zm-369.1 98.9q-0.5 0.1-1 0.2 0.1-0.8 0.2-1.5 0.7 0.2 1.4 0.5-0.3 0.4-0.6 0.8zm-270.2 270.2q-0.3 0.3-0.8 0.6-0.2-0.7-0.5-1.4 0.7-0.1 1.5-0.2-0.1 0.5-0.2 1zm-98.9 369q-0.1 0.5-0.3 1-0.6-0.5-1.2-1 0.6-0.4 1.2-0.9 0.2 0.5 0.3 0.9zm98.9 369.1q0.1 0.5 0.2 1-0.8-0.1-1.5-0.2 0.3-0.7 0.5-1.4 0.5 0.3 0.8 0.6zm270.2 270.2q0.3 0.3 0.6 0.8-0.7 0.2-1.4 0.5-0.1-0.7-0.2-1.5 0.5 0.1 1 0.2zm369.1 98.9q0.4 0.1 0.9 0.3-0.5 0.6-0.9 1.2-0.5-0.6-1-1.2 0.5-0.2 1-0.3zm369-98.9q0.5-0.1 1-0.2-0.1 0.8-0.2 1.5-0.7-0.3-1.4-0.5 0.3-0.5 0.6-0.8zm270.2-270.2q0.4-0.3 0.8-0.6 0.3 0.7 0.5 1.4-0.7 0.1-1.5 0.2 0.1-0.5 0.2-1zm98.9-369.1q0.1-0.4 0.4-0.9 0.5 0.5 1.1 0.9-0.6 0.5-1.1 1-0.3-0.5-0.4-1zm-98.9-369q-0.1-0.5-0.2-1 0.8 0.1 1.5 0.2-0.2 0.7-0.5 1.4-0.4-0.3-0.8-0.6zm-278-272.5c1.4-3.3 5.8-4.9 4.1-10-4.8 0.7-5.6 8.5-4.1 10zm-369.1-94.6c-0.5-3.6 2.5-7.2-1.5-10.8-3.8 3.1-0.6 10.2 1.5 10.8zm-367 102.5c-2.3-2.8-1.5-7.4-6.8-8.5-1.7 4.6 4.6 9.1 6.8 8.5zm-266.6 272.4c-3.4-1.4-5-5.8-10.1-4.1 0.8 4.9 8.5 5.6 10.1 4.1zm-94.7 369.1c-3.6 0.5-7.2-2.5-10.8 1.6 3.1 3.8 10.2 0.6 10.8-1.6zm102.6 367.1c-2.9 2.2-7.5 1.4-8.6 6.7 4.6 1.7 9.1-4.6 8.6-6.7zm272.3 266.5c-1.4 3.4-5.7 5-4 10.1 4.8-0.8 5.6-8.5 4-10.1zm369.2 94.7c0.4 3.6-2.5 7.2 1.5 10.8 3.8-3.1 0.6-10.2-1.5-10.8zm367-102.5c2.2 2.8 1.4 7.4 6.7 8.5 1.8-4.6-4.6-9.1-6.7-8.5zm266.6-272.4c3.3 1.4 4.9 5.8 10.1 4.1-0.8-4.9-8.6-5.7-10.1-4.1zm94.7-369.1c3.6-0.5 7.1 2.5 10.7-1.6-3.1-3.8-10.2-0.6-10.7 1.6zm-102.6-367.1c2.9-2.2 7.5-1.4 8.6-6.7-4.6-1.7-9.2 4.6-8.6 6.7zm-485.5-177.9c1.7 1.3 4.8 1.5 7.3 0.3 3.8-3.4 2.9-10.9-1.5-14.3 2.1-1.4 8.7-0.3 6.8-4-2.2-1.3-4.6-2-7.2-2.2-2.3-1.1-4.8-1.7-7.3-1.7-3.5 2.3 2.7 4.6 3.9 6.9-5.5 0.7-10.1 6.8-8.5 11.6 1.5 2.3 4.4 3.6 6.5 3.4zm-296.3 0c2.2 0.2 5-1.1 6.5-3.4 1.6-4.8-2.9-10.9-8.4-11.6 1.1-2.3 7.3-4.6 3.8-6.9-2.5 0-4.9 0.6-7.3 1.7-2.6 0.2-5 0.9-7.1 2.2-1.9 3.7 4.6 2.6 6.8 4-4.5 3.4-5.3 10.9-1.6 14.3 2.5 1.2 5.6 1 7.3-0.3zm-256.6 148.1c2-0.8 3.8-3.4 4-6.2-1.1-4.9-8-8-13.1-5.7-0.2-2.6 4.1-7.7-0.2-8-2.1 1.3-3.9 3-5.4 5.2-2.2 1.4-3.9 3.2-5.1 5.4 0.2 4.2 5.3 0 7.9 0.1-2.2 5.1 0.8 12.1 5.8 13.1 2.8-0.1 5.3-1.9 6.1-3.9zm-148.1 256.6c1.3-1.7 1.6-4.8 0.3-7.3-3.4-3.8-10.9-2.9-14.2 1.5-1.4-2.1-0.3-8.7-4.1-6.8-1.2 2.2-1.9 4.6-2.1 7.2-1.2 2.3-1.8 4.8-1.7 7.3 2.3 3.5 4.6-2.7 6.9-3.9 0.6 5.5 6.7 10 11.5 8.5 2.4-1.5 3.7-4.4 3.4-6.5zm0 296.3c0.3-2.2-1-5-3.4-6.5-4.8-1.6-10.9 2.9-11.5 8.4-2.3-1.1-4.6-7.3-6.9-3.8-0.1 2.5 0.5 4.9 1.7 7.3 0.2 2.6 0.9 5 2.1 7.1 3.8 1.9 2.7-4.6 4.1-6.8 3.3 4.5 10.8 5.3 14.2 1.6 1.3-2.5 1-5.6-0.3-7.3zm148.1 256.6c-0.8-2-3.3-3.8-6.1-4-5 1.1-8 8-5.8 13.1-2.6 0.2-7.7-4.1-7.9 0.2 1.2 2.1 2.9 3.9 5.1 5.4 1.5 2.2 3.3 3.9 5.4 5.1 4.3-0.2 0-5.3 0.2-7.9 5.1 2.2 12-0.8 13.1-5.8-0.2-2.8-2-5.3-4-6.1zm256.6 148.1c-1.7-1.3-4.8-1.6-7.3-0.3-3.7 3.4-2.9 10.9 1.6 14.2-2.2 1.4-8.7 0.3-6.8 4.1 2.1 1.2 4.5 1.9 7.1 2.1 2.4 1.2 4.8 1.8 7.3 1.7 3.5-2.3-2.7-4.6-3.8-6.9 5.5-0.6 10-6.7 8.4-11.5-1.5-2.4-4.3-3.7-6.5-3.4zm296.3 0c-2.1-0.3-5 1-6.5 3.4-1.6 4.8 3 10.9 8.5 11.5-1.2 2.3-7.4 4.6-3.9 6.9 2.5 0.1 5-0.5 7.3-1.7 2.6-0.2 5-0.9 7.2-2.1 1.9-3.8-4.7-2.7-6.8-4.1 4.4-3.3 5.3-10.8 1.5-14.2-2.5-1.3-5.6-1-7.3 0.3zm256.6-148.1c-2 0.8-3.8 3.3-3.9 6.1 1 5 8 8 13.1 5.8 0.1 2.6-4.1 7.7 0.1 7.9 2.2-1.2 4-2.9 5.4-5.1 2.2-1.5 3.9-3.3 5.2-5.4-0.3-4.3-5.4 0-8-0.2 2.3-5.1-0.8-12-5.7-13.1-2.8 0.2-5.4 2-6.2 4zm148.1-256.6c-1.3 1.7-1.5 4.8-0.3 7.3 3.4 3.7 10.9 2.9 14.3-1.6 1.4 2.2 0.3 8.7 4 6.8 1.3-2.1 2-4.5 2.2-7.1 1.1-2.4 1.7-4.8 1.7-7.3-2.3-3.5-4.6 2.7-6.9 3.8-0.7-5.5-6.8-10-11.6-8.4-2.3 1.5-3.6 4.3-3.4 6.5zm0-296.3c-0.2 2.1 1.1 5 3.4 6.5 4.8 1.5 10.9-3 11.6-8.5 2.3 1.2 4.6 7.4 6.9 3.9 0-2.5-0.6-5-1.7-7.3-0.2-2.6-0.9-5-2.2-7.2-3.7-1.9-2.6 4.7-4 6.8-3.4-4.4-10.9-5.3-14.3-1.5-1.2 2.5-1 5.6 0.3 7.3zm-148.1-256.6c0.8 2 3.4 3.8 6.2 3.9 4.9-1 8-8 5.7-13.1 2.6-0.1 7.7 4.1 8-0.1-1.3-2.2-3-4-5.2-5.4-1.4-2.2-3.2-3.9-5.4-5.2-4.2 0.3 0 5.4-0.1 8-5.1-2.3-12.1 0.8-13.1 5.7 0.1 2.8 1.9 5.4 3.9 6.2zm-254.3-156.6c1.2 2 1.4 4.5 0.2 7.8-0.4-1.2-0.4-3.3-1.3-4-1 0.2-2 2-3.1 2.8 0.7-3.5 2.1-5.5 4.2-6.6zm-300.8 0c2 1.1 3.4 3.2 4.1 6.6-1.1-0.8-2.1-2.6-3.1-2.8-0.8 0.7-0.8 2.8-1.3 4-1.2-3.3-0.9-5.8 0.3-7.8zm-260.6 150.4c2.3 0 4.6 1 6.9 3.7-1.3-0.2-3.1-1.3-4.1-0.9-0.4 1 0.7 2.8 0.9 4.1-2.7-2.3-3.7-4.6-3.7-6.9zm-150.4 260.5c2-1.2 4.5-1.4 7.8-0.3-1.2 0.5-3.3 0.5-4 1.4 0.2 1 2 2 2.8 3.1-3.4-0.7-5.5-2.2-6.6-4.2zm0 300.8c1.1-2 3.2-3.4 6.6-4.1-0.8 1-2.6 2.1-2.8 3.1 0.7 0.8 2.8 0.8 4 1.3-3.3 1.2-5.8 0.9-7.8-0.3zm150.4 260.6c0-2.3 1-4.6 3.7-6.9-0.2 1.3-1.3 3.1-0.9 4.1 1 0.4 2.8-0.7 4.1-0.9-2.3 2.7-4.6 3.7-6.9 3.7zm260.6 150.4c-1.2-2-1.5-4.5-0.3-7.8 0.5 1.2 0.5 3.3 1.3 4 1-0.2 2-2 3.1-2.8-0.7 3.4-2.1 5.5-4.1 6.6zm300.8 0c-2.1-1.1-3.5-3.2-4.2-6.6 1.1 0.8 2.1 2.6 3.1 2.8 0.9-0.7 0.9-2.8 1.3-4 1.2 3.3 1 5.8-0.2 7.8zm260.5-150.4c-2.3 0-4.6-1-6.9-3.7 1.3 0.2 3.1 1.2 4.1 0.9 0.4-1-0.7-2.8-0.9-4.1 2.7 2.3 3.7 4.6 3.7 6.9zm150.4-260.6c-2 1.2-4.5 1.5-7.8 0.3 1.2-0.5 3.3-0.5 4-1.3-0.2-1-2-2-2.8-3.1 3.4 0.7 5.5 2.1 6.6 4.1zm0-300.8c-1.1 2-3.2 3.5-6.6 4.2 0.8-1.1 2.6-2.1 2.8-3.1-0.7-0.9-2.8-0.9-4-1.4 3.3-1.1 5.8-0.9 7.8 0.3zm-150.4-260.5c0 2.3-1 4.6-3.7 6.9 0.2-1.3 1.3-3.1 0.9-4.1-1-0.4-2.8 0.7-4.1 0.9 2.3-2.7 4.6-3.7 6.9-3.7z"/>
	</g>
</svg>